<?xml version="1.0" standalone="no"?>
<!DOCTYPE svg PUBLIC "-//W3C//DTD SVG 1.1//EN" "http://www.w3.org/Graphics/SVG/1.1/DTD/svg11.dtd" >
<svg xmlns="http://www.w3.org/2000/svg" xmlns:xlink="http://www.w3.org/1999/xlink" version="1.1">
<metadata>
Created by FontForge 20170731 at Tue May  2 14:22:45 2023
 By Aleksey,,,
Copyright (c) 2022 by Nicky Laatz. All rights reserved.
</metadata>
<defs>
<font id="AwesomeSerif-MediumExtraTall" horiz-adv-x="452" >
  <font-face 
    font-family="BonV-all Med"
    font-weight="500"
    font-stretch="normal"
    units-per-em="2048"
    panose-1="0 0 0 0 0 0 0 0 0 0"
    ascent="1638"
    descent="-410"
    x-height="1237"
    cap-height="1724"
    bbox="-118.2 -508 1978 2245"
    underline-thickness="102"
    underline-position="-460"
    unicode-range="U+000D-FB02"
  />
<missing-glyph horiz-adv-x="522" 
 />
    <glyph glyph-name="fi" unicode="fi" horiz-adv-x="997" 
d="M145 1243q0 86 8 152t32 131.5t64 108t107.5 68.5t159.5 26q127 0 223.5 -63t108.5 -167q8 -64 -29 -103.5t-88 -39.5t-82.5 37t-34.5 90q-7 94 -31.5 140.5t-82.5 47.5q-45 1 -77 -18.5t-50.5 -53t-28.5 -90.5t-12.5 -117.5t-1.5 -148.5h186v-53h-186l-2 -676v-49v-69.5
t0.5 -72.5t3 -80.5t5.5 -69.5t8.5 -64t12.5 -41q13 -26 76 -31v-37h-393l-2 37q62 4 78 31q9 20 15.5 63t9 100t3.5 104t1.5 105.5t0.5 73.5v268q0 64 -1 192t-1 193v23h-127v53h127zM541 1178l6 41q43 2 155.5 18t165.5 16l-4 -739v-37v-49.5v-54t1 -61t2.5 -59.5t3.5 -59
t5 -51t7.5 -44.5t9.5 -30.5q13 -26 76 -31v-37h-396v37q63 5 76 31q6 12 10.5 30.5t7.5 44.5t5.5 51t4 59.5t2 59t1 61t0.5 54v49.5v37v267.5t-8.5 225.5t-26.5 146q-5 8 -10.5 12.5t-14.5 6.5t-14 2.5t-18.5 0t-16.5 -0.5q-20 0 -30 4z" />
    <glyph glyph-name="fl" unicode="fl" horiz-adv-x="1038" 
d="M893 1724q6 2 18 2l-4 -1212q-8 -366 29 -446q11 -26 76 -31v-37h-396l-2 37q64 4 78 31q9 20 15.5 62.5t9 100.5t4 104t2 105.5t0.5 73.5q0 786 -18 1002q-9 67 -25 92q-44 68 -205 51q-84 -9 -115 -103.5t-28 -312.5h188l-2 -53h-186q0 -455 -2 -676v-50v-71t0.5 -74
t3 -83t5.5 -72t8.5 -65.5t12.5 -41.5q11 -25 76 -30v-27h-397v27q65 5 76 30q7 15 12.5 41.5t8.5 65.5t5.5 72t3 83t0.5 74v71v50v268q0 64 -1 192t-1 193v23h-127l2 53h125q1 63 4.5 111.5t12.5 106.5t28.5 99.5t49 78.5t76.5 57t108 22q105 6 471 6z" />
    <glyph glyph-name="Th" unicode="Th" horiz-adv-x="1847" 
d="M915 1522q-10 33 -22 57q-64 94 -221 94q-51 0 -60 -49q-10 -51 -15 -153.5t-5 -183t1 -231.5t1 -198q0 -52 -1 -191t-0.5 -207.5t3.5 -165t10.5 -150.5t20.5 -76q17 -26 80 -31l-2 -37h-410v37q63 5 78 31q9 15 15.5 48t10.5 88.5t6 105t2.5 132.5t1 135t0 147.5
t-0.5 137.5q0 22 0.5 151.5t0 186t-2.5 156t-6.5 163t-12.5 105.5q-9 49 -57 49q-146 0 -205 -82q-16 -33 -28.5 -87.5t-21 -107t-12.5 -65.5l-38 15q0 22 5 168t5 210h780q41 2 97.5 2t123 -1t92.5 -1l-4 -737q34 78 76 138t107 104t139 45q112 0 188.5 -82.5t83.5 -253.5
q1 -43 1 -270.5t7 -393t27 -206.5q11 -26 78 -31v-37h-408v37q67 5 78 31q33 68 33 446q0 252 -6 360q-3 77 -19.5 131.5t-42.5 81.5t-52 38.5t-54 9.5q-83 -11 -152.5 -113.5t-85.5 -263.5v-244q-8 -366 31 -446q11 -26 78 -31v-37h-408v37q67 5 78 31q6 12 10.5 30.5
t7.5 44.5t5.5 51t4 59.5t2 59t1 61t0.5 54v49.5v37q7 775 -17 1008z" />
    <glyph glyph-name="qu" unicode="qu" horiz-adv-x="1966" 
d="M244 645q-1 -129 11.5 -233t38 -182.5t68.5 -120.5t101 -41q36 1 64 19t47.5 44.5t34.5 73t23.5 89t14.5 110t9 118t6 129.5v113q2 33 2 156q-8 159 -46.5 228t-121.5 69q-61 0 -108.5 -46t-73.5 -111.5t-43 -149t-22 -147.5t-5 -118zM1645 -20v264q-40 -111 -120.5 -177
t-183.5 -67q-114 0 -185 76.5t-83 230.5q-10 116 -5.5 267t-3 324.5t-34.5 238.5q-9 18 -29 19.5t-40 -3.5v-2q-4 -1 -15 -3.5t-16 -3.5t-14.5 -3.5t-14.5 -4.5t-11 -5t-10 -6t-6 -7q-5 -11 -9 -25.5t-7 -29t-5 -36t-3.5 -37.5t-2.5 -41.5t-1.5 -39.5t-1 -41t-0.5 -36.5
v-35.5v-30v-140v-186.5t0.5 -189.5t3 -202t6 -166.5t9.5 -141.5t14 -72q9 -16 32 -16q9 0 27 3.5t28.5 4t26.5 -3.5l-12 -43q-29 -3 -147.5 -31t-174.5 -28l2 577q-85 -138 -215 -141q-186 -3 -299.5 177.5t-113.5 471.5q0 83 14.5 169t48 173.5t83 155.5t125.5 110.5
t169 42.5q109 0 168 -51q105 -47 235 -47q24 0 70 4q18 3 135.5 30t171.5 27v-489q0 -259 4 -385q5 -266 150 -266q27 0 58 12.5t66.5 41t67 89t48.5 143.5q0 6 1 56t2 87t1.5 102t-0.5 116t-3.5 113.5t-6.5 109.5t-11.5 89.5t-17.5 66.5q-9 16 -33 16q-5 0 -41 -5.5
t-41 1.5l12 43q29 3 150.5 31t177.5 28q0 -16 -2 -153.5t-2.5 -277t1 -298.5t10 -275.5t22.5 -150.5q9 -16 32 -16q9 0 27 3.5t28.5 4t26.5 -3.5l-14 -43q-31 -4 -147.5 -33.5t-171.5 -29.5z" />
    <glyph glyph-name="fh" unicode="fh" horiz-adv-x="1595" 
d="M692 1477q-4 46 -11 74t-27.5 60t-65 43.5t-113.5 4.5q-84 -9 -115 -103.5t-28 -312.5h188l-2 -53h-186q0 -455 -2 -676v-50v-71t0.5 -74t3 -83t5.5 -72t8.5 -65.5t12.5 -41.5q11 -25 76 -30v-27h-397v27q65 5 76 30q7 15 12.5 41.5t8.5 65.5t5.5 72t3 83t0.5 74v71v50
v268q0 64 -1 192t-1 193v23h-127l2 53h125q1 63 4.5 111.5t12.5 106.5t28.5 99.5t49 78.5t76.5 57t108 22q111 6 469 6h4l-4 -737q123 284 311 287q110 0 184 -82t80 -254q2 -53 2.5 -273t7 -388t25.5 -209q11 -26 78 -31l-2 -37h-395v37q64 5 75 31q6 12 10.5 30.5
t7.5 44.5t5.5 51t4 59.5t2 59t1 61t0.5 54v49.5v37q0 288 -4 360q-2 62 -14 110t-28.5 76.5t-38 46t-42 23.5t-41.5 5q-80 -11 -147.5 -113.5t-81.5 -263.5l-2 -244v-37v-49.5t0.5 -54t1 -61t2 -59t4 -59.5t5.5 -51t7.5 -44.5t10.5 -30.5q11 -26 75 -31v-37h-395l-2 37
q64 4 78 31q9 20 15.5 62.5t9 100.5t4 104t2 105.5t0.5 73.5q0 732 -15 963z" />
    <glyph glyph-name="fb" unicode="fb" horiz-adv-x="1550" 
d="M1307 633q1 142 -10 247.5t-35 181.5t-65 113.5t-99 36.5q-36 -1 -65 -19t-49.5 -45.5t-36 -72.5t-25 -90t-16.5 -109.5t-10.5 -119t-6.5 -129.5l-2 -113v-152q8 -165 46 -237t122 -72q60 0 107 47t73.5 114.5t43.5 152.5t22.5 149.5t5.5 116.5zM891 1137q91 151 233 151
q185 0 290.5 -171t105.5 -478q0 -69 -11 -141t-32.5 -146.5t-58.5 -139t-85 -116t-115 -81t-145 -29.5q-96 0 -164 53q-69 -2 -175.5 -25t-129.5 -26l-6 53q64 4 78 31q9 20 15.5 61.5t9 99t4 103t2 105.5t0.5 73q0 684 -13 924q-6 88 -18 122q-41 116 -201 99
q-84 -9 -115 -103.5t-28 -312.5h188l-2 -53h-186q0 -455 -2 -676v-50v-71t0.5 -74t3 -83t5.5 -72t8.5 -65.5t12.5 -41.5q11 -25 76 -30v-27h-397v27q65 5 76 30q7 15 12.5 41.5t8.5 65.5t5.5 72t3 83t0.5 74v71v50v268q0 64 -1 192t-1 193v23h-127l2 53h125q1 63 4.5 111.5
t12.5 106.5t28.5 99.5t49 78.5t76.5 57t108 22q102 6 450 6h21z" />
    <glyph glyph-name="fk" unicode="fk" horiz-adv-x="1576" 
d="M899 502q-7 -360 29 -434q11 -26 76 -31v-37h-398l-2 37q64 4 78 31q9 20 15.5 62.5t9 100.5t4 104t2 105.5t0.5 73.5q0 767 -19 991q-2 19 -4.5 33.5t-8 31.5t-13 28.5t-19 25t-27 19.5t-37 13t-48.5 6t-62 -3q-84 -9 -115 -103.5t-28 -312.5h188l-2 -53h-186
q0 -455 -2 -676v-50v-71t0.5 -74t3 -83t5.5 -72t8.5 -65.5t12.5 -41.5q11 -25 76 -30v-27h-397v27q65 5 76 30q7 15 12.5 41.5t8.5 65.5t5.5 72t3 83t0.5 74v71v50v268q0 64 -1 192t-1 193v23h-127l2 53h125q1 63 4.5 111.5t12.5 106.5t28.5 99.5t49 78.5t76.5 57t108 22
q102 6 455 6q8 2 22 2h4l-4 -1091q62 92 190.5 272t163.5 236q17 25 -19.5 48t-82.5 21v50h387v-54q-157 -7 -467 -448q24 8 39 8t33 -6q41 -14 80 -93.5t69.5 -179.5t62 -196.5t70.5 -154t82 -42.5q15 4 29 19.5t22.5 30.5t24.5 47l35 -29q-35 -104 -104 -142.5t-150 -31.5
q-60 6 -102.5 56.5t-69 128.5t-49.5 161t-60 174t-84 149q-63 -95 -100 -157z" />
    <glyph glyph-name=".notdef" horiz-adv-x="522" 
 />
    <glyph glyph-name="uni0000" horiz-adv-x="0" 
 />
    <glyph glyph-name="uni0000" horiz-adv-x="0" 
 />
    <glyph glyph-name="uni000D" unicode="&#xd;" horiz-adv-x="512" 
 />
    <glyph glyph-name="space" unicode=" " horiz-adv-x="305" 
 />
    <glyph glyph-name="exclam" unicode="!" horiz-adv-x="538" 
d="M266 1745q56 0 85.5 -43.5t29.5 -112.5q0 -181 -45 -568.5t-47 -621.5h-49q-4 228 -47 617.5t-43 572.5q0 69 30.5 112.5t85.5 43.5zM256 215q47 0 79 -33.5t32 -83.5q0 -53 -31.5 -87t-79.5 -34q-49 0 -80 34t-31 87q0 50 32 83.5t79 33.5z" />
    <glyph glyph-name="quotedbl" unicode="&#x22;" horiz-adv-x="595" 
d="M80 1565q0 45 20.5 78t65.5 34q42 0 62 -33.5t20 -78.5q0 -93 -30 -210t-38 -169h-28q-7 43 -39.5 164t-32.5 215zM348 1563q0 44 20.5 76.5t65.5 33.5q42 0 62 -33.5t20 -76.5q0 -92 -30 -207t-37 -174h-29q-10 57 -30 125.5t-31 125.5t-11 130z" />
    <glyph glyph-name="numbersign" unicode="#" horiz-adv-x="1544" 
d="M549 483h389l152 420h-388zM190 420v63h226l153 420h-288v64h311l172 467h133l-172 -467h389l176 481h135l-176 -481h226v-64h-250l-152 -420h311v-63h-335l-177 -490h-135l176 490h-387l-182 -502h-133l182 502h-203z" />
    <glyph glyph-name="dollar" unicode="$" horiz-adv-x="962" 
d="M514 766v-703q95 28 149.5 124.5t51.5 230.5q-4 110 -56 190.5t-145 157.5zM442 1128v547q-86 -18 -137.5 -86t-48.5 -166q1 -88 49.5 -157t136.5 -138zM442 1737v164h72v-164q43 -4 85.5 -17.5t66.5 -26t60 -33t48 -26.5l17 74l45 2q1 -6 7 -279.5t7 -279.5h-41
q-40 270 -112.5 393.5t-182.5 134.5v-606q145 -104 200 -155q168 -154 195 -350q5 -30 6 -62q9 -204 -107 -343.5t-294 -168.5v-189h-72v183q-184 0 -323 112l-19 -84h-45q-1 6 -4 299t-4 299h49q3 -252 103.5 -404t242.5 -155v766q-137 100 -171 128q-143 121 -180 258
q-14 52 -15 110q-1 93 28.5 171t81 130t117.5 83t139 36z" />
    <glyph glyph-name="percent" unicode="%" horiz-adv-x="1511" 
d="M805 352q0 83 18.5 160t56 143t102 106t148.5 40q83 0 147 -40.5t101 -107t55.5 -143.5t18.5 -158t-18.5 -157t-55.5 -141t-101 -104.5t-147 -39.5q-84 0 -148.5 39.5t-102 104.5t-56 141t-18.5 157zM969 352q0 -56 6.5 -116t22 -128t50 -111.5t82.5 -43.5q158 0 158 399
q0 61 -5.5 120t-20 131t-49 116.5t-83.5 44.5q-46 0 -80 -40t-50.5 -106t-23.5 -131.5t-7 -134.5zM219 -94q672 1216 1008 1818h94q-619 -1119 -1008 -1818h-94zM74 1262q0 66 11 128.5t36.5 121.5t62.5 103t92.5 70.5t122.5 26.5q83 0 147 -40.5t101 -107t55.5 -143.5
t18.5 -159q0 -81 -18.5 -156.5t-55.5 -141t-101 -104.5t-147 -39q-84 0 -148.5 39t-102 104.5t-56 141t-18.5 156.5zM238 1262q0 -56 6.5 -115t22 -127.5t50 -112t82.5 -43.5q158 0 158 398q0 47 -2.5 93t-12.5 106.5t-26 105.5t-46.5 76.5t-70.5 31.5q-38 0 -67 -27.5
t-46.5 -70t-28.5 -99.5t-15 -109.5t-4 -106.5z" />
    <glyph glyph-name="ampersand" unicode="&#x26;" horiz-adv-x="1695" 
d="M453 893q-188 -155 -195 -393q-2 -69 12.5 -137t47 -130.5t79.5 -110t115.5 -76t149.5 -28.5q167 0 303 86q-135 123 -281 355.5t-231 433.5zM596 1049q45 35 77.5 82.5t48.5 84.5t26.5 89.5t12 72.5t3.5 58q3 48 0 88.5t-13.5 79.5t-34 61t-59.5 21q-107 -2 -129 -179
q-28 -201 68 -458zM858 762q-37 55 -41.5 125.5t25 130t84.5 84.5q80 37 176 37q22 0 67 -3t68 -3q35 0 70 6q45 7 86.5 26t80.5 51.5t63 78t33.5 106.5t-7.5 137q-21 102 -84 102q-38 0 -97 -41q-18 -12 -39 -12q-52 0 -88.5 55t-13.5 125q29 86 111 86q123 0 202 -176
q45 -66 59.5 -165t-3.5 -200.5t-86 -191.5t-176 -131q54 -103 51 -266q-1 -149 -64 -292t-172 -253q131 -115 252 -115q34 0 78 13q55 14 91 52t63 101l28 -8q-39 -133 -130.5 -205.5t-225.5 -72.5q-159 0 -303 118q-178 -110 -381 -110q-145 -1 -259.5 39.5t-186 111
t-106 165t-26.5 204.5q11 164 97 278t274 203q-112 286 -78 488q23 132 107 213.5t215 81.5q116 0 192 -80t76 -219q-2 -131 -86 -250t-233 -201q77 -186 214.5 -402.5t270.5 -349.5q135 179 121 472q-5 102 -37.5 174.5t-91.5 99.5q-50 8 -76 8t-53 -6q-69 -13 -90.5 -64
t8.5 -126q4 -8 -3 -15t-16 -10z" />
    <glyph glyph-name="ampersand" unicode="&#x222b;" horiz-adv-x="1695" 
d="M453 893q-188 -155 -195 -393q-2 -69 12.5 -137t47 -130.5t79.5 -110t115.5 -76t149.5 -28.5q167 0 303 86q-135 123 -281 355.5t-231 433.5zM596 1049q45 35 77.5 82.5t48.5 84.5t26.5 89.5t12 72.5t3.5 58q3 48 0 88.5t-13.5 79.5t-34 61t-59.5 21q-107 -2 -129 -179
q-28 -201 68 -458zM858 762q-37 55 -41.5 125.5t25 130t84.5 84.5q80 37 176 37q22 0 67 -3t68 -3q35 0 70 6q45 7 86.5 26t80.5 51.5t63 78t33.5 106.5t-7.5 137q-21 102 -84 102q-38 0 -97 -41q-18 -12 -39 -12q-52 0 -88.5 55t-13.5 125q29 86 111 86q123 0 202 -176
q45 -66 59.5 -165t-3.5 -200.5t-86 -191.5t-176 -131q54 -103 51 -266q-1 -149 -64 -292t-172 -253q131 -115 252 -115q34 0 78 13q55 14 91 52t63 101l28 -8q-39 -133 -130.5 -205.5t-225.5 -72.5q-159 0 -303 118q-178 -110 -381 -110q-145 -1 -259.5 39.5t-186 111
t-106 165t-26.5 204.5q11 164 97 278t274 203q-112 286 -78 488q23 132 107 213.5t215 81.5q116 0 192 -80t76 -219q-2 -131 -86 -250t-233 -201q77 -186 214.5 -402.5t270.5 -349.5q135 179 121 472q-5 102 -37.5 174.5t-91.5 99.5q-50 8 -76 8t-53 -6q-69 -13 -90.5 -64
t8.5 -126q4 -8 -3 -15t-16 -10z" />
    <glyph glyph-name="quotesingle" unicode="'" horiz-adv-x="319" 
d="M76 1567q0 45 20.5 78t65.5 34q42 0 62 -33.5t20 -78.5q0 -94 -30.5 -212t-37.5 -169h-29q-10 58 -29.5 126t-30.5 125.5t-11 129.5z" />
    <glyph glyph-name="parenleft" unicode="(" horiz-adv-x="550" 
d="M498 -131l-29 -29q-186 141 -300 407.5t-114 565.5q0 285 114 544.5t302 418.5l27 -27q-127 -171 -191.5 -413.5t-64.5 -532.5q0 -597 256 -934z" />
    <glyph glyph-name="parenright" unicode=")" horiz-adv-x="550" 
d="M47 -131q127 169 191.5 408.5t64.5 525.5q0 33 -2 49q-13 574 -254 897l27 27q67 -55 119 -119q8 -8 10 -12q138 -164 212 -377.5t74 -454.5q0 -130 -25.5 -265.5t-74.5 -266.5t-130 -247t-183 -192z" />
    <glyph glyph-name="asterisk" unicode="*" horiz-adv-x="870" 
d="M401 1266q-7 -6 -80 -69t-108 -85q-9 -6 -16 -6q-25 -6 -45 24q-3 3 -15 21q-9 22 -6 39q1 16 14.5 29t30.5 18l193 84l-203 96l-8 4q-24 14 -27 37q-3 18 6 39q1 2 4 7t4 7q20 38 54 31q12 -4 20 -10q27 -17 60.5 -44.5t71.5 -60.5t50 -43q-31 205 -34 248q-3 57 55 60
h12h12q52 -7 46 -60q-3 -46 -16.5 -136.5t-16.5 -113.5q11 9 52.5 46t76 64.5t61.5 43.5q2 1 7.5 3t7.5 3q30 6 53 -31q2 -4 5 -11t5 -11q4 -12 4 -21q3 -32 -35 -51l-204 -96l194 -84q3 -1 8 -4t8 -4q26 -16 29 -39q4 -19 -8 -39q-2 -6 -12 -21q-20 -30 -45 -24q-7 0 -23 8
q-27 18 -61.5 46.5t-71.5 61.5t-51 44q2 -19 15.5 -110t17.5 -138q5 -57 -54 -60h-12q-6 0 -12 3q-50 3 -47 57q3 43 34 248z" />
    <glyph glyph-name="plus" unicode="+" horiz-adv-x="1187" 
d="M594 805v22v-22zM604 815h-20h20z" />
    <glyph glyph-name="comma" unicode="," horiz-adv-x="444" 
d="M246 12q-57 1 -85 40t-22 93t40 85.5t75 31.5h10q47 -6 80 -53t29 -113q-6 -98 -68.5 -175t-154.5 -114l-17 41q59 35 89 79t24 85z" />
    <glyph glyph-name="hyphen" unicode="-" horiz-adv-x="624" 
d="M532 561h-454v137h454v-137z" />
    <glyph glyph-name="period" unicode="." horiz-adv-x="399" 
d="M209 213q49 0 81 -33.5t32 -83.5q0 -51 -31.5 -83.5t-81.5 -32.5t-81.5 33t-31.5 83t32 83.5t81 33.5z" />
    <glyph glyph-name="slash" unicode="/" horiz-adv-x="937" 
d="M260 -111h-106l651 1977h104z" />
    <glyph glyph-name="zero" unicode="0" horiz-adv-x="1058" 
d="M819 870q0 181 -15.5 325t-48.5 255.5t-89.5 172t-133.5 60.5q-78 1 -134.5 -59.5t-89 -173t-47.5 -255t-15 -321.5q0 -183 15 -330.5t47.5 -266t89.5 -183.5t134 -65q77 -1 133.5 64t89.5 183t48.5 266t15.5 328zM532 1741q110 0 198 -51.5t153.5 -155t101 -272
t35.5 -390.5q0 -438 -133 -670.5t-355 -232.5q-223 0 -355 232t-132 671q0 436 130 652.5t357 216.5z" />
    <glyph glyph-name="one" unicode="1" horiz-adv-x="501" 
d="M16 1604l-2 43q27 2 151 39.5t210 37.5l-4 -1210v-49v-69.5t0.5 -72.5t3 -80t5.5 -69t8.5 -64t12.5 -40q7 -16 31 -23.5t49 -7.5v-39h-407v39q67 0 80 31q7 14 12.5 40t8.5 64t5.5 69t3 80t0.5 72.5v69.5v49q7 993 -34 1092q-7 12 -27 12q-11 0 -51.5 -10t-55.5 -4z" />
    <glyph glyph-name="two" unicode="2" horiz-adv-x="1085" 
d="M975 0h-938l4 45q37 54 116.5 155.5t152 192.5t156.5 214t144.5 232.5t100.5 234t39 231.5q0 147 -61.5 247.5t-170.5 100.5q-118 1 -205 -89t-123 -229l-49 2q13 79 47.5 149.5t87.5 128t129.5 91t165.5 33.5q166 0 282 -118.5t120 -299.5q2 -111 -36.5 -224t-99 -205
t-146 -192.5t-164 -177.5t-168 -170.5t-142.5 -161.5h594q35 0 61 9t40 20.5t25 36.5t15 41.5t10 51.5q2 11 3 16h30z" />
    <glyph glyph-name="three" unicode="3" horiz-adv-x="987" 
d="M354 848l-20 41q121 99 197.5 235t80.5 291q3 103 -36.5 170t-120.5 70h-9q-91 0 -172 -90t-122 -215l-52 8q36 156 152.5 270.5t253.5 114.5q55 0 107.5 -18.5t98 -54t74.5 -96t31 -136.5q4 -132 -71 -240t-177 -170q168 0 278 -128t109 -341q-1 -135 -49.5 -248.5
t-126.5 -185t-171.5 -111t-188.5 -39.5q-6 0 -17.5 1t-17.5 1q-82 6 -152 41t-114.5 84t-69 103t-24.5 104q0 38 24.5 67.5t61.5 29.5q28 0 46.5 -26.5t27.5 -66.5t24.5 -87.5t35 -88.5t61.5 -70.5t102 -33.5q109 -8 189.5 58.5t118.5 177.5t36 249q-1 56 -13 121t-36 134
t-71 114t-108 45q-64 0 -170 -84z" />
    <glyph glyph-name="four" unicode="4" horiz-adv-x="1040" 
d="M618 1548l-505 -821l503 4q-3 85 -0.5 409.5t2.5 407.5zM584 70q6 13 11 36.5t8 57.5t5.5 69t4 80t2.5 81.5t1 83v74v65.5v47h-585v43l628 1019h142v-999h233v-63h-233q0 -9 -1 -51t-1 -68t-0.5 -74t0 -82t1.5 -79t3 -78.5t5.5 -67t8.5 -57t12 -37.5q7 -16 31 -23.5
t49 -7.5v-39h-405v39q25 0 49 7.5t31 23.5z" />
    <glyph glyph-name="five" unicode="5" horiz-adv-x="972" 
d="M119 412q24 0 40.5 -16.5t24 -43t15.5 -60.5t14.5 -69.5t21 -69.5t34 -61t55.5 -44.5t84 -18.5q101 0 178 69.5t116.5 184t38.5 252.5q0 76 -13 149.5t-41 143.5t-81.5 113.5t-124.5 43.5q-144 0 -336 -168l-34 41l104 813q31 2 138 -6t167 -8q63 0 113 7t97 24.5
t76.5 52t37.5 84.5h39l-4 -355h-631l-70 -552q168 122 318 122q202 0 324 -124.5t122 -354.5q0 -110 -29 -205.5t-79.5 -164.5t-116.5 -119t-141 -74.5t-152 -24.5q-128 0 -231.5 67t-145.5 181q-28 70 -16.5 113t36.5 61.5t52 16.5z" />
    <glyph glyph-name="six" unicode="6" horiz-adv-x="1009" 
d="M244 537q15 -147 47.5 -257.5t89.5 -179.5t131 -69q61 0 108.5 36t75.5 89t46.5 122.5t25.5 126.5t8 111q3 92 -10 178t-41 158t-78 115t-115 43h-6q-84 -3 -151 -73t-101 -177t-30 -223zM496 -25q-104 0 -185 47t-132.5 127t-83 193t-42.5 238t-6 268q2 72 11 149
t28.5 166t47.5 170t71.5 157t96.5 131t127 88.5t159 33.5q145 0 246 -86.5t96 -202.5q-1 -63 -32.5 -96t-72.5 -25q-35 7 -52.5 47.5t-24.5 91.5t-18.5 101t-46 83.5t-95.5 31.5q-76 -2 -141 -75t-108 -193.5t-69.5 -268.5t-33.5 -307q57 106 148 169.5t204 63.5
q93 0 170 -46.5t125.5 -124t71.5 -179t16 -211.5q-10 -153 -71 -275t-166.5 -194t-237.5 -72z" />
    <glyph glyph-name="seven" unicode="7" horiz-adv-x="851" 
d="M39 1362l6 360l789 2l-15 -196q-68 -96 -127.5 -193t-124.5 -226.5t-108.5 -252t-67 -262t-12.5 -262.5q4 -54 18.5 -126t14.5 -112q0 -44 -23.5 -80.5t-71.5 -36.5q-50 0 -76 31.5t-28 83.5q-9 138 23 306.5t89 324t132.5 312.5t147.5 277.5t140 213.5q-215 10 -268 10
q-11 0 -48 1t-59 1t-60 -3t-63 -9t-56 -19t-51 -31.5t-36 -47.5t-22 -66h-43z" />
    <glyph glyph-name="eight" unicode="8" horiz-adv-x="980" 
d="M412 821q-88 -62 -133.5 -157.5t-47.5 -188.5q-5 -117 23.5 -217.5t93 -165.5t152.5 -65q83 0 143 51t87 130.5t22 172.5q-2 38 -10 73.5t-17.5 63.5t-29 57.5t-34.5 50t-43.5 46.5t-46 40.5t-52.5 38.5t-52 35t-55 35zM705 1339q3 57 -5.5 114t-29.5 113t-66 91t-108 35
q-52 0 -93 -18t-68 -48.5t-44.5 -71.5t-25 -84.5t-7.5 -91.5q1 -43 12 -80.5t35 -72.5t44.5 -59.5t62.5 -57.5t66 -50t75 -52q15 -10 22 -15q122 130 130 348zM627 956q68 -47 115 -88.5t94.5 -100.5t73 -133.5t28.5 -162.5q8 -218 -112.5 -354.5t-331.5 -139.5h-11
q-197 0 -318.5 121t-115.5 320q4 154 91.5 262.5t224.5 173.5q-64 42 -107 78t-86 88t-64.5 118.5t-21.5 147.5q0 196 116 325.5t294 129.5q159 0 272.5 -106.5t112.5 -286.5q-2 -241 -254 -392z" />
    <glyph glyph-name="nine" unicode="9" horiz-adv-x="1079" 
d="M776 1147q-10 115 -31 211t-54 170.5t-80 116t-105 41.5q-61 0 -109 -36t-76 -89.5t-47 -123t-26 -126.5t-8 -111q-2 -93 11 -178t41 -157t78 -115t115 -43q71 0 129 45.5t91.5 114.5t51.5 142t19 138zM522 1741q104 0 185 -47t132.5 -127t83 -193.5t42.5 -238.5t6 -269
q-3 -74 -11.5 -149.5t-27 -165.5t-45 -170t-69 -156t-95.5 -131t-126.5 -88t-160.5 -33q-98 0 -179.5 39.5t-127.5 106t-43 143.5q3 62 33.5 95.5t70.5 25.5q35 -7 53 -46.5t25 -90t18.5 -100t44.5 -83.5t91 -34t108 37t85 96t63.5 138.5t46 158t30 162.5t18 143.5
t7.5 107.5q-56 -107 -147.5 -170t-206.5 -63q-123 0 -214.5 79.5t-133 206.5t-31.5 275q10 153 71 275t166.5 194t237.5 72z" />
    <glyph glyph-name="colon" unicode=":" horiz-adv-x="415" 
d="M205 995q49 0 81.5 -35t32.5 -86t-32 -83.5t-82 -32.5q-51 0 -83 33t-32 83q0 51 33 86t82 35zM205 475q49 0 81.5 -34t32.5 -85q0 -52 -32 -85t-82 -33t-82.5 34t-32.5 84q0 51 33 85t82 34z" />
    <glyph glyph-name="semicolon" unicode=";" horiz-adv-x="444" 
d="M250 -16q-60 3 -88.5 42t-22.5 95q7 59 46.5 92.5t84.5 28.5q45 -6 72 -52.5t23 -115.5q-6 -103 -64 -183.5t-149 -117.5l-19 41q61 37 93 83t24 87zM258 668q47 0 80 -36.5t33 -88.5q0 -55 -32.5 -91t-80.5 -36q-50 0 -81.5 36t-31.5 91q0 53 32 89t81 36z" />
    <glyph glyph-name="less" unicode="&#x3c;" horiz-adv-x="1085" 
d="M967 393v-129l-813 408v92l813 405v-127l-666 -323z" />
    <glyph glyph-name="equal" unicode="=" horiz-adv-x="1071" 
d="M170 899v121h729v-121h-729zM170 725h729v-119h-729v119z" />
    <glyph glyph-name="greater" unicode="&#x3e;" horiz-adv-x="1085" 
d="M934 674l-813 -410v129l663 328l-663 323v127l813 -405v-92z" />
    <glyph glyph-name="question" unicode="?" horiz-adv-x="770" 
d="M307 334v78q0 94 27.5 182t67.5 161.5t80 150t69.5 179.5t32.5 218q1 46 -2.5 88.5t-15.5 95.5t-33.5 92t-61 67.5t-92.5 32.5h-17q-38 0 -72 -8t-66 -35t-38 -71q-3 -25 9 -48t31 -50.5t26 -55.5q13 -56 -12.5 -92.5t-73.5 -36.5q-61 0 -93 49t-32 113q1 74 32 132.5
t82 94t113.5 54t130.5 18.5q181 0 291.5 -119.5t110.5 -300.5q0 -80 -24 -157t-62.5 -140t-85.5 -124.5t-93 -121t-84.5 -118t-62 -128t-22.5 -139.5v-61h-60zM344 215q47 0 78 -34.5t31 -84.5q0 -52 -31 -86.5t-78 -34.5q-50 0 -81.5 34.5t-31.5 86.5q0 50 32 84.5t81 34.5
z" />
    <glyph glyph-name="at" unicode="@" horiz-adv-x="1822" 
d="M829 256h7q39 0 74.5 30t59.5 78.5t40 98t24 98.5q21 115 21 467q0 105 -23.5 145.5t-91.5 40.5q-45 0 -82 -18.5t-62 -46t-44 -71.5t-29.5 -81t-18.5 -90.5t-10.5 -84.5t-5.5 -77q-8 -77 -3.5 -162.5t16.5 -157t45.5 -119t82.5 -50.5zM1239 1139l-25 -553
q-6 -188 -3 -228q8 -139 73 -162q16 -6 35 -6q48 0 87.5 29.5t65 76.5t45 113.5t30 130t17 136.5t8 122.5t1.5 98.5q0 183 -31.5 328.5t-86.5 244.5t-134 164.5t-170.5 95t-198.5 29.5q-116 0 -215.5 -32.5t-173 -88.5t-132 -134.5t-97 -167.5t-64 -191.5t-36.5 -202.5
t-11 -203q0 -96 9 -194.5t32 -207t57.5 -205.5t89.5 -186t124 -153.5t165 -102.5t209 -38q230 0 429.5 136.5t281.5 350.5l55 -2q-88 -255 -305 -404t-481 -147q-156 2 -290.5 62t-233.5 167t-169 250.5t-104 316.5t-31 361q3 179 38.5 338.5t107 295t173.5 233.5t245 153.5
t315 55.5q174 0 318 -56.5t251 -167.5t167 -286.5t61 -401.5q2 -143 -22 -274.5t-74.5 -242t-137.5 -177t-200 -66.5q-122 0 -181 68.5t-75 196.5q-45 -101 -102.5 -157t-151.5 -56q-149 0 -234.5 152t-64.5 397q12 133 51.5 234t98.5 161.5t130 90t152 28.5q74 0 146 -16
t120 -44.5t47 -62.5z" />
    <glyph glyph-name="A" unicode="A" horiz-adv-x="1157" 
d="M383 729h283q-74 340 -142 604q-7 -27 -141 -604zM680 664h-311q-31 -136 -35 -150q-3 -15 -13.5 -60.5t-18 -81t-18.5 -90t-15.5 -88t-8.5 -75t2 -51.5q6 -23 82 -29v-39h-311v39q71 5 88 29q54 77 133 446l272 1210h105q0 -4 -2 -4l12 4l270 -1210q2 -7 14.5 -59
t20 -84t22.5 -87t26.5 -91t26 -72t26.5 -53q17 -24 86 -29l-3 -39h-436v39q86 6 92 29q18 73 -73 446q-3 16 -14.5 67t-18.5 83z" />
    <glyph glyph-name="B" unicode="B" horiz-adv-x="997" 
d="M444 874l-98 -2l-2 -358v-410q0 -53 51 -53h101q131 0 201.5 111t70.5 311q0 210 -85 307t-239 94zM416 1673h-25q-43 3 -43 -45l-2 -694l74 2q72 1 125 34t82 90.5t42.5 123.5t14.5 143q1 56 -6.5 105.5t-27 94t-50 76.5t-77.5 51t-107 19zM20 1686v38l287 2l68 -2
q264 -3 389 -106t125 -291q0 -159 -83 -268.5t-245 -149.5q192 1 301 -116.5t109 -317.5q0 -223 -111 -349t-282 -126h-543v39q73 4 84 31q37 73 37 444q0 30 0.5 142.5t0 190t-1 198.5t-3 208t-6 176.5t-10 145t-15.5 74.5q-21 41 -101 37z" />
    <glyph glyph-name="C" unicode="C" horiz-adv-x="1026" 
d="M541 -31q-109 -2 -201 55t-161.5 168t-108.5 285.5t-39 394.5q0 176 25.5 320t71 245.5t109.5 170t140 101t164 32.5q177 0 290 -113l35 113h45l-12 -481h-49q-27 189 -114.5 306t-190.5 117q-47 0 -87.5 -22t-69 -57.5t-52 -89t-38.5 -106.5t-26 -119.5t-16.5 -120.5
t-9 -116.5t-4 -99.5t-0.5 -78q0 -56 1.5 -108.5t8.5 -140t19 -160.5t35.5 -154t55 -137t81 -92.5t110.5 -36.5q136 0 226.5 111.5t146.5 378.5h59q-15 -93 -36 -169.5t-57 -151.5t-82.5 -126.5t-115.5 -84t-153 -34.5z" />
    <glyph glyph-name="D" unicode="D" horiz-adv-x="1099" 
d="M438 1673l-88 2l-4 -1161v-463h92q86 0 154 34.5t112.5 97t76 139.5t47.5 173.5t23 185.5t7 189q0 803 -420 803zM20 1686v38h420q106 1 195.5 -27t153 -76t113.5 -117t81 -144t51 -162t27.5 -166t7.5 -162t-7.5 -162.5t-27.5 -167.5t-51 -164.5t-81 -146.5t-113.5 -120
t-153 -79.5t-195.5 -29.5h-415v39q27 2 58 11t38 22q35 72 35 442q0 30 0.5 142t0 189.5t-1 198t-3 207t-6 175.5t-10 144.5t-15.5 74.5q-23 45 -101 41z" />
    <glyph glyph-name="E" unicode="E" horiz-adv-x="974" 
d="M317 868v-2q0 -229 9.5 -441t23.5 -308q6 -51 58 -51q332 0 385 26q9 6 21 31t23 55.5t23.5 71t21 69.5t17.5 61t10 36l39 -15q-1 -42 -15.5 -192.5t-14.5 -210.5l-590 2h-308v39q65 5 78 29q9 15 15.5 48.5t10.5 89t6 105.5t2.5 133t1 135t0 147.5t-0.5 137.5t0.5 137
t0 147t-1 134.5t-2.5 132.5t-6 105t-10.5 88.5t-15.5 48.5q-16 29 -78 29v38h865q0 -65 4 -208t4 -148l-37 -14q-3 8 -21.5 80t-38.5 130.5t-36 69.5q-51 27 -354 27q-50 0 -56 -51q-31 -198 -31 -678q81 2 107 3t76.5 3.5t74.5 7t39 10.5q27 11 44.5 72t27.5 136t12 83
l39 -2q-7 -345 0 -690l-39 -4q-2 8 -12 83.5t-27.5 136.5t-44.5 73q-16 6 -40 10.5t-74 7t-77 3.5t-108 3z" />
    <glyph glyph-name="F" unicode="F" horiz-adv-x="913" 
d="M350 1608q-28 -176 -31 -676q102 3 144.5 4.5t90.5 7.5t69 17q22 11 37 71.5t24 132.5t12 82l39 -2q-7 -345 0 -690l-39 -4q-3 10 -12 83.5t-24 134t-37 71.5q-21 11 -68.5 16.5t-91 7t-144.5 2.5q0 -105 2.5 -247.5t14.5 -329.5t31 -219q16 -31 112 -31v-39h-459v39
q65 5 78 29q14 23 22.5 98.5t11 187t3 197.5t-0.5 196t-1 117q0 42 0.5 137t0 147t-1 134.5t-2.5 132.5t-6 105t-10.5 88.5t-15.5 48.5q-16 29 -78 29v38h867q0 -164 4 -356l-39 -14q-2 7 -14.5 56.5t-24 91t-27.5 82.5t-28 50q-6 3 -16.5 6t-25.5 5t-30 3.5t-37.5 3t-40 2
t-46 1.5t-47 1.5t-51 1.5t-50.5 1q-55 0 -64 -51z" />
    <glyph glyph-name="G" unicode="G" horiz-adv-x="1079" 
d="M31 868q0 218 40.5 387.5t111.5 273t162.5 156t199.5 52.5q184 0 299 -115l37 115h47l-17 -547h-53q-22 227 -104.5 351.5t-184.5 127.5q-106 3 -181.5 -102.5t-112.5 -285.5t-37 -413q0 -826 331 -829q55 -1 100 24.5t70.5 65.5t39.5 84t16 86q0 5 0.5 43t0 69t-1 79.5
t-3 87.5t-6 79.5t-10 70t-15.5 44.5q-9 16 -51.5 26t-75.5 13v49h446v-49q-60 -5 -75 -31q-27 -45 -33 -223l-4 -348q-42 -103 -160.5 -170t-265.5 -66q-242 2 -376 228t-134 667z" />
    <glyph glyph-name="H" unicode="H" horiz-adv-x="1148" 
d="M829 874h-510v-16q0 -52 -1 -190.5t-0.5 -207t3.5 -165t10.5 -150t20.5 -75.5q15 -26 80 -31v-39h-412v39q63 5 78 31q9 15 15.5 48t10.5 88t6 104.5t2.5 132t1 134.5t0 147.5t-0.5 137.5q0 36 0.5 127t0 143.5t-1 135.5t-2.5 135.5t-6 110t-10.5 92.5t-15.5 51
q-13 24 -78 29v38h412v-38q-65 -5 -80 -29q-38 -66 -33 -653v-21.5v-19.5v-21h510v94.5v101.5v96.5t-1 98.5t-2.5 87.5t-4 83.5t-6 65.5t-9 55t-11.5 32.5q-13 24 -78 29v38h409l2 -38q-64 -5 -79 -29q-13 -23 -20.5 -80t-10.5 -157t-3.5 -171.5t0.5 -208t1 -182.5
q0 -52 -1 -190.5t-0.5 -207t3.5 -165t10.5 -150t20.5 -75.5q15 -26 79 -31l-2 -39h-409v39q63 5 78 31q9 15 15.5 48.5t10 87.5t6 105t3 131t0.5 135t-0.5 147t-0.5 138v12z" />
    <glyph glyph-name="I" unicode="I" 
d="M20 1686v38h412v-38q-61 0 -80 -29q-13 -23 -20.5 -80t-10.5 -157t-3.5 -171.5t0.5 -208t1 -182.5q0 -52 -1 -190.5t-0.5 -207t3.5 -165t10.5 -150t20.5 -75.5q17 -26 80 -31v-39h-412v37q62 5 78 33q9 16 15.5 49t10.5 88t6 104.5t2.5 132t1 134t0 147t-0.5 137.5
q0 36 0.5 127t0 143.5t-1 135.5t-2.5 135.5t-6 110t-10.5 92.5t-15.5 51q-16 29 -78 29z" />
    <glyph glyph-name="J" unicode="J" horiz-adv-x="528" 
d="M80 1686v38h416v-38q-63 0 -80 -31q-21 -35 -25 -250.5t0.5 -461.5t-2.5 -476q-9 -290 -101 -447.5t-292 -191.5l-12 47q44 4 78.5 34.5t56.5 76.5t38 109t24.5 126.5t12.5 134t5.5 126t1.5 108.5v28q7 960 -39 1035q-9 17 -34 25t-48 8z" />
    <glyph glyph-name="K" unicode="K" horiz-adv-x="1161" 
d="M20 1686v38h412v-38q-62 0 -78 -29q-13 -23 -21 -81.5t-10.5 -154.5t-2.5 -173.5t1 -206t1 -183.5v-20q57 90 140.5 227t108.5 176q2 3 29.5 46.5t42 67t42.5 70.5t44.5 78t34.5 67.5t25 61t4 37.5q-5 14 -101 19v36h377v-38q-89 -5 -111 -23q-87 -70 -299 -422
l-100 -160l277 -587q171 -358 237 -424q23 -27 86 -31v-39h-452v39q94 7 94 31q0 14 -7 39.5t-20.5 59.5t-28 67t-34.5 75t-33.5 70t-31.5 64.5t-23 46.5q-61 134 -187 391l-117 -189q-1 -102 -0.5 -204t3 -186t10.5 -147t22 -87q15 -26 78 -31v-39h-412v39q63 5 78 31
q9 16 15.5 49t10.5 88t6 104.5t2.5 132t1 134t0 147t-0.5 137.5q0 36 0.5 127t0 143.5t-1 135.5t-2.5 135.5t-6 110t-10.5 92.5t-15.5 51q-16 29 -78 29z" />
    <glyph glyph-name="L" unicode="L" horiz-adv-x="921" 
d="M408 68q293 7 344 32q10 7 23.5 38t27.5 75t25 82.5t21.5 79t12.5 45.5l37 -19q-1 -42 -16 -192.5t-15 -210.5l-546 2h-302v39q62 0 78 31q9 15 15.5 48t10.5 88t6 105t2.5 133t1 135t0 147.5t-0.5 137.5q0 2 1 117t0 196.5t-3.5 194.5t-11 186.5t-21.5 96.5
q-16 31 -78 31v38h414v-38q-62 0 -78 -31q-15 -25 -25 -131t-14 -251.5t-5 -235.5t-1 -165q3 -541 33 -753q3 -22 21 -36.5t43 -14.5z" />
    <glyph glyph-name="M" unicode="M" horiz-adv-x="1474" 
d="M98 1657q-16 29 -78 29v38h332l400 -1296l360 1296h342v-38q-62 0 -78 -31q-13 -22 -21.5 -80.5t-11 -162t-3.5 -175.5t0 -213.5t1 -183.5q0 -49 -1 -188t-0.5 -203t3.5 -158.5t11.5 -145.5t21.5 -73q17 -31 78 -31v-39h-410v39q61 0 78 31q9 15 15.5 47t10.5 85t6 101
t2.5 128t1 130t0 144.5t-0.5 136.5q0 41 0.5 146t0.5 171t-1.5 153.5t-5 153.5t-10.5 111l-410 -1485l-61 -86l-467 1516l2 -666q0 -66 -0.5 -192.5t0 -203.5t3.5 -168t11 -146.5t21 -77.5q16 -31 77 -31v-39h-297v39q62 0 78 31q9 15 15.5 48t10.5 88t6 104.5t2.5 132
t1 134.5t0 147.5t-0.5 137.5q0 36 0.5 127t0 143.5t-1 135.5t-2.5 135.5t-6 110t-10.5 92.5t-15.5 51z" />
    <glyph glyph-name="N" unicode="N" horiz-adv-x="1093" 
d="M756 1686l2 38h315v-38q-71 0 -88 -31q-13 -22 -21 -79.5t-10.5 -155t-3 -173t0.5 -206.5t1 -183v-858h-73v35l-19 -35l-647 1464l2 -606q0 -52 -1 -190.5t-0.5 -207t3.5 -165t10.5 -150t20.5 -75.5q16 -24 100 -31v-39h-328v39q75 6 89 31q9 16 15.5 49.5t10 87.5t6 105
t3 131t0.5 135t-0.5 146.5t-0.5 137.5q0 33 0.5 127t0 143.5t-1 134.5t-3 136t-6 109t-10 93t-14.5 50q-17 31 -89 31v38h304l555 -1275v413q0 32 0.5 177t0 210t-3 169.5t-10.5 160t-20 76.5q-17 31 -90 31z" />
    <glyph glyph-name="O" unicode="O" horiz-adv-x="1077" 
d="M836 870q0 180 -17 325t-52 256t-93 171.5t-135 60.5q-78 1 -136 -60t-92.5 -172.5t-51.5 -255.5t-17 -321q0 -181 17 -330t51.5 -266.5t92.5 -183t136 -65.5q77 -1 135 64.5t93 182.5t52 266t17 328zM539 1741q110 0 201 -51.5t160.5 -154.5t108 -272.5t38.5 -390.5
q0 -220 -39 -393.5t-107.5 -284t-160.5 -168t-201 -57.5q-87 0 -163.5 36t-140 109.5t-109 180t-70.5 253.5t-25 324q0 220 38 388t107 272t160.5 156.5t202.5 52.5z" />
    <glyph glyph-name="P" unicode="P" horiz-adv-x="958" 
d="M418 1671h-23q-43 0 -43 -45l-4 -973l-190 11q3 900 -37 981q-22 46 -98 41v38l329 2l76 -2q251 -2 378.5 -110t127.5 -332q0 -221 -119.5 -359t-322.5 -141l-177 -2l4 66h125q134 0 209.5 121t73.5 313q-2 207 -75.5 300.5t-233.5 90.5zM158 664l190 -11
q-5 -216 0 -376.5t33 -206.5q16 -28 80 -31v-39h-422v39q71 3 86 31q6 11 11 27.5t8.5 41t6 48t4 61t2.5 66t1 78.5v82.5v93v96.5z" />
    <glyph glyph-name="Q" unicode="Q" horiz-adv-x="1079" 
d="M836 870q0 179 -17 324t-52 255t-93 170.5t-135 61.5q-78 0 -136 -60.5t-92.5 -171.5t-51.5 -254.5t-17 -320.5q0 -180 17 -329t51.5 -266t92.5 -182t136 -66q77 0 135 65t93 181.5t52 265t17 327.5zM539 1741q110 0 201 -51.5t160.5 -154.5t108 -272.5t38.5 -390.5
q0 -220 -39 -393.5t-107.5 -284t-160.5 -168t-201 -57.5q-87 0 -163.5 36t-140 109.5t-109 180t-70.5 253.5t-25 324q0 220 38 388t107 272t160.5 156.5t202.5 52.5zM182 -354l64 178q60 119 233 119q63 0 176 -17.5t148 -17.5q65 0 78 35q5 5 2 18.5t-4.5 17.5t-7.5 16.5
t-7 14.5l31 10q22 -36 33.5 -77.5t2 -91t-49.5 -82.5q-29 -23 -78 -23q-40 0 -161 25.5t-189 25.5q-182 0 -271 -151z" />
    <glyph glyph-name="R" unicode="R" horiz-adv-x="1081" 
d="M436 1667h-47q-19 0 -30 -12.5t-11 -32.5l-2 -686h92q55 1 99 15.5t73 37t50 56.5t32.5 66t18.5 74t8.5 73t1.5 69q1 49 -5 93t-25 92t-49.5 81.5t-83 54.5t-122.5 19zM604 901q75 -5 128.5 -52t82 -117.5t46.5 -155t28 -168t20.5 -152.5t30.5 -111.5t51 -42.5
q32 0 66 56l22 -41q-31 -51 -85 -89t-113 -38q-47 0 -88 28q-33 23 -52.5 79t-28.5 127t-17.5 153t-27 162.5t-49 150t-90 121.5t-143.5 72h-43l2 -303v-66v-37v-49.5t0.5 -54t1.5 -61t2 -58.5t4 -59.5t6 -50.5t8 -44.5t11 -29.5q13 -31 78 -31v-39h-410v39q65 0 78 31
q33 66 33 444v66q6 974 -35 1065q-23 45 -101 41v38l328 2l88 -2q488 -5 492 -397q3 -180 -85.5 -286.5t-238.5 -139.5z" />
    <glyph glyph-name="S" unicode="S" horiz-adv-x="911" 
d="M29 645l57 2q4 -273 103.5 -438.5t236.5 -165.5h18q102 8 169 107.5t63 252.5q-3 92 -37 171t-86.5 136.5t-115 111t-125 106t-114.5 108.5t-85 132t-35 165q-4 192 109 304t274 112q51 0 101 -12.5t77.5 -25t69 -35.5t53.5 -29l14 73l47 2q0 -6 6.5 -303t6.5 -303l-52 4
q-28 275 -107 423.5t-200 148.5q-95 0 -161 -73t-66 -187q0 -75 32.5 -140.5t86 -116.5t118 -101.5t130 -107.5t120 -121.5t90.5 -156t39 -199.5q7 -229 -119.5 -371t-322.5 -145h-10q-172 0 -314 113l-16 -84h-47q-1 6 -4 321.5t-4 321.5z" />
    <glyph glyph-name="T" unicode="T" horiz-adv-x="1001" 
d="M330 1673q-146 0 -205 -82q-16 -33 -28.5 -87.5t-21 -107t-12.5 -65.5l-38 15q0 22 5 168t5 210h930q0 -64 5 -210t5 -168l-39 -15q-4 13 -10.5 63t-18.5 104.5t-30 92.5q-76 82 -205 82q-51 0 -60 -49q-10 -51 -15 -153.5t-5 -183t1 -231.5t1 -198q0 -52 -1 -190.5
t-0.5 -207t3.5 -165t10.5 -150t20.5 -75.5q18 -31 80 -31l-2 -39h-410v39q62 0 78 31q9 15 15.5 48t10.5 88t6 104.5t2.5 132t1 134.5t0 147.5t-0.5 137.5q0 22 0.5 151.5t0 186t-2.5 156t-6.5 163t-12.5 105.5q-9 49 -57 49z" />
    <glyph glyph-name="U" unicode="U" horiz-adv-x="1130" 
d="M137 862q0 32 0.5 177t0 210t-3 169.5t-10.5 160.5t-20 78q-19 29 -79 29v38h413v-38q-60 0 -76 -29q-13 -23 -21.5 -80.5t-11 -156.5t-3 -172t0.5 -207.5t1 -182.5q0 -261 1 -287q10 -329 111 -445q65 -73 168 -73q109 0 177.5 63.5t97.5 172.5q19 70 28.5 173t11 178.5
t1.5 221.5v193q4 533 -37 602q-16 29 -78 29v38h297v-38q-62 0 -78 -29q-39 -66 -35 -555q0 -43 1 -125t1 -119q0 -272 -5 -349q-18 -298 -130 -424q-101 -114 -289 -114q-64 0 -118 12.5t-95 36t-74 56.5t-55 74t-39.5 89t-26.5 100.5t-15.5 109t-8 114.5t-3 117.5
t0.5 117.5v64z" />
    <glyph glyph-name="V" unicode="V" horiz-adv-x="1153" 
d="M518 0l-270 1210q-25 119 -64.5 260.5t-72.5 188.5q-20 25 -84 29v36h434v-36q-29 -2 -58.5 -10t-33.5 -21q-19 -77 73 -445q109 -505 189 -821q54 214 192 821q3 14 11 50t15 65.5t16.5 74.5t15 77t11.5 72.5t5.5 61t-2.5 42.5q-4 16 -29.5 23.5t-52.5 7.5v38h311l2 -38
q-71 -4 -88 -29q-57 -81 -135 -447l-272 -1210h-113z" />
    <glyph glyph-name="W" unicode="W" horiz-adv-x="1804" 
d="M1278 0h-111l-266 1163l-268 -1163h-109l-278 1210q-93 380 -140 449q-17 24 -79 29l2 36h420v-36q-29 -2 -58 -10t-33 -21q-13 -66 64 -387q117 -529 213 -893q35 135 201 835q2 8 7 29.5t10 43.5t9 44q-71 279 -112 332q-23 23 -78 27v36h422l-2 -36q-83 -7 -88 -31
q-14 -69 63 -387q4 -18 12 -52t11 -49q15 -64 50.5 -220.5t70.5 -306.5t67 -269q26 99 201 839q92 368 75 445q-5 25 -77 31v36h301v-36q-68 -5 -84 -31q-32 -46 -73 -191.5t-65 -257.5z" />
    <glyph glyph-name="X" unicode="X" horiz-adv-x="1148" 
d="M475 895q-14 35 -68 174.5t-79 201.5t-66 160.5t-69 150.5t-48 73q-31 31 -98 31v38h453v-36q-82 -7 -88 -33q-5 -21 6 -68t47 -144.5t55.5 -148.5t74.5 -188q11 -29 17 -43q50 126 77 194t62.5 162t51 148t14.5 78q2 19 -10.5 28.5t-23.5 11t-29 1.5v38h309v-38
q-67 -4 -96 -33q-62 -62 -294 -650l-18 -45q23 -59 41 -100q19 -48 73 -189t79.5 -206t65.5 -161.5t67 -149.5t47 -76q27 -31 105 -37v-39h-431v39q19 2 28.5 3.5t22.5 12t13 29.5q1 25 -18 88t-67 190t-73.5 193t-93.5 238q-69 -176 -94.5 -241.5t-74.5 -196.5t-67.5 -195
t-17.5 -88q0 -5 1.5 -9t5 -7.5t6.5 -5.5t8.5 -4t8.5 -3t10 -1.5t9.5 -1t9.5 -1t9 -0.5v-39h-310v39q1 0 11.5 0.5t15.5 1.5t15.5 2t17 3.5t15.5 6t15.5 8.5t12.5 11q20 25 48 80.5t65.5 146.5t67 166t79 202t74.5 191q5 14 20 37z" />
    <glyph glyph-name="Y" unicode="Y" horiz-adv-x="1130" 
d="M643 874q97 266 170 499t64 282q-6 27 -84 33v36h315v-38q-63 -5 -84 -23q-33 -28 -95 -189t-141.5 -396t-103.5 -298l-41 -4l-2 -4l43 8q-7 -286 -1 -473t36 -237q16 -31 78 -31v-39h-412l-2 39q63 0 80 31q27 46 31.5 247t-0.5 428q-25 65 -73.5 193.5t-88 231t-83 212
t-78.5 181.5t-56 94q-27 29 -90 29v38h421v-38q-60 0 -65 -29q-8 -44 74 -279t188 -504z" />
    <glyph glyph-name="Z" unicode="Z" horiz-adv-x="972" 
d="M909 2h-893l709 1655q-385 -13 -438 -37q-31 -22 -66 -151t-49 -218l-41 13q1 37 10 218t9 242h821l-711 -1656q465 14 512 36q30 21 70 173t55 247l41 -12q-1 -40 -15 -244.5t-14 -265.5z" />
    <glyph glyph-name="bracketleft" unicode="[" horiz-adv-x="573" 
d="M129 1731h426v-58h-238v-1798h238v-57h-426v1913z" />
    <glyph glyph-name="backslash" unicode="\" horiz-adv-x="1034" 
d="M774 -111l-649 1977h104l652 -1977h-107z" />
    <glyph glyph-name="bracketright" unicode="]" horiz-adv-x="573" 
d="M444 1731v-1913h-426v57h238v1798h-238v58h426z" />
    <glyph glyph-name="asciicircum" unicode="^" horiz-adv-x="1159" 
d="M317 1233l228 303h65l226 -303h-80l-181 242l-176 -242h-82z" />
    <glyph glyph-name="underscore" unicode="_" horiz-adv-x="1048" 
d="M958 -160h-856v103h856v-103z" />
    <glyph glyph-name="grave" unicode="`" horiz-adv-x="483" 
d="M449 1374l-27 -26l-254 172q-43 28 -52.5 79t17.5 82q30 33 62 33q44 0 79 -55z" />
    <glyph glyph-name="a" unicode="a" horiz-adv-x="925" 
d="M610 332q4 52 4.5 111.5t-1 137t-1.5 113.5v6q-29 -45 -79.5 -89t-99 -78t-94 -72.5t-75.5 -88.5t-33 -110q-4 -82 37.5 -125t112.5 -43q92 0 152 70.5t77 167.5zM610 156q-64 -92 -136.5 -137.5t-174.5 -45.5q-119 0 -195.5 72t-72.5 205q1 64 26.5 116t67 88.5t93 67.5
t109 60t109.5 58.5t100 71.5t76 91q0 57 -1.5 97.5t-7 92t-17.5 86.5t-30.5 67.5t-49 48t-70.5 15.5q-56 -1 -95.5 -24.5t-59.5 -48t-32.5 -85t-15 -90t-5.5 -109.5q-1 -10 -1 -15q-26 -56 -112 -60q-32 0 -55 21.5t-23 48.5q0 190 121 308t291 118q144 0 242.5 -91.5
t105.5 -254.5q4 -94 4 -142q0 -15 -1.5 -106.5t-1 -168t2.5 -169.5t9.5 -158t20.5 -86q11 -16 33 -16q12 0 33 4t31 4q14 0 18 -4l-12 -43q-38 -4 -156 -36t-170 -32z" />
    <glyph glyph-name="b" unicode="b" horiz-adv-x="974" 
d="M731 633q3 288 -45.5 435t-161.5 144q-36 -1 -65 -18.5t-50 -45.5t-36.5 -72.5t-25.5 -90.5t-17 -109.5t-10.5 -119t-6.5 -129.5v-113q0 -13 -1 -65t-1 -87q8 -164 46.5 -235.5t121.5 -71.5q60 0 107.5 46.5t73.5 113.5t43 151.5t22.5 149t5.5 117.5zM315 1137
q94 151 236 151q184 0 288.5 -171t104.5 -478q0 -67 -10.5 -138t-31.5 -145t-56.5 -139.5t-82 -117t-112 -81.5t-141.5 -30q-104 0 -172 51q-71 -2 -179 -25t-130 -26l-4 53q64 4 75 31q6 11 10.5 29.5t7.5 44t5.5 50.5t4 59t2 58.5t1 60.5t0.5 53.5v49.5v37v139v186.5
t-0.5 189t-3 202t-6 167t-9.5 141t-14 71.5q-9 16 -32 16q-9 0 -27 -3.5t-28.5 -4t-26.5 3.5l14 45q33 3 149.5 30t171.5 27z" />
    <glyph glyph-name="c" unicode="c" horiz-adv-x="860" 
d="M809 1042q23 -69 -20.5 -123.5t-98.5 -54.5q-26 0 -41 15q-14 26 -27 75t-24.5 93t-28 87t-45.5 69t-69 26q-55 0 -96 -50t-62 -118t-34 -158t-16 -149.5t-3 -112.5q0 -97 17.5 -195.5t50.5 -184.5t88 -140.5t122 -54.5q72 0 137 53.5t103 127.5t45 144l51 -8
q-10 -107 -61 -202.5t-140.5 -158.5t-197.5 -63q-102 0 -185.5 58t-136 155t-80.5 218t-28 253q0 83 13 168t45.5 172t80 153.5t123.5 109t170 42.5q125 0 215 -64t133 -182z" />
    <glyph glyph-name="d" unicode="d" horiz-adv-x="1015" 
d="M684 326l2 583v2v-2q-3 43 -7 72.5t-12 70.5t-22.5 68t-35.5 53t-54.5 39t-75.5 13q-60 0 -106 -48.5t-73.5 -131t-42.5 -179.5t-17 -207q-2 -120 8.5 -221t34 -186.5t67.5 -135.5t105 -53h10q33 0 65 12t64.5 39.5t56.5 82t33 129.5zM465 1288q135 0 217 -71
q-7 337 -29 393q-9 16 -32 16q-9 0 -27 -3.5t-28.5 -4t-26.5 3.5l12 45q33 3 150.5 30t172.5 27l-4 -913q4 -630 35 -700q7 -17 31 -17q10 0 28.5 3.5t29 4t26.5 -3.5l-14 -45q-33 -3 -151 -30t-173 -27v139q-98 -151 -246 -151h-16q-122 6 -214 101t-137 247t-38 330
q7 175 63 317.5t153.5 225.5t217.5 83z" />
    <glyph glyph-name="e" unicode="e" horiz-adv-x="868" 
d="M653 952q-4 53 -15 97.5t-32 86.5t-57.5 66.5t-85.5 24.5q-175 0 -215 -353h338q32 0 50.5 22.5t16.5 55.5zM809 811h-567q-6 -88 -6 -160q0 -160 28.5 -287t90.5 -207.5t151 -80.5q75 0 140.5 50t103.5 121t47 144l47 -8q-9 -78 -40.5 -153t-81.5 -136.5t-122 -99
t-154 -37.5q-128 0 -223 91.5t-143.5 247.5t-48.5 355q0 286 114.5 462.5t303.5 176.5q165 0 273.5 -107t125.5 -313q2 -21 -9.5 -40t-29.5 -19z" />
    <glyph glyph-name="f" unicode="f" horiz-adv-x="661" 
d="M16 1178l2 63h125q1 80 8 141.5t28.5 129t57 111.5t97.5 72.5t147 28.5q114 0 184.5 -54.5t92.5 -141.5q18 -55 -19.5 -99.5t-89.5 -44.5q-21 0 -39 9q-19 29 -30.5 79.5t-17.5 88t-30 67t-69 29.5q-77 1 -106.5 -97.5t-26.5 -318.5h188v-63h-186q-2 -217 -2 -664
q-8 -368 28 -446q11 -26 76 -31v-37h-395v37q65 5 76 31q7 15 12.5 41t8.5 64t5.5 69.5t3 80.5t0.5 72.5v69.5v49v268q0 65 -1 194.5t-1 192.5v9h-127z" />
    <glyph glyph-name="g" unicode="g" horiz-adv-x="980" 
d="M713 838q0 193 -61.5 299t-170.5 106t-170 -106t-61 -297q0 -184 61.5 -286.5t169.5 -100.5q109 3 170.5 103.5t61.5 281.5zM481 1296q170 0 287 -102q28 28 37 49q10 12 3.5 40t-16 48t-26 59t-25.5 72q3 38 35.5 63t71.5 25q48 0 72 -37q61 -109 -31 -294
q-29 -56 -64 -84q97 -128 97 -297q0 -194 -123 -317.5t-318 -123.5q-19 0 -55 4q-107 -11 -164 -38t-51 -66q4 -32 36 -44.5t91 -12.5q33 0 121.5 6t138.5 6q57 0 103 -6.5t91.5 -23t78.5 -49.5t51 -81q29 -84 27 -163t-41 -149.5t-99.5 -123t-149.5 -83t-190 -30.5h-18
q-191 6 -303 110.5t-99 274.5q4 34 28 51t56 17q46 0 81 -28t28 -70q-36 -288 229 -291h8q80 0 147.5 26t108 69t56.5 99.5t-9 118.5q-15 52 -62.5 80t-110.5 35t-136 7t-142 4t-125.5 19t-90.5 58.5t-33 116.5q1 68 57 125.5t135 76.5q-108 53 -170 157t-63 239
q0 200 124 329t316 129z" />
    <glyph glyph-name="h" unicode="h" horiz-adv-x="1019" 
d="M-16 1622l14 43q29 3 148.5 31t175.5 28l-5 -737q24 57 53.5 105t68 90t87.5 66.5t103 25.5q108 0 182.5 -82.5t81.5 -253.5q1 -42 1.5 -270.5t7.5 -393.5t26 -206q11 -26 76 -31v-37h-396v37q65 5 76 31q31 68 31 446q0 216 -4 360q-4 77 -20.5 131.5t-42 81.5t-51 38.5
t-52.5 9.5q-80 -11 -147 -113.5t-83 -263.5v-244q-8 -366 29 -446q11 -26 76 -31v-37h-395v37q64 5 75 31q6 12 10.5 30.5t7.5 44.5t5.5 51t4 59.5t2 59t1 61t0.5 54v49.5v37v139v186.5t-0.5 189t-3 202t-6 167t-9.5 141t-14 71.5q-9 16 -32 16q-9 0 -27 -3.5t-28.5 -4
t-26.5 3.5z" />
    <glyph glyph-name="i" unicode="i" 
d="M-14 1151l14 43q29 3 148.5 31t175.5 28l-5 -739v-37v-49.5v-54t1 -61t2.5 -59.5t3.5 -59t5 -51t7.5 -44.5t9.5 -30.5q11 -26 78 -31l-2 -37h-395v37q64 5 75 31q6 12 10.5 30.5t7.5 44.5t5.5 51t4 59.5t2 59t1 61t0.5 54v49.5v37q0 370 -8 471q-8 108 -27 154
q-9 16 -32 16q-5 0 -41 -5.5t-41 1.5zM72 1530q0 52 34 89.5t87 37.5q52 0 88 -37.5t36 -89.5q0 -54 -36 -92.5t-88 -38.5q-53 0 -87 38t-34 93z" />
    <glyph glyph-name="j" unicode="j" horiz-adv-x="516" 
d="M262 164v444q0 224 -6.5 350t-30.5 183q-8 16 -30 16q-8 0 -39 -5.5t-45 -0.5l14 43q29 3 148.5 31t175.5 28l-3 -600v-346q0 -79 -1.5 -140t-6.5 -130t-13.5 -120t-23 -105t-35 -92t-49.5 -73t-65.5 -56t-84.5 -33.5t-106 -12.5q-56 0 -111 29.5t-65 73.5
q-12 44 21 96.5t80 38.5q25 -6 43 -36t28 -62t30 -58t50 -26q23 4 41.5 22t31.5 50.5t22.5 64t15 81.5t8.5 83t4.5 89t1.5 78.5v70.5v24zM211 1530q0 53 34 90t87 37q52 0 88.5 -37t36.5 -90t-36.5 -91t-88.5 -38q-53 0 -87 37.5t-34 91.5zM115 1073h10h-10z" />
    <glyph glyph-name="k" unicode="k" horiz-adv-x="997" 
d="M319 502q-7 -355 29 -434q11 -26 78 -31l-2 -37h-397v37q64 5 75 31q6 12 10.5 30.5t7.5 44.5t5.5 51t4 59.5t2 59t1 61t0.5 54v49.5v37q0 731 -14 947q-8 121 -21 151q-9 16 -32 16q-9 0 -27 -3.5t-28.5 -4t-26.5 3.5l14 43q33 3 152 31t174 28l-5 -1093
q67 97 195 271.5t162 225.5q10 17 -4.5 31.5t-42 22t-58.5 6.5l2 49h388l-3 -53q-46 -2 -105.5 -40.5t-123.5 -105t-122.5 -138t-119.5 -157.5q27 9 41 9q17 0 35 -6q41 -13 80 -91t70 -176t62.5 -192.5t70.5 -151t82 -41.5q22 5 38.5 28.5t37.5 68.5l34 -29
q-24 -72 -68.5 -114t-89 -53t-94.5 -7q-51 5 -90.5 42t-62.5 91t-46.5 125.5t-43 139.5t-52.5 140t-73 121q-31 -43 -99 -147z" />
    <glyph glyph-name="l" unicode="l" horiz-adv-x="448" 
d="M-16 1624l14 43q34 3 151.5 31t172.5 28l-5 -1212v-37v-49.5v-54t1 -61t2.5 -59.5t3.5 -59t5 -51t7.5 -44.5t9.5 -30.5q11 -26 78 -31l-2 -37h-395v37q64 5 75 31q6 12 10.5 30.5t7.5 44.5t5.5 51t4 59.5t2 59t1 61t0.5 54v49.5v37q0 730 -14 947q-9 122 -21 153
q-11 16 -32 16q-7 0 -37 -5.5t-45 -0.5z" />
    <glyph glyph-name="m" unicode="m" horiz-adv-x="1599" 
d="M895 756q0 -23 0.5 -111t1 -126t2 -115t3.5 -118t5.5 -92.5t8.5 -81t12 -44.5q11 -26 78 -31l-2 -37h-396v37q65 5 76 31q6 12 10.5 30.5t7.5 44.5t5.5 51t4 59.5t2 59t1 61t0.5 54v49.5v37q0 288 -4 360q-3 73 -19.5 127t-41 82.5t-50.5 41t-53 10.5
q-79 -11 -146.5 -111t-83.5 -258l-2 -252v-37v-49.5t0.5 -54t1 -61t2 -59t4 -59.5t5.5 -51t7.5 -44.5t10.5 -30.5q11 -26 76 -31v-37h-395l-2 37q63 4 77 31q9 20 15.5 62.5t9 100.5t4 104t2 105.5t0.5 73.5q0 374 -7 475q-8 105 -26 150q-11 16 -32 16q-6 0 -37 -5.5
t-47 -0.5l14 45q34 3 151.5 31t172.5 28l-3 -262q25 56 54.5 103t67.5 89t86.5 66t101.5 25q104 0 176.5 -73.5t85.5 -225.5q127 297 317 299q110 0 184.5 -82.5t80.5 -253.5q1 -44 1 -271t7 -392.5t26 -206.5q11 -26 76 -31v-37h-395v37q65 5 76 31q7 15 12.5 41t8.5 64
t5.5 69.5t3 80.5t0.5 72.5v69.5v49q0 216 -4 360q-3 73 -19.5 127t-41.5 82.5t-51.5 41t-53.5 10.5q-80 -11 -147.5 -114.5t-81.5 -264.5z" />
    <glyph glyph-name="n" unicode="n" horiz-adv-x="1021" 
d="M-16 1149l14 45q34 3 151.5 31t172.5 28l-3 -262q25 56 54.5 103t67.5 89t86.5 66t101.5 25q110 0 184 -82t80 -254q2 -53 2.5 -273t7 -388t25.5 -209q11 -26 78 -31l-2 -37h-396v37q65 5 76 31q6 12 10.5 30.5t7.5 44.5t5.5 51t4 59.5t2 59t1 61t0.5 54v49.5v37
q0 288 -4 360q-2 62 -14 110t-28.5 76.5t-38 46t-42 23.5t-41.5 5q-79 -11 -146.5 -111t-83.5 -258l-2 -252v-37v-49.5t0.5 -54t1 -61t2 -59t4 -59.5t5.5 -51t7.5 -44.5t10.5 -30.5q11 -26 76 -31v-37h-395l-2 37q63 4 77 31q9 20 15.5 62.5t9 100.5t4 104t2 105.5t0.5 73.5
q0 374 -7 475q-8 105 -26 150q-11 16 -32 16q-6 0 -37 -5.5t-47 -0.5z" />
    <glyph glyph-name="o" unicode="o" horiz-adv-x="944" 
d="M700 639q0 101 -4.5 179t-19 160t-39 135.5t-66.5 87.5t-100 34t-100 -34.5t-66 -88.5t-38 -136t-18.5 -159.5t-4.5 -177.5q0 -83 3 -151t11.5 -143t24.5 -130.5t40.5 -101.5t62 -70.5t85.5 -24.5q58 0 100.5 37t66.5 94.5t38.5 143t19 166t4.5 180.5zM471 1292
q197 0 320.5 -175.5t123.5 -477.5q0 -300 -124.5 -488t-319.5 -188q-194 0 -318 187.5t-124 488.5q0 299 122.5 476t319.5 177z" />
    <glyph glyph-name="p" unicode="p" horiz-adv-x="1032" 
d="M348 930l-4 -592q14 -166 60.5 -230t125.5 -67q57 -8 102.5 26t73 93.5t45.5 142t25 163.5t8 167q2 98 -5 187.5t-26.5 181.5t-61.5 147t-103 55q-54 0 -97.5 -24t-71.5 -66t-45 -87t-26 -97zM131 -383q6 12 10.5 30.5t8 36t5.5 45t3 44.5t1.5 49.5t0.5 45.5v46v39v440
q0 673 -33 754q-11 16 -33 16q-7 0 -37 -5.5t-45 -0.5l15 45q34 3 150 31.5t171 28.5v-127q113 143 256 143h6q128 -2 219 -87.5t133 -228.5t37 -325q-6 -307 -121 -483.5t-315 -176.5q-131 0 -219 68v-94q0 -83 0.5 -122t8 -110t22.5 -102q13 -26 76 -31v-37h-396v37
q63 5 76 31z" />
    <glyph glyph-name="q" unicode="q" horiz-adv-x="1005" 
d="M244 645q-1 -129 11.5 -233t38 -182.5t68.5 -120.5t101 -41q36 1 64 19t47.5 44.5t34.5 73t23.5 89t14.5 110t9 118t6 129.5v113q2 33 2 151q-8 161 -45.5 231.5t-118.5 70.5q-52 0 -94.5 -31t-69 -84t-45.5 -113t-28.5 -129t-13.5 -119.5t-5 -95.5zM444 -10
q-186 -3 -299.5 177.5t-113.5 471.5q0 83 14.5 168.5t48 173.5t83 155.5t125.5 110.5t169 43q106 0 168 -51q69 2 176.5 25t130.5 26l4 -51q-63 -8 -76 -31q-30 -65 -30 -442v-140v-186.5t0.5 -189.5t3 -202t6 -166.5t9.5 -141.5t14 -72q9 -16 32 -16q9 0 27 3.5t28.5 4
t26.5 -3.5l-12 -43q-29 -3 -147.5 -31t-174.5 -28l2 577q-85 -138 -215 -141z" />
    <glyph glyph-name="r" unicode="r" horiz-adv-x="825" 
d="M-16 1149l14 45q34 3 151.5 31t172.5 28l-3 -331q14 59 35.5 113.5t56 110.5t85.5 90t112 34q63 0 114.5 -36t76.5 -99q24 -66 -13.5 -121.5t-91.5 -55.5q-14 0 -32 7q-32 34 -55.5 82t-39 74.5t-39.5 27.5q-35 0 -71.5 -41t-66.5 -112.5t-50 -178t-23 -227.5l-2 -76v-37
v-49.5t0.5 -54t1 -61t2 -59t4 -59.5t5.5 -51t7.5 -44.5t10.5 -30.5q11 -26 76 -31v-37h-391l-2 37q59 4 73 31q9 20 15.5 62.5t9 100.5t4 104t2 105.5t0.5 73.5q0 374 -7 475q-8 105 -26 150q-11 16 -32 16q-6 0 -37 -5.5t-47 -0.5z" />
    <glyph glyph-name="s" unicode="s" horiz-adv-x="808" 
d="M610 963q-2 7 -5 20q-13 53 -20.5 79.5t-24 67.5t-34 61.5t-46.5 38t-66 19.5q-81 5 -138.5 -57.5t-56.5 -161.5q1 -53 20.5 -96t52 -73.5t75 -57.5t89 -51.5t93 -51t88.5 -61.5t74.5 -77t51.5 -102.5t19 -133.5q0 -165 -109 -271t-274 -106q-65 0 -134 21t-102.5 38.5
t-86.5 48.5q-32 37 -43 127t16 166q19 29 51 29q45 0 62 -43q3 -11 10 -41.5t10.5 -45t12 -43.5t15 -44t18 -39.5t23 -38.5t28.5 -31t35.5 -26t42.5 -15.5t51 -7.5q99 -4 153.5 59.5t54.5 167.5q0 64 -24 115.5t-63.5 85t-90.5 66t-103.5 58.5t-103.5 63t-90.5 78
t-63.5 105.5t-24 143.5q0 90 30.5 160.5t83.5 113t120.5 63t144.5 17.5q44 -1 88 -11.5t68 -20t65.5 -29.5t53.5 -25q35 -69 34 -150.5t-22 -115.5q-19 -26 -53 -26q-36 0 -56 41z" />
    <glyph glyph-name="t" unicode="t" horiz-adv-x="602" 
d="M557 1180h-190q-8 -639 -5 -885q1 -108 28.5 -164.5t74.5 -56.5q55 0 121 69l10 -71q-43 -47 -100.5 -74t-114.5 -27q-82 0 -138 54t-59 157q-3 67 -3 305t-4.5 430t-18.5 238q-7 9 -18 14.5t-24.5 7t-29.5 2.5t-32.5 0.5t-33.5 0.5v59q41 -1 89.5 20t94 59t81 100.5
t45.5 135.5l41 2l-4 -311v-4l192 -2z" />
    <glyph glyph-name="u" unicode="u" horiz-adv-x="1021" 
d="M700 -20v264q-39 -111 -119 -177t-184 -67q-113 0 -184 76t-84 231q-5 58 -5 188t0.5 245.5t-8.5 231.5t-30 167q-9 16 -33 16q-5 0 -41 -5.5t-41 1.5l15 43q29 3 148 31t175 28q-2 -164 -2 -489q0 -259 4 -385q7 -266 150 -266q21 0 44.5 6.5t52.5 26.5t54.5 50t49.5 83
t38 120q0 3 1.5 65t2 106t1 120.5t-1.5 136t-6 124t-12 113t-19 75.5q-9 16 -33 16q-5 0 -41 -5.5t-41 1.5l14 43q29 3 149.5 31t176.5 28q0 -16 -2 -153.5t-2.5 -277t1 -298.5t10 -275.5t22.5 -150.5q9 -16 32 -16q9 0 27 3.5t28.5 4t26.5 -3.5l-14 -43q-31 -4 -148 -33.5
t-172 -29.5z" />
    <glyph glyph-name="v" unicode="v" horiz-adv-x="1087" 
d="M508 0h-2v6q-19 63 -76 253.5t-79.5 266.5t-62 204t-65 204t-45.5 129q-30 80 -64.5 107.5t-99.5 29.5l2 39h455v-39q-48 -3 -74 -28t-12 -68l219 -727q21 65 56.5 175t58.5 181.5t47.5 154t36.5 140t12 92.5q0 80 -94 80v39h348v-39q-31 -3 -47.5 -6.5t-39.5 -21.5
t-38 -52q-61 -134 -179.5 -498t-193.5 -622h-61v-2z" />
    <glyph glyph-name="w" unicode="w" horiz-adv-x="1656" 
d="M952 1106l222 -727q66 200 100 307t70.5 244.5t37.5 193.5q1 38 -27 58t-67 20v37h352v-37q-45 -6 -77 -22t-50 -56q-60 -136 -179.5 -504t-192.5 -620l-60 -2h-4l2 4q-118 391 -248 803q-127 -370 -253 -805l-60 -2h-4q0 4 2 4q-32 106 -96 319t-96.5 320.5t-72.5 233
t-65 190.5q-29 78 -67.5 105.5t-104.5 29.5v39h453v-39q-47 -5 -69.5 -22.5t-10.5 -59.5l223 -737q132 386 178 561q-18 52 -38 123q-15 48 -30 75.5t-37 40t-40 15.5t-55 4v39l276 -2l82 2h127v-39q-3 0 -13 -1t-15.5 -1.5t-17 -2.5t-17.5 -4t-17 -6t-16 -8.5t-13 -11.5
t-9 -15t-4.5 -19.5t1.5 -24.5z" />
    <glyph glyph-name="x" unicode="x" horiz-adv-x="1048" 
d="M629 729q171 -366 270 -555q41 -83 73 -108t95 -27v-39h-506v39q59 2 87 20t26.5 62.5t-37.5 120.5q-71 147 -141 297q-10 -17 -43 -73.5t-48.5 -84t-40 -72t-39.5 -76.5t-24 -57q-13 -36 -14 -62.5t6.5 -40.5t23.5 -22t30.5 -10t33.5 -2v-39h-375v39q6 1 22 2t21.5 1.5
t18 3t19 5.5t17.5 8.5t19 13t18 19t21 25.5q69 104 299 499q-136 286 -223 451q-42 78 -84 104.5t-109 28.5v39h483v-39q-46 -5 -67 -37t0 -76l66 -141t67 -141q132 245 151 303q34 92 -90 92v39h355v-39q-53 -5 -85 -21.5t-71 -70.5q-59 -88 -225 -379z" />
    <glyph glyph-name="y" unicode="y" horiz-adv-x="1110" 
d="M516 -12q-27 91 -77.5 261.5t-79 265.5t-65.5 216t-64 202t-48 134q-29 78 -65.5 104t-102.5 29v39h461v-39q-48 -6 -72 -31t-12 -65l227 -750q66 199 102 310.5t74 251t42 198.5q3 40 -27.5 62t-75.5 24v41l361 -2l-2 -39q-17 -1 -29 -3t-31.5 -9t-35.5 -23t-27 -41
q-54 -115 -150.5 -406t-177.5 -562q-150 -600 -360 -600q-46 0 -88 45q-26 29 -33.5 73t8.5 64q9 25 36 32t54 3q26 -1 46.5 -3t40 4.5t34.5 11t29.5 17.5t25.5 23t21.5 27t18 30.5t16 33.5t14 35t12.5 36z" />
    <glyph glyph-name="z" unicode="z" horiz-adv-x="876" 
d="M788 -2h-780v51l584 1129q-353 -16 -391 -33q-16 -12 -35 -79.5t-36 -148t-19 -88.5l-35 15q1 29 6.5 179t5.5 214l731 -2v-49l-571 -1131q383 17 420 33q16 11 37 84t40 161.5t21 94.5l35 -16q-1 -30 -7 -190t-6 -224z" />
    <glyph glyph-name="braceleft" unicode="{" horiz-adv-x="727" 
d="M35 823q41 9 80.5 27t76 45t58.5 68t22 88q0 59 -24.5 173t-24.5 173q0 170 122 282t323 131v-38q-103 -10 -175.5 -78.5t-72.5 -175.5q0 -60 20.5 -176t20.5 -175q0 -66 -27.5 -126t-73 -104.5t-98.5 -77t-110 -52.5q60 -22 111.5 -53t97.5 -74.5t73 -103t27 -127.5
q0 -59 -20.5 -175t-20.5 -176q0 -107 72.5 -177t175.5 -81v-37q-201 20 -323 132t-122 282q0 60 24.5 175t24.5 173q0 47 -22 87.5t-58.5 67.5t-75.5 44.5t-81 26.5v32z" />
    <glyph glyph-name="bar" unicode="|" horiz-adv-x="825" 
d="M358 2021h109v-2291h-109v2291z" />
    <glyph glyph-name="braceright" unicode="}" horiz-adv-x="727" 
d="M694 823v-32q-42 -9 -81 -26.5t-75.5 -44.5t-58.5 -67.5t-22 -87.5q0 -58 24.5 -173t24.5 -175q0 -170 -122 -282t-323 -132v37q103 11 175.5 81t72.5 177q0 60 -20.5 176t-20.5 175q0 68 27 127.5t73.5 103t98 74.5t111.5 53q-57 20 -110 52.5t-99 77t-73.5 104.5
t-27.5 126q0 59 20.5 175t20.5 176q0 107 -72.5 175.5t-175.5 78.5v38q201 -19 323 -131t122 -282q0 -59 -24.5 -173t-24.5 -173q0 -47 22 -88t58.5 -68t76 -45t80.5 -27z" />
    <glyph glyph-name="asciitilde" unicode="~" horiz-adv-x="1187" 
d="M930 862l37 -16q-21 -95 -90.5 -180.5t-149.5 -85.5q-44 0 -91 20t-80.5 43.5t-74 43.5t-73.5 20q-47 0 -92.5 -31.5t-63.5 -79.5l-35 14q12 58 46.5 117t89.5 102t112 43q41 0 84.5 -19.5t75 -43.5t72.5 -44.5t77 -21.5q40 0 87 30t69 89z" />
    <glyph glyph-name="exclamdown" unicode="&#xa1;" horiz-adv-x="538" 
d="M272 -23q-56 0 -85 43t-29 113q0 183 44.5 571.5t47.5 618.5h49q4 -228 47 -617.5t43 -572.5q0 -68 -31 -112t-86 -44zM283 1507q-47 0 -79 34.5t-32 84.5q0 52 31.5 85.5t79.5 33.5q49 0 79.5 -33.5t30.5 -85.5q0 -50 -31.5 -84.5t-78.5 -34.5z" />
    <glyph glyph-name="cent" unicode="&#xa2;" horiz-adv-x="980" 
d="M506 135v1129q-59 -10 -101.5 -70t-63.5 -149t-30.5 -172t-9.5 -164q0 -82 9 -166.5t30 -176.5t64 -155.5t102 -75.5zM575 -61h-69v137q-172 11 -284.5 186t-112.5 451q0 135 33.5 248.5t89.5 187.5t126.5 117t147.5 49v151h69v-153q202 -19 299 -234q25 -52 -13 -104.5
t-83 -52.5q-24 0 -39 18q-6 17 -16 58.5t-20.5 76.5t-26.5 74t-42 67.5t-59 40.5v-1120q34 12 61.5 41t46 69t30.5 75.5t23.5 78t17.5 58.5q18 24 47 24q46 0 78.5 -52t7.5 -107q-42 -98 -126 -165.5t-186 -80.5v-139z" />
    <glyph glyph-name="sterling" unicode="&#xa3;" horiz-adv-x="974" 
d="M35 680v65h178q-2 27 -19.5 186.5t-17.5 231.5q0 86 16 166.5t51 154.5t86.5 129t127.5 87.5t168 32.5q60 0 118 -15t108 -44t80 -79t27 -112q1 -54 -34 -88t-80 -37h-15q-46 0 -74 29.5t-36 80.5q-7 42 7 90.5t40 77.5q-44 22 -89 30.5t-73 2.5q-52 -6 -93 -50.5
t-63.5 -111t-34 -137t-12.5 -141.5q-1 -48 6 -217.5t1 -266.5h460v-65h-465q-15 -161 -70 -284t-171 -203q35 4 108 4q59 0 180 -6.5t177 -6.5q63 0 111 5.5t95.5 20.5t78.5 40.5t51 68.5t22 101l43 6l-22 -426h-992l-2 182q70 27 115.5 78t64.5 116t26 143.5t-1 160.5h-182
z" />
    <glyph glyph-name="section" unicode="&#xa7;" horiz-adv-x="933" 
d="M291 1112q-29 -53 -29 -117q1 -58 25.5 -103t70 -78.5t91.5 -58.5t109 -58t104 -62q22 57 22 102q0 52 -18 95.5t-45.5 73t-70.5 58.5t-82 48.5t-90.5 47.5t-86.5 52zM739 563q86 -96 86 -241q0 -161 -110.5 -261t-272.5 -100q-65 0 -135 21t-100.5 36.5t-87.5 47.5
q-32 35 -43 120t16 158q19 29 51 29q44 0 62 -41q3 -10 10 -39.5t10.5 -43t12 -41t15 -42t18 -38t23 -36.5t28.5 -29t35.5 -24.5t42.5 -15t51 -7.5q100 -3 154 56.5t54 158.5q0 60 -24 108.5t-63.5 80t-90.5 62.5t-103.5 55.5t-103.5 60t-90.5 75t-63.5 101.5t-24 139
q0 175 119 263q-95 98 -92 243q0 114 53.5 193.5t138.5 114.5t191 32q55 -2 101.5 -15t100 -37t68.5 -30q23 -38 29 -94t0 -100t-17 -64q-22 -22 -51 -22q-37 0 -59 39q-12 50 -21 79.5t-25.5 69t-35.5 61.5t-49 39t-68 19q-81 5 -136 -52.5t-54 -152.5q0 -63 31.5 -111.5
t81 -81.5t109.5 -63t119.5 -65.5t109 -79.5t81 -113.5t31.5 -159.5q0 -164 -113 -262z" />
    <glyph glyph-name="dieresis" unicode="&#xa8;" horiz-adv-x="788" 
d="M469 1556q0 50 26 79.5t70 29.5q42 0 69.5 -34.5t27.5 -82.5q0 -46 -28 -79t-69 -33q-43 0 -69.5 36t-26.5 84zM131 1556q0 50 26.5 79.5t71.5 29.5q41 0 69 -34.5t28 -82.5q0 -46 -28.5 -79t-68.5 -33h-2q-43 0 -69.5 36t-26.5 84z" />
    <glyph glyph-name="copyright" unicode="&#xa9;" horiz-adv-x="1685" 
d="M182 668q0 -171 46 -316.5t131 -249.5t210 -162.5t277 -58.5q200 0 351 101t230.5 279t79.5 407q0 228 -79.5 406t-230.5 279t-351 101q-202 0 -354 -101.5t-231 -279t-79 -405.5zM109 668q0 254 88 450.5t256.5 308t392.5 111.5q223 0 390.5 -111.5t256 -308.5
t88.5 -450q0 -254 -88.5 -451t-256 -308.5t-390.5 -111.5q-224 0 -392.5 111.5t-256.5 308t-88 451.5zM637 676q0 -63 5.5 -124t20.5 -129t38.5 -118.5t64 -84t92.5 -34.5q37 0 68 18t51 44t37.5 64.5t26.5 69.5t20 69t16 53q17 20 45 20q45 0 76 -49t8 -104
q-45 -105 -140.5 -172.5t-207.5 -67.5q-87 0 -160.5 34t-129 100t-86.5 172.5t-31 242.5q0 108 23 196t61.5 146.5t91.5 97.5t110.5 56.5t120.5 17.5q235 0 336 -227q16 -43 0 -80.5t-51.5 -60.5t-63.5 -13q-11 11 -20 35q-5 16 -15 54t-18 65.5t-24 63t-33.5 58.5t-46.5 40
t-64 18q-64 1 -110 -44.5t-68.5 -120.5t-32.5 -150.5t-10 -155.5z" />
    <glyph glyph-name="registered" unicode="&#xae;" horiz-adv-x="1239" 
d="M160 1083q0 -240 123.5 -392t332.5 -152t334 152t125 392t-125 393.5t-334 153.5q-139 0 -243 -71t-158.5 -194.5t-54.5 -281.5zM535 1419v-286q34 1 54.5 2.5t44.5 7t37.5 16t25.5 27.5t17 44t5 64q0 34 -10.5 58.5t-26 37.5t-42 20.5t-48.5 9t-55 1.5zM78 1083
q0 185 64.5 328.5t187.5 225t286 81.5q245 0 393 -177t148 -458t-148 -456.5t-393 -175.5q-246 0 -392 175t-146 457zM588 715h-205v45q35 0 43 8q14 47 14 227q0 321 -18 416q-9 12 -23 12q-5 0 -14.5 -1t-13.5 -1l-2 49q14 0 52.5 1.5t68.5 2t74.5 -2t78 -8t70.5 -19
t61 -33t39.5 -51t15.5 -72.5q0 -128 -120 -180q39 -20 63 -68.5t30.5 -96t14.5 -93.5t19 -59q9 -9 10 -9q11 0 31 33l32 -33q-43 -67 -102 -67q-41 0 -62 29t-28 74t-13.5 93t-28.5 92.5t-63 65.5q-27 16 -47 16h-33v-79q0 -213 13 -238q10 -8 45 -8z" />
    <glyph glyph-name="macron" unicode="&#xaf;" horiz-adv-x="788" 
d="M180 1341h449q18 0 22 -1.5t4 -10.5q0 -17 -12 -49q-9 -24 -15 -28.5t-28 -4.5h-450q-17 0 -17 8q0 7 14 50q1 4 2.5 10.5t2 9t1.5 6.5t2.5 4.5t3.5 2.5t5 2t6.5 0.5t9.5 0.5z" />
    <glyph glyph-name="degree" unicode="&#xb0;" horiz-adv-x="868" 
d="M436 1528q-53 0 -89 -39.5t-36 -99.5q0 -61 36 -100.5t89 -39.5t88 39.5t35 100.5q0 60 -35 99.5t-88 39.5zM436 1632q98 0 162 -69.5t64 -176.5t-63.5 -175t-162.5 -68q-100 0 -163.5 69.5t-63.5 178.5q0 106 63.5 173.5t163.5 67.5z" />
    <glyph glyph-name="acute" unicode="&#xb4;" horiz-adv-x="483" 
d="M47 1384l176 285q33 53 78 53q35 0 64 -32q27 -30 17.5 -81t-52.5 -81l-254 -172z" />
    <glyph glyph-name="periodcentered" unicode="&#xb7;" horiz-adv-x="768" 
d="M387 946q63 0 105.5 -47t42.5 -115t-42.5 -113.5t-105.5 -45.5q-64 0 -107.5 46.5t-43.5 114.5q0 67 43.5 113.5t107.5 46.5z" />
    <glyph glyph-name="cedilla" unicode="&#xb8;" horiz-adv-x="665" 
d="M297 23h63l-96 -160q36 4 66 4q221 0 221 -162q0 -53 -20.5 -93.5t-49 -62t-65 -35.5t-62.5 -18t-47 -4t-48 4.5t-58 14t-51.5 29t-20.5 46.5q0 18 10.5 32.5t26.5 14.5q17 0 31.5 -16t24.5 -35t33.5 -35t55.5 -16q23 0 43 6.5t41 22.5t33 50t12 83q0 112 -157 112
q-19 0 -47 -3t-41 -3q-17 0 -17 23q0 8 25 45z" />
    <glyph glyph-name="questiondown" unicode="&#xbf;" horiz-adv-x="770" 
d="M465 1386v-77q0 -80 -20 -156.5t-50 -134.5t-65.5 -127t-66.5 -132.5t-53 -153t-24 -187.5q-1 -46 1.5 -89t15 -96t33.5 -92.5t60.5 -68t92.5 -31.5h21q27 0 53 5t53 17t45.5 36t22.5 57q3 25 -9 47.5t-30.5 49.5t-24.5 54q-13 56 12.5 92.5t73.5 36.5q60 0 91.5 -49
t31.5 -113q-1 -75 -32.5 -133.5t-83.5 -94t-115 -53.5t-131 -18q-119 0 -210.5 57.5t-139.5 153.5t-48 213q0 80 24 156.5t62.5 139.5t85.5 124t94 120t85.5 118t62.5 127.5t23 138.5v63h59zM428 1505q-47 0 -79 33.5t-32 83.5q0 53 31.5 87t79.5 34q49 0 80 -34t31 -87
q0 -50 -32 -83.5t-79 -33.5z" />
    <glyph glyph-name="Agrave" unicode="&#xc0;" horiz-adv-x="1157" 
d="M383 729h283q-74 340 -142 604q-7 -27 -141 -604zM680 664h-311q-31 -136 -35 -150q-3 -15 -13.5 -60.5t-18 -81t-18.5 -90t-15.5 -88t-8.5 -75t2 -51.5q6 -23 82 -29v-39h-311v39q71 5 88 29q54 77 133 446l272 1210h105v-4l10 4l270 -1210q2 -7 14.5 -59t20 -84
t22.5 -87t26.5 -91t26 -72t26.5 -53q17 -24 86 -29l-3 -39h-436v39q86 6 92 29q18 73 -73 446q-3 16 -14.5 67t-18.5 83zM532 2154l175 -284l-27 -27l-254 172q-43 28 -52.5 79.5t17.5 82.5q30 33 62 33q43 0 79 -56z" />
    <glyph glyph-name="Aacute" unicode="&#xc1;" horiz-adv-x="1157" 
d="M383 729h283q-74 340 -142 604q-7 -27 -141 -604zM680 664h-311q-31 -136 -35 -150q-3 -15 -13.5 -60.5t-18 -81t-18.5 -90t-15.5 -88t-8.5 -75t2 -51.5q6 -23 82 -29v-39h-311v39q71 5 88 29q54 77 133 446l272 1210h105v-4l10 4l270 -1210q2 -7 14.5 -59t20 -84
t22.5 -87t26.5 -91t26 -72t26.5 -53q17 -24 86 -29l-3 -39h-436v39q86 6 92 29q18 73 -73 446q-3 16 -14.5 67t-18.5 83zM494 1874l-29 29l176 284q34 54 78 54q33 0 63 -33q28 -30 18.5 -81t-52.5 -81z" />
    <glyph glyph-name="Acircumflex" unicode="&#xc2;" horiz-adv-x="1157" 
d="M383 729h283q-74 340 -142 604q-7 -27 -141 -604zM680 664h-311q-31 -136 -35 -150q-3 -15 -13.5 -60.5t-18 -81t-18.5 -90t-15.5 -88t-8.5 -75t2 -51.5q6 -23 82 -29v-39h-311v39q71 5 88 29q54 77 133 446l272 1210h105v-4l10 4l270 -1210q2 -7 14.5 -59t20 -84
t22.5 -87t26.5 -91t26 -72t26.5 -53q17 -24 86 -29l-3 -39h-436v39q86 6 92 29q18 73 -73 446q-3 16 -14.5 67t-18.5 83zM559 2165h45q14 0 23.5 -4t13.5 -8t14 -15l193 -235q12 -12 12 -27q0 -20 -4 -30t-7 -11.5t-9 -1.5q-22 0 -45 20l-211 185l-213 -185q-23 -20 -45 -20
q-7 0 -15 17.5t-8 25.5q0 13 12 27l195 235q9 10 14 14.5t14 8.5t21 4z" />
    <glyph glyph-name="Atilde" unicode="&#xc3;" horiz-adv-x="1157" 
d="M383 729h283q-74 340 -142 604q-7 -27 -141 -604zM680 664h-311q-31 -136 -35 -150q-3 -15 -13.5 -60.5t-18 -81t-18.5 -90t-15.5 -88t-8.5 -75t2 -51.5q6 -23 82 -29v-39h-311v39q71 5 88 29q54 77 133 446l272 1210h105v-4l10 4l270 -1210q2 -7 14.5 -59t20 -84
t22.5 -87t26.5 -91t26 -72t26.5 -53q17 -24 86 -29l-3 -39h-436v39q86 6 92 29q18 73 -73 446q-3 16 -14.5 67t-18.5 83zM705 1878q-39 0 -82.5 25.5t-76 55.5t-71.5 55t-69 24q-19 -1 -34.5 -10.5t-28 -27.5t-21 -33t-20 -40.5t-17.5 -36.5l-21 33q11 51 35 103.5t64 94
t83 42.5q37 1 81.5 -24.5t78 -55.5t72.5 -55.5t67 -24.5q24 1 43 10t33.5 27.5t22.5 31.5t19 37.5t14 30.5l18 -24q-3 -81 -61.5 -159.5t-128.5 -78.5z" />
    <glyph glyph-name="Adieresis" unicode="&#xc4;" horiz-adv-x="1157" 
d="M383 729h283q-74 340 -142 604q-7 -27 -141 -604zM680 664h-311q-31 -136 -35 -150q-3 -15 -13.5 -60.5t-18 -81t-18.5 -90t-15.5 -88t-8.5 -75t2 -51.5q6 -23 82 -29v-39h-311v39q71 5 88 29q54 77 133 446l272 1210h105v-4l10 4l270 -1210q2 -7 14.5 -59t20 -84
t22.5 -87t26.5 -91t26 -72t26.5 -53q17 -24 86 -29l-3 -39h-436v39q86 6 92 29q18 73 -73 446q-3 16 -14.5 67t-18.5 83zM301 2001q0 50 26 79t72 29q41 0 69 -34t28 -82q0 -46 -28.5 -79.5t-68.5 -33.5h-2q-42 0 -69 36.5t-27 84.5zM639 2001q0 50 26 79t70 29q42 0 69 -34
t27 -82q0 -46 -27.5 -79.5t-68.5 -33.5q-42 0 -69 36.5t-27 84.5z" />
    <glyph glyph-name="Aring" unicode="&#xc5;" horiz-adv-x="1157" 
d="M383 729h283q-74 340 -142 604q-7 -27 -141 -604zM578 1921h2q28 0 48.5 23.5t20.5 56.5q0 34 -21 57t-50 23q-30 0 -51 -23.5t-21 -56.5t21 -56.5t51 -23.5zM680 664h-311q-31 -136 -35 -150q-3 -15 -13.5 -60.5t-18 -81t-18.5 -90t-15.5 -88t-8.5 -75t2 -51.5
q6 -23 82 -29v-39h-311v39q71 5 88 29q54 77 133 446l272 1210h105v-4l10 4l270 -1210q2 -7 14.5 -59t20 -84t22.5 -87t26.5 -91t26 -72t26.5 -53q17 -24 86 -29l-3 -39h-436v39q86 6 92 29q18 73 -73 446q-3 16 -14.5 67t-18.5 83zM578 1831h-3q-62 0 -105.5 50t-43.5 120
t44.5 119t107.5 49t107 -49t44 -119q0 -71 -44 -120.5t-107 -49.5z" />
    <glyph glyph-name="AE" unicode="&#xc6;" horiz-adv-x="1667" 
d="M512 731h293q0 420 -4 621q-56 -119 -163 -350t-126 -271zM993 868v-223q7 -378 29 -528q9 -51 57 -51q353 0 408 26q8 6 20 31t22.5 55t23.5 71t21.5 70t17.5 61.5t10 35.5l38 -15q-1 -42 -15.5 -192.5t-14.5 -210.5l-594 2h-342l2 39q57 0 90 20q3 3 6 9q22 38 29 200
q2 48 2 246q0 84 2 139h-328q-18 -40 -61 -139q-176 -376 -174 -444q2 -26 75 -31v-39h-311l-2 39q73 5 96 31q11 11 24.5 29.5t28.5 44.5t28.5 51t31 59.5t29.5 59t29 61.5t25 54.5t23 49.5t17 37l461 1022q-10 91 -25 119q-15 26 -78 31v36h873q0 -63 4.5 -196t5.5 -160
l-39 -14q-2 7 -14.5 56.5t-24 91t-27.5 82.5t-28 50q-51 27 -365 27q-48 0 -57 -51q-19 -119 -29 -490v-188q84 2 109.5 3t78.5 3.5t78 7t41 10.5q26 11 43.5 72t28 136t12.5 83l39 -2q-11 -345 0 -690l-39 -4q-2 8 -12.5 83.5t-28 136.5t-43.5 73q-16 6 -41 10.5t-78 7
t-78.5 3.5t-109.5 3z" />
    <glyph glyph-name="Ccedilla" unicode="&#xc7;" horiz-adv-x="1032" 
d="M508 -31l-66 -106q36 4 66 4q221 0 221 -162q0 -53 -20.5 -93.5t-49 -62t-65 -35.5t-62.5 -18t-47 -4t-48 4.5t-58 14t-51.5 29t-20.5 46.5q0 18 10.5 32.5t26.5 14.5q17 0 31.5 -16t24.5 -35t33.5 -35t55.5 -16q23 0 43 6.5t41 22.5t33 50t12 83q0 112 -157 112
q-19 0 -47 -3t-41 -3q-17 0 -17 23q0 8 25 45l68 113q-189 43 -303.5 273.5t-114.5 618.5q0 176 25.5 320t71 245.5t109.5 170t140 101t164 32.5q177 0 290 -113l35 113h45l-12 -481h-49q-27 189 -114.5 306t-190.5 117q-47 0 -87.5 -22t-69 -57.5t-52 -89t-38.5 -106.5
t-26 -119.5t-16.5 -120.5t-9 -116.5t-4 -99.5t-0.5 -78q0 -56 1.5 -108.5t8.5 -140t19 -160.5t35.5 -154t55 -137t81 -92.5t110.5 -36.5q136 0 226.5 111.5t146.5 378.5h59q-15 -93 -36 -169.5t-57 -151.5t-82.5 -126.5t-115.5 -84t-153 -34.5h-33z" />
    <glyph glyph-name="Egrave" unicode="&#xc8;" horiz-adv-x="997" 
d="M317 868v-2q0 -229 9.5 -441t23.5 -308q6 -51 58 -51q332 0 385 26q9 6 21 31t23 55.5t23.5 71t21 69.5t17.5 61t10 36l39 -15q-1 -42 -15.5 -192.5t-14.5 -210.5l-590 2h-308v39q65 5 78 29q9 15 15.5 48.5t10.5 89t6 105.5t2.5 133t1 135t0 147.5t-0.5 137.5t0.5 137
t0 147t-1 134.5t-2.5 132.5t-6 105t-10.5 88.5t-15.5 48.5q-16 29 -78 29v38h865q0 -65 4 -208t4 -148l-37 -14q-3 8 -21.5 80t-38.5 130.5t-36 69.5q-51 27 -354 27q-50 0 -56 -51q-31 -198 -31 -678q81 2 107 3t76.5 3.5t74.5 7t39 10.5q27 11 44.5 72t27.5 136t12 83
l39 -2q-7 -345 0 -690l-39 -4q-2 8 -12 83.5t-27.5 136.5t-44.5 73q-16 6 -40 10.5t-74 7t-77 3.5t-108 3zM664 1903l-27 -27l-254 172q-43 28 -52.5 79.5t17.5 82.5q30 33 62 33q43 0 79 -56z" />
    <glyph glyph-name="Eacute" unicode="&#xc9;" horiz-adv-x="997" 
d="M317 868v-2q0 -229 9.5 -441t23.5 -308q6 -51 58 -51q332 0 385 26q9 6 21 31t23 55.5t23.5 71t21 69.5t17.5 61t10 36l39 -15q-1 -42 -15.5 -192.5t-14.5 -210.5l-590 2h-308v39q65 5 78 29q9 15 15.5 48.5t10.5 89t6 105.5t2.5 133t1 135t0 147.5t-0.5 137.5t0.5 137
t0 147t-1 134.5t-2.5 132.5t-6 105t-10.5 88.5t-15.5 48.5q-16 29 -78 29v38h865q0 -65 4 -208t4 -148l-37 -14q-3 8 -21.5 80t-38.5 130.5t-36 69.5q-51 27 -354 27q-50 0 -56 -51q-31 -198 -31 -678q81 2 107 3t76.5 3.5t74.5 7t39 10.5q27 11 44.5 72t27.5 136t12 83
l39 -2q-7 -345 0 -690l-39 -4q-2 8 -12 83.5t-27.5 136.5t-44.5 73q-16 6 -40 10.5t-74 7t-77 3.5t-108 3zM330 1829l176 285q33 53 78 53q33 0 63 -33q27 -30 17.5 -81t-52.5 -81l-254 -172z" />
    <glyph glyph-name="Ecircumflex" unicode="&#xca;" horiz-adv-x="997" 
d="M317 868v-2q0 -229 9.5 -441t23.5 -308q6 -51 58 -51q332 0 385 26q9 6 21 31t23 55.5t23.5 71t21 69.5t17.5 61t10 36l39 -15q-1 -42 -15.5 -192.5t-14.5 -210.5l-590 2h-308v39q65 5 78 29q9 15 15.5 48.5t10.5 89t6 105.5t2.5 133t1 135t0 147.5t-0.5 137.5t0.5 137
t0 147t-1 134.5t-2.5 132.5t-6 105t-10.5 88.5t-15.5 48.5q-16 29 -78 29v38h865q0 -65 4 -208t4 -148l-37 -14q-3 8 -21.5 80t-38.5 130.5t-36 69.5q-51 27 -354 27q-50 0 -56 -51q-31 -198 -31 -678q81 2 107 3t76.5 3.5t74.5 7t39 10.5q27 11 44.5 72t27.5 136t12 83
l39 -2q-7 -345 0 -690l-39 -4q-2 8 -12 83.5t-27.5 136.5t-44.5 73q-16 6 -40 10.5t-74 7t-77 3.5t-108 3zM475 2214h45q14 0 23.5 -4t13.5 -8t14 -15l193 -235q12 -12 12 -27q0 -20 -4 -30t-7 -11.5t-9 -1.5q-20 0 -45 21l-211 184l-213 -184q-25 -21 -45 -21
q-7 0 -15 17.5t-8 25.5q0 13 12 27l195 235q9 10 14 14.5t14 8.5t21 4z" />
    <glyph glyph-name="Edieresis" unicode="&#xcb;" horiz-adv-x="997" 
d="M317 868v-2q0 -229 9.5 -441t23.5 -308q6 -51 58 -51q332 0 385 26q9 6 21 31t23 55.5t23.5 71t21 69.5t17.5 61t10 36l39 -15q-1 -42 -15.5 -192.5t-14.5 -210.5l-590 2h-308v39q65 5 78 29q9 15 15.5 48.5t10.5 89t6 105.5t2.5 133t1 135t0 147.5t-0.5 137.5t0.5 137
t0 147t-1 134.5t-2.5 132.5t-6 105t-10.5 88.5t-15.5 48.5q-16 29 -78 29v38h865q0 -65 4 -208t4 -148l-37 -14q-3 8 -21.5 80t-38.5 130.5t-36 69.5q-51 27 -354 27q-50 0 -56 -51q-31 -198 -31 -678q81 2 107 3t76.5 3.5t74.5 7t39 10.5q27 11 44.5 72t27.5 136t12 83
l39 -2q-7 -345 0 -690l-39 -4q-2 8 -12 83.5t-27.5 136.5t-44.5 73q-16 6 -40 10.5t-74 7t-77 3.5t-108 3zM584 2050q0 50 26 79.5t70 29.5q42 0 69 -34.5t27 -82.5q0 -46 -27.5 -79.5t-68.5 -33.5q-42 0 -69 36.5t-27 84.5zM246 2050q0 50 26.5 79.5t71.5 29.5
q41 0 68.5 -34.5t27.5 -82.5q0 -46 -28 -79.5t-68 -33.5h-2q-42 0 -69 36.5t-27 84.5z" />
    <glyph glyph-name="Igrave" unicode="&#xcc;" 
d="M20 1686v38h412v-38q-61 0 -80 -29q-13 -23 -20.5 -80t-10.5 -157t-3.5 -171.5t0.5 -208t1 -182.5q0 -52 -1 -190.5t-0.5 -207t3.5 -165t10.5 -150t20.5 -75.5q17 -26 80 -31v-39h-412v37q62 5 78 33q9 16 15.5 49t10.5 88t6 104.5t2.5 132t1 134t0 147t-0.5 137.5
q0 36 0.5 127t0 143.5t-1 135.5t-2.5 135.5t-6 110t-10.5 92.5t-15.5 51q-16 29 -78 29zM387 1905l-27 -27l-254 172q-43 28 -52.5 79.5t18.5 82.5q30 33 61 33q44 0 80 -56z" />
    <glyph glyph-name="Iacute" unicode="&#xcd;" 
d="M20 1686v38h412v-38q-61 0 -80 -29q-13 -23 -20.5 -80t-10.5 -157t-3.5 -171.5t0.5 -208t1 -182.5q0 -52 -1 -190.5t-0.5 -207t3.5 -165t10.5 -150t20.5 -75.5q17 -26 80 -31v-39h-412v37q62 5 78 33q9 16 15.5 49t10.5 88t6 104.5t2.5 132t1 134t0 147t-0.5 137.5
q0 36 0.5 127t0 143.5t-1 135.5t-2.5 135.5t-6 110t-10.5 92.5t-15.5 51q-16 29 -78 29zM102 1892l177 285q33 53 77 53q35 0 64 -32q27 -30 17.5 -81t-52.5 -81l-254 -172z" />
    <glyph glyph-name="Icircumflex" unicode="&#xce;" 
d="M20 1686v38h412v-38q-61 0 -80 -29q-13 -23 -20.5 -80t-10.5 -157t-3.5 -171.5t0.5 -208t1 -182.5q0 -52 -1 -190.5t-0.5 -207t3.5 -165t10.5 -150t20.5 -75.5q17 -26 80 -31v-39h-412v37q62 5 78 33q9 16 15.5 49t10.5 88t6 104.5t2.5 132t1 134t0 147t-0.5 137.5
q0 36 0.5 127t0 143.5t-1 135.5t-2.5 135.5t-6 110t-10.5 92.5t-15.5 51q-16 29 -78 29zM205 2214h45q14 0 23.5 -4t13.5 -8t14 -15l193 -235q12 -12 12 -27q0 -20 -4 -30t-7.5 -11.5t-9.5 -1.5q-21 0 -45 21l-211 184l-213 -184q-24 -21 -45 -21q-7 0 -14.5 17.5t-7.5 25.5
q0 13 12 27l195 235q9 10 14 14.5t14 8.5t21 4z" />
    <glyph glyph-name="Idieresis" unicode="&#xcf;" 
d="M20 1686v38h412v-38q-61 0 -80 -29q-13 -23 -20.5 -80t-10.5 -157t-3.5 -171.5t0.5 -208t1 -182.5q0 -52 -1 -190.5t-0.5 -207t3.5 -165t10.5 -150t20.5 -75.5q17 -26 80 -31v-39h-412v37q62 5 78 33q9 16 15.5 49t10.5 88t6 104.5t2.5 132t1 134t0 147t-0.5 137.5
q0 36 0.5 127t0 143.5t-1 135.5t-2.5 135.5t-6 110t-10.5 92.5t-15.5 51q-16 29 -78 29zM297 2058q0 50 26 79.5t70 29.5q42 0 69 -34.5t27 -82.5q0 -46 -27.5 -79.5t-68.5 -33.5q-42 0 -69 36.5t-27 84.5zM-41 2058q0 50 26.5 79.5t71.5 29.5q41 0 69 -34.5t28 -82.5
q0 -46 -28.5 -79.5t-68.5 -33.5h-2q-42 0 -69 36.5t-27 84.5z" />
    <glyph glyph-name="Ntilde" unicode="&#xd1;" horiz-adv-x="1093" 
d="M756 1686l2 38h315v-38q-71 0 -88 -31q-13 -22 -21 -79.5t-10.5 -155t-3 -173t0.5 -206.5t1 -183v-858h-73v35l-19 -35l-647 1464l2 -606q0 -52 -1 -190.5t-0.5 -207t3.5 -165t10.5 -150t20.5 -75.5q16 -24 100 -31v-39h-328v39q75 6 89 31q9 16 15.5 49.5t10 87.5t6 105
t3 131t0.5 135t-0.5 146.5t-0.5 137.5q0 33 0.5 127t0 143.5t-1 134.5t-3 136t-6 109t-10 93t-14.5 50q-17 31 -89 31v38h304l555 -1275v413q0 32 0.5 177t0 210t-3 169.5t-10.5 160t-20 76.5q-17 31 -90 31zM672 1839q-39 0 -82.5 25.5t-76 55.5t-71.5 55t-69 24
q-19 -1 -34.5 -10.5t-28 -27.5t-21 -33t-20 -40.5t-17.5 -36.5l-21 33q11 51 35.5 103.5t64.5 94t83 42.5q37 1 81.5 -24.5t78 -55.5t72.5 -55.5t67 -24.5q24 1 43 10t33 27t22.5 31.5t19 38t13.5 30.5l18 -24q-3 -81 -61.5 -159.5t-128.5 -78.5z" />
    <glyph glyph-name="Ograve" unicode="&#xd2;" horiz-adv-x="1077" 
d="M836 870q0 180 -17 325t-52 256t-93 171.5t-135 60.5q-78 1 -136 -60t-92.5 -172.5t-51.5 -255.5t-17 -321q0 -181 17 -330t51.5 -266.5t92.5 -183t136 -65.5q77 -1 135 64.5t93 182.5t52 266t17 328zM539 1741q110 0 201 -51.5t160.5 -154.5t108 -272.5t38.5 -390.5
q0 -220 -39 -393.5t-107.5 -284t-160.5 -168t-201 -57.5q-87 0 -163.5 36t-140 109.5t-109 180t-70.5 253.5t-25 324q0 220 38 388t107 272t160.5 156.5t202.5 52.5zM524 2183l174 -285l-26 -26l-254 172q-43 28 -52.5 79.5t17.5 82.5q29 32 61 32q45 0 80 -55z" />
    <glyph glyph-name="Oacute" unicode="&#xd3;" horiz-adv-x="1077" 
d="M836 870q0 180 -17 325t-52 256t-93 171.5t-135 60.5q-78 1 -136 -60t-92.5 -172.5t-51.5 -255.5t-17 -321q0 -181 17 -330t51.5 -266.5t92.5 -183t136 -65.5q77 -1 135 64.5t93 182.5t52 266t17 328zM539 1741q110 0 201 -51.5t160.5 -154.5t108 -272.5t38.5 -390.5
q0 -220 -39 -393.5t-107.5 -284t-160.5 -168t-201 -57.5q-87 0 -163.5 36t-140 109.5t-109 180t-70.5 253.5t-25 324q0 220 38 388t107 272t160.5 156.5t202.5 52.5zM410 1855l-29 29l176 285q33 53 78 53q33 0 63 -33q28 -30 18.5 -80.5t-52.5 -80.5z" />
    <glyph glyph-name="Ocircumflex" unicode="&#xd4;" horiz-adv-x="1077" 
d="M836 870q0 180 -17 325t-52 256t-93 171.5t-135 60.5q-78 1 -136 -60t-92.5 -172.5t-51.5 -255.5t-17 -321q0 -181 17 -330t51.5 -266.5t92.5 -183t136 -65.5q77 -1 135 64.5t93 182.5t52 266t17 328zM539 1741q110 0 201 -51.5t160.5 -154.5t108 -272.5t38.5 -390.5
q0 -220 -39 -393.5t-107.5 -284t-160.5 -168t-201 -57.5q-87 0 -163.5 36t-140 109.5t-109 180t-70.5 253.5t-25 324q0 220 38 388t107 272t160.5 156.5t202.5 52.5zM522 2214h45q14 0 23.5 -4t13.5 -8t14 -15l193 -235q12 -12 12 -27q0 -20 -4 -30t-7 -11.5t-9 -1.5
q-21 0 -45 21l-211 184l-213 -184q-25 -21 -45 -21q-7 0 -15 17.5t-8 25.5q0 11 13 27l194 235q9 10 14 14.5t14 8.5t21 4z" />
    <glyph glyph-name="Otilde" unicode="&#xd5;" horiz-adv-x="1077" 
d="M836 870q0 180 -17 325t-52 256t-93 171.5t-135 60.5q-78 1 -136 -60t-92.5 -172.5t-51.5 -255.5t-17 -321q0 -181 17 -330t51.5 -266.5t92.5 -183t136 -65.5q77 -1 135 64.5t93 182.5t52 266t17 328zM539 1741q110 0 201 -51.5t160.5 -154.5t108 -272.5t38.5 -390.5
q0 -220 -39 -393.5t-107.5 -284t-160.5 -168t-201 -57.5q-87 0 -163.5 36t-140 109.5t-109 180t-70.5 253.5t-25 324q0 220 38 388t107 272t160.5 156.5t202.5 52.5zM664 1870q-39 0 -82.5 25.5t-76 55.5t-71.5 55t-69 24q-19 -1 -34.5 -10.5t-28 -27.5t-21 -33t-20 -40.5
t-17.5 -36.5l-21 33q11 51 35.5 103.5t64.5 93.5t83 42q37 1 81.5 -24t78 -55.5t72.5 -55.5t67 -24q24 1 43 10t33 27t22.5 31.5t19 38t13.5 30.5l18 -25q-3 -81 -61.5 -159t-128.5 -78z" />
    <glyph glyph-name="Odieresis" unicode="&#xd6;" horiz-adv-x="1077" 
d="M836 870q0 180 -17 325t-52 256t-93 171.5t-135 60.5q-78 1 -136 -60t-92.5 -172.5t-51.5 -255.5t-17 -321q0 -181 17 -330t51.5 -266.5t92.5 -183t136 -65.5q77 -1 135 64.5t93 182.5t52 266t17 328zM539 1741q110 0 201 -51.5t160.5 -154.5t108 -272.5t38.5 -390.5
q0 -220 -39 -393.5t-107.5 -284t-160.5 -168t-201 -57.5q-87 0 -163.5 36t-140 109.5t-109 180t-70.5 253.5t-25 324q0 220 38 388t107 272t160.5 156.5t202.5 52.5zM272 2001q0 50 26.5 79t72.5 29q41 0 68.5 -34t27.5 -82q0 -46 -28 -79.5t-68 -33.5h-2q-43 0 -70 36.5
t-27 84.5zM610 2001q0 49 26.5 78.5t70.5 29.5q42 0 69 -34t27 -82q0 -46 -27.5 -79.5t-68.5 -33.5q-43 0 -70 36.5t-27 84.5z" />
    <glyph glyph-name="Oslash" unicode="&#xd8;" horiz-adv-x="1228" 
d="M897 1278l-520 -909q74 -340 252 -340q77 -1 135 64.5t93 182.5t52 266t17 328q0 238 -29 408zM356 487l518 906q-76 290 -245 290q-78 1 -136 -60t-92.5 -172.5t-51.5 -255.5t-17 -321q0 -212 24 -387zM272 186l-151 -264h-90l198 346q-108 227 -108 604q0 220 38 388
t107 272t160.5 156.5t202.5 52.5q210 0 342 -178l137 237h88l-178 -311q119 -227 119 -617q0 -220 -39 -393.5t-107.5 -284t-160.5 -168t-201 -57.5q-107 0 -198.5 55.5t-158.5 161.5z" />
    <glyph glyph-name="Ugrave" unicode="&#xd9;" horiz-adv-x="1130" 
d="M137 862q0 32 0.5 177t0 210t-3 169.5t-10.5 160.5t-20 78q-19 29 -79 29v38h413v-38q-60 0 -76 -29q-13 -23 -21.5 -80.5t-11 -156.5t-3 -172t0.5 -207.5t1 -182.5q0 -261 1 -287q10 -329 111 -445q65 -73 168 -73q109 0 177.5 63.5t97.5 172.5q19 70 28.5 173t11 178.5
t1.5 221.5v193q4 533 -37 602q-16 29 -78 29v38h297v-38q-62 0 -78 -29q-39 -66 -35 -555q0 -43 1 -125t1 -119q0 -272 -5 -349q-18 -298 -130 -424q-101 -114 -289 -114q-64 0 -118 12.5t-95 36t-74 56.5t-55 74t-39.5 89t-26.5 100.5t-15.5 109t-8 114.5t-3 117.5
t0.5 117.5v64zM750 1905l-27 -27l-254 172q-43 28 -52.5 79.5t17.5 82.5q30 33 62 33q43 0 79 -56z" />
    <glyph glyph-name="Uacute" unicode="&#xda;" horiz-adv-x="1130" 
d="M137 862q0 32 0.5 177t0 210t-3 169.5t-10.5 160.5t-20 78q-19 29 -79 29v38h413v-38q-60 0 -76 -29q-13 -23 -21.5 -80.5t-11 -156.5t-3 -172t0.5 -207.5t1 -182.5q0 -261 1 -287q10 -329 111 -445q65 -73 168 -73q109 0 177.5 63.5t97.5 172.5q19 70 28.5 173t11 178.5
t1.5 221.5v193q4 533 -37 602q-16 29 -78 29v38h297v-38q-62 0 -78 -29q-39 -66 -35 -555q0 -43 1 -125t1 -119q0 -272 -5 -349q-18 -298 -130 -424q-101 -114 -289 -114q-64 0 -118 12.5t-95 36t-74 56.5t-55 74t-39.5 89t-26.5 100.5t-15.5 109t-8 114.5t-3 117.5
t0.5 117.5v64zM504 1864l176 284q34 54 78 54q33 0 63 -33q27 -30 17.5 -81t-52.5 -81l-254 -172z" />
    <glyph glyph-name="Ucircumflex" unicode="&#xdb;" horiz-adv-x="1130" 
d="M137 862q0 32 0.5 177t0 210t-3 169.5t-10.5 160.5t-20 78q-19 29 -79 29v38h413v-38q-60 0 -76 -29q-13 -23 -21.5 -80.5t-11 -156.5t-3 -172t0.5 -207.5t1 -182.5q0 -261 1 -287q10 -329 111 -445q65 -73 168 -73q109 0 177.5 63.5t97.5 172.5q19 70 28.5 173t11 178.5
t1.5 221.5v193q4 533 -37 602q-16 29 -78 29v38h297v-38q-62 0 -78 -29q-39 -66 -35 -555q0 -43 1 -125t1 -119q0 -272 -5 -349q-18 -298 -130 -424q-101 -114 -289 -114q-64 0 -118 12.5t-95 36t-74 56.5t-55 74t-39.5 89t-26.5 100.5t-15.5 109t-8 114.5t-3 117.5
t0.5 117.5v64zM553 2200h45q14 0 23.5 -4t13.5 -8t14 -15l193 -236q12 -12 12 -26q0 -20 -4 -30t-7 -11.5t-9 -1.5q-23 0 -46 20l-210 185l-213 -185q-23 -20 -46 -20q-7 0 -14.5 17.5t-7.5 25.5q0 12 12 26l195 236q9 10 14 14.5t14 8.5t21 4z" />
    <glyph glyph-name="Udieresis" unicode="&#xdc;" horiz-adv-x="1130" 
d="M137 862q0 32 0.5 177t0 210t-3 169.5t-10.5 160.5t-20 78q-19 29 -79 29v38h413v-38q-60 0 -76 -29q-13 -23 -21.5 -80.5t-11 -156.5t-3 -172t0.5 -207.5t1 -182.5q0 -261 1 -287q10 -329 111 -445q65 -73 168 -73q109 0 177.5 63.5t97.5 172.5q19 70 28.5 173t11 178.5
t1.5 221.5v193q4 533 -37 602q-16 29 -78 29v38h297v-38q-62 0 -78 -29q-39 -66 -35 -555q0 -43 1 -125t1 -119q0 -272 -5 -349q-18 -298 -130 -424q-101 -114 -289 -114q-64 0 -118 12.5t-95 36t-74 56.5t-55 74t-39.5 89t-26.5 100.5t-15.5 109t-8 114.5t-3 117.5
t0.5 117.5v64zM637 2001q0 50 26 79t70 29q42 0 69 -34t27 -82q0 -46 -27.5 -79.5t-68.5 -33.5q-42 0 -69 36.5t-27 84.5zM299 2001q0 50 26 79t72 29q41 0 69 -34t28 -82q0 -46 -28.5 -79.5t-68.5 -33.5h-2q-42 0 -69 36.5t-27 84.5z" />
    <glyph glyph-name="germandbls" unicode="&#xdf;" horiz-adv-x="1032" 
d="M635 1409q-10 115 -58.5 182t-117.5 64q-96 -4 -137 -100t-41 -312l-2 -729v-49.5v-70.5t0.5 -74.5t2.5 -81.5t4.5 -71t7.5 -62.5t11 -38.5q16 -36 80 -39v-27h-397v27q63 3 82 39q10 22 16 87t7 122t2 142t1 97v268q0 70 -1 187.5t-1 156.5q0 64 3 118t13.5 116.5
t27 111.5t45.5 96.5t68.5 79.5t96.5 51t127 19q137 0 235.5 -86t108.5 -219q4 -50 -4.5 -93t-22.5 -72t-41 -58t-46.5 -44t-51.5 -38q-10 -7 -42.5 -27.5t-50 -34.5t-40.5 -38.5t-34 -56t-11 -70.5q0 -52 28 -87t72.5 -55t99 -36.5t109 -39.5t99.5 -56t74 -94t30 -146
q1 -160 -89 -265.5t-222 -105.5q-54 3 -101 18.5t-99 43.5t-66 34q-17 35 -17 160t17 192q7 5 18 2q29 -203 89 -301t169 -98q74 1 110 71.5t23 160.5q-9 60 -35.5 107.5t-62.5 80t-78 62t-83 60.5t-75 66.5t-57 89.5t-27 121q-3 67 19.5 115.5t68.5 93.5q164 155 146 334z
" />
    <glyph glyph-name="agrave" unicode="&#xe0;" horiz-adv-x="925" 
d="M610 332q4 52 4.5 111.5t-1 137t-1.5 113.5v6q-29 -45 -79.5 -89t-99 -78t-94 -72.5t-75.5 -88.5t-33 -110q-4 -82 37.5 -125t112.5 -43q92 0 152 70.5t77 167.5zM608 -25l2 181q-64 -92 -136.5 -137.5t-174.5 -45.5q-119 0 -195.5 72t-72.5 205q1 64 26.5 116t67 88.5
t93 67.5t109 60t109.5 58.5t100 71.5t76 91q0 57 -1.5 97.5t-7 92t-17.5 86.5t-30.5 67.5t-49 48t-70.5 15.5q-56 -1 -95.5 -24.5t-59.5 -48t-32.5 -85t-15 -90t-5.5 -109.5q-1 -10 -1 -15q-26 -56 -112 -60q-32 0 -55 21.5t-23 48.5q0 190 121 308t291 118
q144 0 242.5 -91.5t105.5 -254.5q4 -94 4 -142q0 -15 -1.5 -106.5t-1 -168t2.5 -169.5t9.5 -158t20.5 -86q11 -16 33 -16q12 0 33 4t31 4q14 0 18 -4l-12 -43q-38 -4 -156 -36t-170 -32zM463 1659l174 -285l-27 -26l-254 172q-43 28 -52.5 79t18.5 82q30 33 61 33
q45 0 80 -55z" />
    <glyph glyph-name="aacute" unicode="&#xe1;" horiz-adv-x="925" 
d="M610 332q4 52 4.5 111.5t-1 137t-1.5 113.5v6q-29 -45 -79.5 -89t-99 -78t-94 -72.5t-75.5 -88.5t-33 -110q-4 -82 37.5 -125t112.5 -43q92 0 152 70.5t77 167.5zM608 -25l2 181q-64 -92 -136.5 -137.5t-174.5 -45.5q-119 0 -195.5 72t-72.5 205q1 64 26.5 116t67 88.5
t93 67.5t109 60t109.5 58.5t100 71.5t76 91q0 57 -1.5 97.5t-7 92t-17.5 86.5t-30.5 67.5t-49 48t-70.5 15.5q-56 -1 -95.5 -24.5t-59.5 -48t-32.5 -85t-15 -90t-5.5 -109.5q-1 -10 -1 -15q-26 -56 -112 -60q-32 0 -55 21.5t-23 48.5q0 190 121 308t291 118
q144 0 242.5 -91.5t105.5 -254.5q4 -94 4 -142q0 -15 -1.5 -106.5t-1 -168t2.5 -169.5t9.5 -158t20.5 -86q11 -16 33 -16q12 0 33 4t31 4q14 0 18 -4l-12 -43q-38 -4 -156 -36t-170 -32zM328 1356l-29 28l176 285q33 53 78 53q34 0 63 -32q28 -30 18.5 -81t-52.5 -81z" />
    <glyph glyph-name="acircumflex" unicode="&#xe2;" horiz-adv-x="925" 
d="M610 332q4 52 4.5 111.5t-1 137t-1.5 113.5v6q-29 -45 -79.5 -89t-99 -78t-94 -72.5t-75.5 -88.5t-33 -110q-4 -82 37.5 -125t112.5 -43q92 0 152 70.5t77 167.5zM608 -25l2 181q-64 -92 -136.5 -137.5t-174.5 -45.5q-119 0 -195.5 72t-72.5 205q1 64 26.5 116t67 88.5
t93 67.5t109 60t109.5 58.5t100 71.5t76 91q0 57 -1.5 97.5t-7 92t-17.5 86.5t-30.5 67.5t-49 48t-70.5 15.5q-56 -1 -95.5 -24.5t-59.5 -48t-32.5 -85t-15 -90t-5.5 -109.5q-1 -10 -1 -15q-26 -56 -112 -60q-32 0 -55 21.5t-23 48.5q0 190 121 308t291 118
q144 0 242.5 -91.5t105.5 -254.5q4 -94 4 -142q0 -15 -1.5 -106.5t-1 -168t2.5 -169.5t9.5 -158t20.5 -86q11 -16 33 -16q12 0 33 4t31 4q14 0 18 -4l-12 -43q-38 -4 -156 -36t-170 -32zM440 1677h45q20 0 29.5 -6t22.5 -20l192 -236q12 -12 12 -26q0 -20 -4 -30t-7 -11.5
t-9 -1.5q-22 0 -45 20l-211 184l-213 -184q-23 -20 -45 -20q-7 0 -15 17.5t-8 25.5q0 10 13 26l194 236q23 26 49 26z" />
    <glyph glyph-name="atilde" unicode="&#xe3;" horiz-adv-x="925" 
d="M610 332q4 52 4.5 111.5t-1 137t-1.5 113.5v6q-29 -45 -79.5 -89t-99 -78t-94 -72.5t-75.5 -88.5t-33 -110q-4 -82 37.5 -125t112.5 -43q92 0 152 70.5t77 167.5zM608 -25l2 181q-64 -92 -136.5 -137.5t-174.5 -45.5q-119 0 -195.5 72t-72.5 205q1 64 26.5 116t67 88.5
t93 67.5t109 60t109.5 58.5t100 71.5t76 91q0 57 -1.5 97.5t-7 92t-17.5 86.5t-30.5 67.5t-49 48t-70.5 15.5q-56 -1 -95.5 -24.5t-59.5 -48t-32.5 -85t-15 -90t-5.5 -109.5q-1 -10 -1 -15q-26 -56 -112 -60q-32 0 -55 21.5t-23 48.5q0 190 121 308t291 118
q144 0 242.5 -91.5t105.5 -254.5q4 -94 4 -142q0 -15 -1.5 -106.5t-1 -168t2.5 -169.5t9.5 -158t20.5 -86q11 -16 33 -16q12 0 33 4t31 4q14 0 18 -4l-12 -43q-38 -4 -156 -36t-170 -32zM532 1386q-39 0 -82.5 25.5t-76 55.5t-71.5 55t-69 24q-19 -1 -34.5 -10.5t-28 -27
t-20.5 -32.5t-19.5 -40t-17.5 -37l-21 33q11 51 35 103.5t64 93.5t83 42q37 1 81.5 -24.5t78 -55.5t72.5 -55.5t67 -24.5q24 1 43 10t33.5 27.5t22.5 32t19 38t14 30.5l18 -25q-3 -81 -62 -159.5t-129 -78.5z" />
    <glyph glyph-name="adieresis" unicode="&#xe4;" horiz-adv-x="925" 
d="M610 332q4 52 4.5 111.5t-1 137t-1.5 113.5v6q-29 -45 -79.5 -89t-99 -78t-94 -72.5t-75.5 -88.5t-33 -110q-4 -82 37.5 -125t112.5 -43q92 0 152 70.5t77 167.5zM608 -25l2 181q-64 -92 -136.5 -137.5t-174.5 -45.5q-119 0 -195.5 72t-72.5 205q1 64 26.5 116t67 88.5
t93 67.5t109 60t109.5 58.5t100 71.5t76 91q0 57 -1.5 97.5t-7 92t-17.5 86.5t-30.5 67.5t-49 48t-70.5 15.5q-56 -1 -95.5 -24.5t-59.5 -48t-32.5 -85t-15 -90t-5.5 -109.5q-1 -10 -1 -15q-26 -56 -112 -60q-32 0 -55 21.5t-23 48.5q0 190 121 308t291 118
q144 0 242.5 -91.5t105.5 -254.5q4 -94 4 -142q0 -15 -1.5 -106.5t-1 -168t2.5 -169.5t9.5 -158t20.5 -86q11 -16 33 -16q12 0 33 4t31 4q14 0 18 -4l-12 -43q-38 -4 -156 -36t-170 -32zM188 1556q0 50 26.5 79.5t72.5 29.5q41 0 68.5 -34.5t27.5 -82.5q0 -46 -28 -79
t-68 -33h-2q-43 0 -70 36t-27 84zM526 1556q0 50 26.5 79.5t70.5 29.5q42 0 69 -34.5t27 -82.5q0 -46 -27.5 -79t-68.5 -33q-43 0 -70 36t-27 84z" />
    <glyph glyph-name="aring" unicode="&#xe5;" horiz-adv-x="925" 
d="M610 332q4 52 4.5 111.5t-1 137t-1.5 113.5v6q-29 -45 -79.5 -89t-99 -78t-94 -72.5t-75.5 -88.5t-33 -110q-4 -82 37.5 -125t112.5 -43q92 0 152 70.5t77 167.5zM457 1477h2q28 0 48.5 23t20.5 56q0 34 -21 57t-50 23q-30 0 -51 -23.5t-21 -56.5t21 -56t51 -23zM608 -25
l2 181q-64 -92 -136.5 -137.5t-174.5 -45.5q-119 0 -195.5 72t-72.5 205q1 64 26.5 116t67 88.5t93 67.5t109 60t109.5 58.5t100 71.5t76 91q0 57 -1.5 97.5t-7 92t-17.5 86.5t-30.5 67.5t-49 48t-70.5 15.5q-56 -1 -95.5 -24.5t-59.5 -48t-32.5 -85t-15 -90t-5.5 -109.5
q-1 -10 -1 -15q-26 -56 -112 -60q-32 0 -55 21.5t-23 48.5q0 190 121 308t291 118q144 0 242.5 -91.5t105.5 -254.5q4 -94 4 -142q0 -15 -1.5 -106.5t-1 -168t2.5 -169.5t9.5 -158t20.5 -86q11 -16 33 -16q12 0 33 4t31 4q14 0 18 -4l-12 -43q-38 -4 -156 -36t-170 -32z
M457 1386h-2q-62 0 -106 50t-44 120t44.5 119t107.5 49t107 -49t44 -119q0 -71 -44 -120.5t-107 -49.5z" />
    <glyph glyph-name="ae" unicode="&#xe6;" horiz-adv-x="1454" 
d="M612 672v22v8q-24 -39 -63.5 -76.5t-79 -65t-82 -61.5t-75 -65.5t-54.5 -76t-25 -95.5q-6 -82 35.5 -125t112.5 -43q91 0 152.5 72t76.5 168q8 101 4 246q0 11 -1 33.5t-1 35.5v23zM1239 952q-4 53 -15 97.5t-32 86.5t-57.5 66.5t-85.5 24.5q-175 0 -215 -353h337
q32 0 51 22.5t17 55.5zM1395 811h-568q-6 -88 -6 -160q0 -159 29 -286t92 -207t152 -80q57 0 109 29t88 75t60 100.5t31 108.5l48 -8q-5 -42 -19.5 -91.5t-45 -108.5t-71 -106.5t-104 -82t-137.5 -39.5q-133 0 -237 68.5t-163 191.5q-68 -105 -160 -173.5t-200 -68.5
q-114 0 -190 71.5t-72 205.5q1 64 26.5 116t67 88.5t93 67.5t109 60t109.5 59t100 72t76 92q0 48 -1 82.5t-5 80t-11 77.5t-20 65.5t-31 54t-45 33t-61 12.5q-47 -1 -82.5 -15.5t-57 -39.5t-36 -58t-20.5 -73.5t-9.5 -83.5t-5.5 -90v-10q-26 -58 -112 -62q-32 0 -55 21.5
t-23 48.5q0 190 121 308t291 118q92 0 167.5 -38.5t120.5 -109.5q117 164 297 164q165 0 274 -107t126 -313q2 -21 -9.5 -40t-29.5 -19z" />
    <glyph glyph-name="ccedilla" unicode="&#xe7;" horiz-adv-x="860" 
d="M295 -133l65 106q-106 34 -182.5 137t-112.5 240.5t-36 292.5q0 83 13 168t45.5 172t80 153.5t123.5 109t170 42.5q125 0 215 -64t133 -182q23 -69 -20.5 -123.5t-98.5 -54.5q-26 0 -41 15q-14 26 -27 75t-24.5 93t-28 87t-45.5 69t-69 26q-55 0 -96 -50t-62 -118
t-34 -158t-16 -149.5t-3 -112.5q0 -97 17.5 -195.5t50.5 -184.5t88 -140.5t122 -54.5q72 0 137 53.5t103 127.5t45 144l51 -8q-10 -107 -61 -202.5t-140.5 -158.5t-197.5 -63q-29 0 -43 2l-60 -98q36 4 66 4q221 0 221 -162q0 -53 -20.5 -93.5t-49 -62t-65 -35.5t-62.5 -18
t-47 -4t-48 4.5t-58 14t-51.5 29t-20.5 46.5q0 18 10.5 32.5t26.5 14.5q17 0 31.5 -16t24.5 -35t33.5 -35t55.5 -16q23 0 43 6.5t41 22.5t33 50t12 83q0 112 -157 112q-19 0 -47 -3t-41 -3q-17 0 -17 23q0 8 25 45z" />
    <glyph glyph-name="egrave" unicode="&#xe8;" horiz-adv-x="868" 
d="M653 952q-4 53 -15 97.5t-32 86.5t-57.5 66.5t-85.5 24.5q-175 0 -215 -353h338q32 0 50.5 22.5t16.5 55.5zM809 811h-567q-6 -88 -6 -160q0 -160 28.5 -287t90.5 -207.5t151 -80.5q75 0 140.5 50t103.5 121t47 144l47 -8q-9 -78 -40.5 -153t-81.5 -136.5t-122 -99
t-154 -37.5q-128 0 -223 91.5t-143.5 247.5t-48.5 355q0 286 114.5 462.5t303.5 176.5q165 0 273.5 -107t125.5 -313q2 -21 -9.5 -40t-29.5 -19zM428 1659l174 -285l-27 -26l-253 172q-43 28 -52.5 79t17.5 82q30 33 61 33q45 0 80 -55z" />
    <glyph glyph-name="eacute" unicode="&#xe9;" horiz-adv-x="868" 
d="M653 952q-4 53 -15 97.5t-32 86.5t-57.5 66.5t-85.5 24.5q-175 0 -215 -353h338q32 0 50.5 22.5t16.5 55.5zM809 811h-567q-6 -88 -6 -160q0 -160 28.5 -287t90.5 -207.5t151 -80.5q75 0 140.5 50t103.5 121t47 144l47 -8q-9 -78 -40.5 -153t-81.5 -136.5t-122 -99
t-154 -37.5q-128 0 -223 91.5t-143.5 247.5t-48.5 355q0 286 114.5 462.5t303.5 176.5q165 0 273.5 -107t125.5 -313q2 -21 -9.5 -40t-29.5 -19zM295 1356l-29 28l176 285q33 53 78 53q35 0 64 -32q27 -30 17.5 -81t-52.5 -81z" />
    <glyph glyph-name="ecircumflex" unicode="&#xea;" horiz-adv-x="868" 
d="M653 952q-4 53 -15 97.5t-32 86.5t-57.5 66.5t-85.5 24.5q-175 0 -215 -353h338q32 0 50.5 22.5t16.5 55.5zM809 811h-567q-6 -88 -6 -160q0 -160 28.5 -287t90.5 -207.5t151 -80.5q75 0 140.5 50t103.5 121t47 144l47 -8q-9 -78 -40.5 -153t-81.5 -136.5t-122 -99
t-154 -37.5q-128 0 -223 91.5t-143.5 247.5t-48.5 355q0 286 114.5 462.5t303.5 176.5q165 0 273.5 -107t125.5 -313q2 -21 -9.5 -40t-29.5 -19zM414 1677h45q14 0 23.5 -4t14 -8t13.5 -14l192 -236q13 -13 13 -26q0 -20 -4 -30t-7.5 -11.5t-9.5 -1.5q-22 0 -45 20l-211 184
l-213 -184q-23 -20 -45 -20q-7 0 -14.5 17.5t-7.5 25.5q0 12 12 26l195 236q23 26 49 26z" />
    <glyph glyph-name="edieresis" unicode="&#xeb;" horiz-adv-x="868" 
d="M653 952q-4 53 -15 97.5t-32 86.5t-57.5 66.5t-85.5 24.5q-175 0 -215 -353h338q32 0 50.5 22.5t16.5 55.5zM809 811h-567q-6 -88 -6 -160q0 -160 28.5 -287t90.5 -207.5t151 -80.5q75 0 140.5 50t103.5 121t47 144l47 -8q-9 -78 -40.5 -153t-81.5 -136.5t-122 -99
t-154 -37.5q-128 0 -223 91.5t-143.5 247.5t-48.5 355q0 286 114.5 462.5t303.5 176.5q165 0 273.5 -107t125.5 -313q2 -21 -9.5 -40t-29.5 -19zM158 1556q0 50 26.5 79.5t71.5 29.5q41 0 68.5 -34.5t27.5 -82.5q0 -46 -28 -79t-68 -33h-2q-43 0 -69.5 36t-26.5 84z
M496 1556q0 50 26 79.5t70 29.5q42 0 69 -34.5t27 -82.5q0 -46 -27.5 -79t-68.5 -33q-43 0 -69.5 36t-26.5 84z" />
    <glyph glyph-name="igrave" unicode="&#xec;" 
d="M-16 1151l14 43q29 3 148.5 31t175.5 28l-5 -739v-37v-49.5t0.5 -54t1 -61t2 -59t4 -59.5t5.5 -51t7.5 -44.5t10.5 -30.5q11 -26 76 -31v-37h-395l-2 37q63 4 77 31q9 20 15.5 62.5t9 100.5t4 104t2 105.5t0.5 73.5q0 157 -0.5 210t-3 161.5t-10.5 164t-21 89.5
q-9 16 -32 16q-6 0 -43 -5.5t-41 1.5zM393 1374l-26 -26l-254 172q-43 28 -52.5 79t17.5 82q30 33 61 33q45 0 80 -55z" />
    <glyph glyph-name="iacute" unicode="&#xed;" 
d="M-16 1151l14 43q29 3 148.5 31t175.5 28l-5 -739v-37v-49.5t0.5 -54t1 -61t2 -59t4 -59.5t5.5 -51t7.5 -44.5t10.5 -30.5q11 -26 76 -31v-37h-395l-2 37q63 4 77 31q9 20 15.5 62.5t9 100.5t4 104t2 105.5t0.5 73.5q0 157 -0.5 210t-3 161.5t-10.5 164t-21 89.5
q-9 16 -32 16q-6 0 -43 -5.5t-41 1.5zM57 1384l176 285q33 53 78 53q35 0 64 -32q27 -30 17.5 -81t-52.5 -81l-254 -172z" />
    <glyph glyph-name="icircumflex" unicode="&#xee;" 
d="M-16 1151l14 43q29 3 148.5 31t175.5 28l-5 -739v-37v-49.5t0.5 -54t1 -61t2 -59t4 -59.5t5.5 -51t7.5 -44.5t10.5 -30.5q11 -26 76 -31v-37h-395l-2 37q63 4 77 31q9 20 15.5 62.5t9 100.5t4 104t2 105.5t0.5 73.5q0 157 -0.5 210t-3 161.5t-10.5 164t-21 89.5
q-9 16 -32 16q-6 0 -43 -5.5t-41 1.5zM205 1677h45q14 0 23.5 -4t14 -8t13.5 -14l193 -236q12 -12 12 -26q0 -20 -4 -30t-7.5 -11.5t-9.5 -1.5q-22 0 -45 20l-211 184l-213 -184q-23 -20 -45 -20q-7 0 -14.5 17.5t-7.5 25.5q0 12 12 26l195 236q23 26 49 26z" />
    <glyph glyph-name="idieresis" unicode="&#xef;" 
d="M-16 1151l14 43q29 3 148.5 31t175.5 28l-5 -739v-37v-49.5t0.5 -54t1 -61t2 -59t4 -59.5t5.5 -51t7.5 -44.5t10.5 -30.5q11 -26 76 -31v-37h-395l-2 37q63 4 77 31q9 20 15.5 62.5t9 100.5t4 104t2 105.5t0.5 73.5q0 157 -0.5 210t-3 161.5t-10.5 164t-21 89.5
q-9 16 -32 16q-6 0 -43 -5.5t-41 1.5zM287 1556q0 50 26 79.5t70 29.5q42 0 69 -34.5t27 -82.5q0 -46 -27.5 -79t-68.5 -33q-43 0 -69.5 36t-26.5 84zM-51 1556q0 50 26.5 79.5t71.5 29.5q41 0 68.5 -34.5t27.5 -82.5q0 -46 -28 -79t-68 -33h-2q-43 0 -69.5 36t-26.5 84z
" />
    <glyph glyph-name="ntilde" unicode="&#xf1;" horiz-adv-x="1021" 
d="M-16 1149l14 45q34 3 151.5 31t172.5 28l-3 -262q25 56 54.5 103t67.5 89t86.5 66t101.5 25q110 0 184 -82t80 -254q2 -53 2.5 -273t7 -388t25.5 -209q11 -26 78 -31l-2 -37h-396v37q65 5 76 31q6 12 10.5 30.5t7.5 44.5t5.5 51t4 59.5t2 59t1 61t0.5 54v49.5v37
q0 288 -4 360q-2 62 -14 110t-28.5 76.5t-38 46t-42 23.5t-41.5 5q-79 -11 -146.5 -111t-83.5 -258l-2 -252v-37v-49.5t0.5 -54t1 -61t2 -59t4 -59.5t5.5 -51t7.5 -44.5t10.5 -30.5q11 -26 76 -31v-37h-395l-2 37q63 4 77 31q9 20 15.5 62.5t9 100.5t4 104t2 105.5t0.5 73.5
q0 374 -7 475q-8 105 -26 150q-11 16 -32 16q-6 0 -37 -5.5t-47 -0.5zM635 1395q-32 0 -66 16.5t-63 40t-57.5 47t-58 40t-54.5 15.5q-19 -1 -34.5 -10t-28 -27t-21 -33t-20 -40.5t-17.5 -36.5l-20 33q11 51 35 103.5t64 93.5t83 42q37 1 81.5 -24t78 -55.5t72.5 -55.5
t67 -24q24 1 43 10t33 27t22.5 31.5t19 38t13.5 30.5l18 -25q-3 -81 -61.5 -159t-128.5 -78z" />
    <glyph glyph-name="ograve" unicode="&#xf2;" horiz-adv-x="944" 
d="M700 639q0 101 -4.5 179t-19 160t-39 135.5t-66.5 87.5t-100 34t-100 -34.5t-66 -88.5t-38 -136t-18.5 -159.5t-4.5 -177.5q0 -83 3 -151t11.5 -143t24.5 -130.5t40.5 -101.5t62 -70.5t85.5 -24.5q58 0 100.5 37t66.5 94.5t38.5 143t19 166t4.5 180.5zM471 1292
q197 0 320.5 -175.5t123.5 -477.5q0 -300 -124.5 -488t-319.5 -188q-194 0 -318 187.5t-124 488.5q0 299 122.5 476t319.5 177zM465 1659l174 -285l-27 -26l-254 172q-43 28 -52.5 79t18.5 82q30 33 61 33q45 0 80 -55z" />
    <glyph glyph-name="oacute" unicode="&#xf3;" horiz-adv-x="944" 
d="M700 639q0 101 -4.5 179t-19 160t-39 135.5t-66.5 87.5t-100 34t-100 -34.5t-66 -88.5t-38 -136t-18.5 -159.5t-4.5 -177.5q0 -83 3 -151t11.5 -143t24.5 -130.5t40.5 -101.5t62 -70.5t85.5 -24.5q58 0 100.5 37t66.5 94.5t38.5 143t19 166t4.5 180.5zM471 1292
q197 0 320.5 -175.5t123.5 -477.5q0 -300 -124.5 -488t-319.5 -188q-194 0 -318 187.5t-124 488.5q0 299 122.5 476t319.5 177zM332 1356l-29 28l176 285q33 53 78 53q35 0 64 -32q27 -30 17.5 -81t-52.5 -81z" />
    <glyph glyph-name="ocircumflex" unicode="&#xf4;" horiz-adv-x="944" 
d="M700 639q0 101 -4.5 179t-19 160t-39 135.5t-66.5 87.5t-100 34t-100 -34.5t-66 -88.5t-38 -136t-18.5 -159.5t-4.5 -177.5q0 -83 3 -151t11.5 -143t24.5 -130.5t40.5 -101.5t62 -70.5t85.5 -24.5q58 0 100.5 37t66.5 94.5t38.5 143t19 166t4.5 180.5zM471 1292
q197 0 320.5 -175.5t123.5 -477.5q0 -300 -124.5 -488t-319.5 -188q-194 0 -318 187.5t-124 488.5q0 299 122.5 476t319.5 177zM451 1677h45q14 0 23.5 -4t14 -8t13.5 -14l192 -236q13 -13 13 -26q0 -20 -4 -30t-7.5 -11.5t-9.5 -1.5q-22 0 -45 20l-211 184l-213 -184
q-23 -20 -45 -20q-7 0 -14.5 17.5t-7.5 25.5q0 12 12 26l194 236q23 26 50 26z" />
    <glyph glyph-name="otilde" unicode="&#xf5;" horiz-adv-x="944" 
d="M700 639q0 101 -4.5 179t-19 160t-39 135.5t-66.5 87.5t-100 34t-100 -34.5t-66 -88.5t-38 -136t-18.5 -159.5t-4.5 -177.5q0 -83 3 -151t11.5 -143t24.5 -130.5t40.5 -101.5t62 -70.5t85.5 -24.5q58 0 100.5 37t66.5 94.5t38.5 143t19 166t4.5 180.5zM471 1292
q197 0 320.5 -175.5t123.5 -477.5q0 -300 -124.5 -488t-319.5 -188q-194 0 -318 187.5t-124 488.5q0 299 122.5 476t319.5 177zM596 1395q-32 0 -66 16.5t-63 40t-57.5 47t-58 40t-54.5 15.5q-19 -1 -34.5 -10t-28 -27t-21 -33t-20 -40.5t-17.5 -36.5l-20 33q11 51 35 103.5
t64 93.5t83 42q37 1 81.5 -24t78 -55.5t72.5 -55.5t67 -24q24 1 43 10t33 27t22.5 31.5t19 38t13.5 30.5l18 -25q-3 -81 -61.5 -159t-128.5 -78z" />
    <glyph glyph-name="odieresis" unicode="&#xf6;" horiz-adv-x="944" 
d="M700 639q0 101 -4.5 179t-19 160t-39 135.5t-66.5 87.5t-100 34t-100 -34.5t-66 -88.5t-38 -136t-18.5 -159.5t-4.5 -177.5q0 -83 3 -151t11.5 -143t24.5 -130.5t40.5 -101.5t62 -70.5t85.5 -24.5q58 0 100.5 37t66.5 94.5t38.5 143t19 166t4.5 180.5zM471 1292
q197 0 320.5 -175.5t123.5 -477.5q0 -300 -124.5 -488t-319.5 -188q-194 0 -318 187.5t-124 488.5q0 299 122.5 476t319.5 177zM197 1556q0 50 26.5 79.5t71.5 29.5q41 0 68.5 -34.5t27.5 -82.5q0 -46 -28 -79t-68 -33h-2q-43 0 -69.5 36t-26.5 84zM535 1556q0 50 26 79.5
t70 29.5q42 0 69 -34.5t27 -82.5q0 -46 -27.5 -79t-68.5 -33q-43 0 -69.5 36t-26.5 84z" />
    <glyph glyph-name="oslash" unicode="&#xf8;" horiz-adv-x="944" 
d="M270 264l379 819q-58 152 -178 152q-58 0 -100 -34.5t-66 -88.5t-38 -136t-18.5 -159.5t-4.5 -177.5q0 -231 26 -375zM676 981l-377 -817q58 -146 172 -146q58 0 100.5 37t66.5 94.5t38.5 143t19 166t4.5 180.5q0 222 -24 342zM246 45l-88 -190h-76l111 241
q-78 91 -121 231t-43 312q0 299 122.5 476t319.5 177q135 0 236 -84l102 219l72 -2l-123 -266q157 -178 157 -520q0 -300 -124.5 -488t-319.5 -188q-128 0 -225 82z" />
    <glyph glyph-name="ugrave" unicode="&#xf9;" horiz-adv-x="1021" 
d="M700 -20v264q-39 -111 -119 -177t-184 -67q-113 0 -184 76t-84 231q-5 58 -5 188t0.5 245.5t-8.5 231.5t-30 167q-9 16 -33 16q-5 0 -41 -5.5t-41 1.5l15 43q29 3 148 31t175 28q-2 -164 -2 -489q0 -259 4 -385q7 -266 150 -266q21 0 44.5 6.5t52.5 26.5t54.5 50t49.5 83
t38 120q0 3 1.5 65t2 106t1 120.5t-1.5 136t-6 124t-12 113t-19 75.5q-9 16 -33 16q-5 0 -41 -5.5t-41 1.5l14 43q29 3 149.5 31t176.5 28q0 -16 -2 -153.5t-2.5 -277t1 -298.5t10 -275.5t22.5 -150.5q9 -16 32 -16q9 0 27 3.5t28.5 4t26.5 -3.5l-14 -43q-31 -4 -148 -33.5
t-172 -29.5zM678 1374l-27 -26l-254 172q-43 28 -52.5 79t17.5 82q30 33 62 33q45 0 80 -55z" />
    <glyph glyph-name="uacute" unicode="&#xfa;" horiz-adv-x="1021" 
d="M700 -20v264q-39 -111 -119 -177t-184 -67q-113 0 -184 76t-84 231q-5 58 -5 188t0.5 245.5t-8.5 231.5t-30 167q-9 16 -33 16q-5 0 -41 -5.5t-41 1.5l15 43q29 3 148 31t175 28q-2 -164 -2 -489q0 -259 4 -385q7 -266 150 -266q21 0 44.5 6.5t52.5 26.5t54.5 50t49.5 83
t38 120q0 3 1.5 65t2 106t1 120.5t-1.5 136t-6 124t-12 113t-19 75.5q-9 16 -33 16q-5 0 -41 -5.5t-41 1.5l14 43q29 3 149.5 31t176.5 28q0 -16 -2 -153.5t-2.5 -277t1 -298.5t10 -275.5t22.5 -150.5q9 -16 32 -16q9 0 27 3.5t28.5 4t26.5 -3.5l-14 -43q-31 -4 -148 -33.5
t-172 -29.5zM342 1384l176 285q33 53 78 53q34 0 63 -32q28 -30 18.5 -81t-52.5 -81l-254 -172z" />
    <glyph glyph-name="ucircumflex" unicode="&#xfb;" horiz-adv-x="1021" 
d="M700 -20v264q-39 -111 -119 -177t-184 -67q-113 0 -184 76t-84 231q-5 58 -5 188t0.5 245.5t-8.5 231.5t-30 167q-9 16 -33 16q-5 0 -41 -5.5t-41 1.5l15 43q29 3 148 31t175 28q-2 -164 -2 -489q0 -259 4 -385q7 -266 150 -266q21 0 44.5 6.5t52.5 26.5t54.5 50t49.5 83
t38 120q0 3 1.5 65t2 106t1 120.5t-1.5 136t-6 124t-12 113t-19 75.5q-9 16 -33 16q-5 0 -41 -5.5t-41 1.5l14 43q29 3 149.5 31t176.5 28q0 -16 -2 -153.5t-2.5 -277t1 -298.5t10 -275.5t22.5 -150.5q9 -16 32 -16q9 0 27 3.5t28.5 4t26.5 -3.5l-14 -43q-31 -4 -148 -33.5
t-172 -29.5zM489 1677h46q14 0 23.5 -4t14 -8t13.5 -14l192 -236q13 -13 13 -26q0 -20 -4 -30t-7.5 -11.5t-9.5 -1.5q-22 0 -45 20l-211 184l-213 -184q-23 -20 -45 -20q-7 0 -15 17.5t-8 25.5q0 10 13 26l194 236q23 26 49 26z" />
    <glyph glyph-name="udieresis" unicode="&#xfc;" horiz-adv-x="1021" 
d="M700 -20v264q-39 -111 -119 -177t-184 -67q-113 0 -184 76t-84 231q-5 58 -5 188t0.5 245.5t-8.5 231.5t-30 167q-9 16 -33 16q-5 0 -41 -5.5t-41 1.5l15 43q29 3 148 31t175 28q-2 -164 -2 -489q0 -259 4 -385q7 -266 150 -266q21 0 44.5 6.5t52.5 26.5t54.5 50t49.5 83
t38 120q0 3 1.5 65t2 106t1 120.5t-1.5 136t-6 124t-12 113t-19 75.5q-9 16 -33 16q-5 0 -41 -5.5t-41 1.5l14 43q29 3 149.5 31t176.5 28q0 -16 -2 -153.5t-2.5 -277t1 -298.5t10 -275.5t22.5 -150.5q9 -16 32 -16q9 0 27 3.5t28.5 4t26.5 -3.5l-14 -43q-31 -4 -148 -33.5
t-172 -29.5zM573 1556q0 50 26.5 79.5t70.5 29.5q42 0 69 -34.5t27 -82.5q0 -46 -27.5 -79t-68.5 -33q-43 0 -70 36t-27 84zM236 1556q0 50 26.5 79.5t71.5 29.5q41 0 68.5 -34.5t27.5 -82.5q0 -46 -28 -79t-68 -33h-2q-43 0 -69.5 36t-26.5 84z" />
    <glyph glyph-name="ydieresis" unicode="&#xff;" horiz-adv-x="1099" 
d="M516 -12q-27 91 -77.5 261.5t-79 265.5t-65.5 216t-64 202t-48 134q-29 78 -65.5 104t-102.5 29v39h461v-39q-48 -6 -72 -31t-12 -65l227 -750q66 199 102 310.5t74 251t42 198.5q3 40 -27.5 62t-75.5 24v41l361 -2l-2 -39q-17 -1 -29 -3t-31.5 -9t-35.5 -23t-27 -41
q-54 -115 -150.5 -406t-177.5 -562q-150 -600 -360 -600q-46 0 -88 45q-26 29 -33.5 73t8.5 64q9 25 36 32t54 3q26 -1 46.5 -3t40 4.5t34.5 11t29.5 17.5t25.5 23t21.5 27t18 30.5t16 33.5t14 35t12.5 36zM621 1556q0 50 26 79.5t70 29.5q42 0 69 -34.5t27 -82.5
q0 -46 -27.5 -79t-68.5 -33q-43 0 -69.5 36t-26.5 84zM283 1556q0 50 26.5 79.5t71.5 29.5q41 0 68.5 -34.5t27.5 -82.5q0 -46 -28 -79t-68 -33h-2q-43 0 -69.5 36t-26.5 84z" />
    <glyph glyph-name="dotlessi" unicode="&#x131;" 
d="M-16 1151l14 43q29 3 148.5 31t175.5 28l-5 -739v-37v-49.5t0.5 -54t1 -61t2 -59t4 -59.5t5.5 -51t7.5 -44.5t10.5 -30.5q11 -26 76 -31v-37h-395l-2 37q63 4 77 31q9 20 15.5 62.5t9 100.5t4 104t2 105.5t0.5 73.5q0 157 -0.5 210t-3 161.5t-10.5 164t-21 89.5
q-9 16 -32 16q-6 0 -43 -5.5t-41 1.5z" />
    <glyph glyph-name="OE" unicode="&#x152;" horiz-adv-x="1708" 
d="M836 877q0 180 -17 325t-52 256t-93 171.5t-135 60.5q-78 1 -136 -60t-92.5 -172.5t-51.5 -255.5t-17 -321q0 -181 17 -330.5t51.5 -267t92.5 -183t136 -65.5q77 -1 135 64.5t93 183t52 266.5t17 328zM758 1686q47 -28 90 -78q-8 45 -25.5 61.5t-64.5 16.5zM1053 868v-2
q0 -231 9 -442.5t23 -306.5q6 -51 58 -51q332 0 385 26q9 6 21 31t23 55t24 71.5t21.5 69.5t17.5 61.5t10 35.5l38 -15q-1 -42 -15.5 -192.5t-14.5 -210.5l-590 2h-307v39q65 5 78 29q8 11 18 65q-131 -158 -313 -158q-109 0 -201.5 57.5t-161 168.5t-107 284.5t-38.5 393.5
t38 388t107 272t160.5 156t202.5 52q117 0 217 -59v36h864q0 -65 4 -208t4 -148l-37 -14q-3 8 -21.5 80t-38.5 130.5t-36 69.5q-51 27 -354 27q-50 0 -56 -51q-30 -192 -30 -678q81 2 107 3t76.5 3.5t74.5 7t39 10.5q27 11 44.5 72t27.5 136t12 83l39 -2q-7 -345 0 -690
l-39 -4q-2 8 -12 83.5t-27.5 136.5t-44.5 73q-16 6 -40 10.5t-74 7t-77 3.5t-108 3z" />
    <glyph glyph-name="oe" unicode="&#x153;" horiz-adv-x="1546" 
d="M700 641q0 101 -4.5 179t-19 160t-39 135.5t-66.5 87.5t-100 34t-100 -34.5t-66 -88.5t-38 -136t-18.5 -159.5t-4.5 -177.5q0 -83 3 -151t11.5 -143t24.5 -130.5t40.5 -101.5t62 -70.5t85.5 -24.5q58 0 100.5 37t66.5 94.5t38.5 143t19 166t4.5 180.5zM1331 952
q-4 53 -15 97.5t-32 86.5t-57.5 66.5t-85.5 24.5q-175 0 -215 -353h338q32 0 50.5 22.5t16.5 55.5zM1487 811h-567q-1 -22 -3.5 -59.5t-3.5 -51.5q2 -18 2 -59q0 -48 4 -99.5t13.5 -119t29.5 -126t48.5 -109.5t73 -81t100.5 -30q75 0 140.5 50t103.5 121t47 144l47 -8
q-9 -78 -40.5 -153t-81.5 -136.5t-122 -99t-154 -37.5q-102 0 -182.5 58t-134.5 163q-60 -102 -147 -157.5t-189 -55.5q-194 0 -318 187.5t-124 488.5q0 299 122.5 476t319.5 177q104 0 191 -52t147 -150q117 198 317 198q165 0 274 -107t126 -313q2 -21 -9.5 -40t-29.5 -19
z" />
    <glyph glyph-name="Ydieresis" unicode="&#x178;" horiz-adv-x="1130" 
d="M641 772l43 8l-41 -4zM643 874q97 266 170 499t64 282q-6 27 -84 33v36h315v-38q-63 -5 -84 -23q-33 -28 -95 -189t-141.5 -396t-103.5 -298q-7 -286 -1 -473t36 -237q16 -31 78 -31v-39h-412l-2 39q63 0 80 31q27 46 31.5 247t-0.5 428q-25 65 -73.5 193.5t-88 231
t-83 212t-78.5 181.5t-56 94q-27 29 -90 29v38h421v-38q-60 0 -65 -29q-8 -44 74 -279t188 -504zM307 2046q0 50 26.5 79t72.5 29q41 0 68.5 -34t27.5 -82q0 -46 -28 -79.5t-68 -33.5h-3q-42 0 -69 36.5t-27 84.5zM645 2046q0 50 26 79t70 29q42 0 69.5 -34t27.5 -82
q0 -46 -28 -79.5t-69 -33.5q-42 0 -69 36.5t-27 84.5z" />
    <glyph glyph-name="circumflex" unicode="&#x2c6;" horiz-adv-x="866" 
d="M391 1677h45q14 0 23.5 -4t14 -8t13.5 -14l193 -236q12 -12 12 -26q0 -20 -4 -30t-7 -11.5t-9 -1.5q-22 0 -45 20l-211 184l-213 -184q-23 -20 -45 -20q-7 0 -15 17.5t-8 25.5q0 12 12 26l195 236q23 26 49 26z" />
    <glyph glyph-name="caron" unicode="&#x2c7;" horiz-adv-x="870" 
d="M459 1196h-45q-33 0 -52 25l-194 272q-12 19 -12 33q0 8 22 8t45 -23l213 -213l213 213q23 23 45 23q23 0 23 -8q0 -14 -12 -33l-195 -272q-19 -25 -51 -25z" />
    <glyph glyph-name="breve" unicode="&#x2d8;" horiz-adv-x="829" 
d="M416 1196h-2q-74 0 -133.5 47.5t-89 112.5t-29.5 127q0 39 20 39q11 0 24.5 -13.5t16.5 -29.5q14 -83 60 -114.5t135 -31.5q87 0 134 34.5t62 117.5q6 37 35 37q21 0 21 -39q0 -62 -29.5 -127t-90 -112.5t-134.5 -47.5z" />
    <glyph glyph-name="dotaccent" unicode="&#x2d9;" horiz-adv-x="460" 
d="M233 1200h-2q-41 0 -64.5 32.5t-23.5 80.5q0 45 24.5 78.5t65.5 33.5q40 0 65.5 -33.5t25.5 -78.5q0 -46 -25.5 -79.5t-65.5 -33.5z" />
    <glyph glyph-name="ring" unicode="&#x2da;" horiz-adv-x="583" 
d="M285 1386h-2q-62 0 -106 50t-44 120t44.5 119t107.5 49t107 -49t44 -119q0 -71 -44 -120.5t-107 -49.5zM285 1477h2q28 0 48.5 23t20.5 56q0 34 -21 57t-50 23q-30 0 -51 -23.5t-21 -56.5t21 -56t51 -23z" />
    <glyph glyph-name="tilde" unicode="&#x2dc;" horiz-adv-x="901" 
d="M573 1395q-32 0 -66 16.5t-63 40t-57.5 47t-58 40t-54.5 15.5q-19 -1 -34.5 -10.5t-28 -27t-20.5 -32.5t-19.5 -40t-17.5 -37l-21 33q11 51 35 103.5t64 93.5t83 42q37 1 81.5 -24t78 -55.5t72.5 -55.5t67 -24q24 1 43 10t33 27t22.5 31.5t19 38t13.5 30.5l19 -25
q-3 -81 -62 -159t-129 -78z" />
    <glyph glyph-name="endash" unicode="&#x2013;" horiz-adv-x="829" 
d="M825 578l-819 -7v119l819 6v-118z" />
    <glyph glyph-name="emdash" unicode="&#x2014;" horiz-adv-x="1527" 
d="M1526 578l-1520 -7v119l1520 6v-118z" />
    <glyph glyph-name="quoteleft" unicode="&#x2018;" horiz-adv-x="419" 
d="M205 1493q60 -3 91 -43t28 -96q-4 -55 -37.5 -87t-77.5 -32h-10q-46 6 -76 52.5t-29 115.5q1 103 55.5 183t143.5 116l18 -41q-58 -37 -86.5 -82t-19.5 -86z" />
    <glyph glyph-name="quoteright" unicode="&#x2019;" horiz-adv-x="376" 
d="M186 1446q-59 1 -89 41t-27 96q3 54 36.5 86.5t75.5 32.5q57 0 87 -53t30 -115q-1 -103 -55.5 -183t-143.5 -116l-20 41q60 37 88 82t18 88z" />
    <glyph glyph-name="quotesinglbase" unicode="&#x201a;" horiz-adv-x="454" 
d="M248 -16q-59 1 -89.5 41t-27.5 96q3 54 36.5 86.5t76.5 32.5h10q47 -6 76 -51.5t28 -114.5q0 -104 -53.5 -184.5t-142.5 -116.5l-21 41q60 37 88 82t19 88z" />
    <glyph glyph-name="quotedblleft" unicode="&#x201c;" horiz-adv-x="821" 
d="M549 1456q59 -3 89.5 -42t27.5 -95q-3 -54 -36 -86.5t-75 -32.5h-12q-47 5 -76.5 51t-28.5 115q0 103 54 183t143 116l20 -41q-58 -37 -86.5 -82t-19.5 -86zM242 1456q59 -3 89 -42t27 -95q-3 -54 -35.5 -86.5t-74.5 -32.5h-12q-47 5 -76.5 51t-28.5 115q0 103 54 183
t143 116l20 -41q-58 -37 -86.5 -82t-19.5 -86z" />
    <glyph glyph-name="quotedblright" unicode="&#x201d;" horiz-adv-x="770" 
d="M231 1409q-60 1 -90.5 41t-27.5 96q4 55 37.5 87t76.5 32q56 0 85.5 -52.5t29.5 -113.5q-1 -104 -55.5 -184.5t-143.5 -116.5l-18 41q59 37 87 82t19 88zM539 1409q-60 1 -91 41t-28 96q4 55 37.5 87t77.5 32q56 0 85 -52.5t29 -113.5q-1 -104 -55 -184.5t-143 -116.5
l-19 41q59 37 87.5 82t19.5 88z" />
    <glyph glyph-name="quotedblbase" unicode="&#x201e;" horiz-adv-x="765" 
d="M227 -57q-60 3 -90.5 42.5t-27.5 96.5q4 53 36 85t74 32q59 0 89 -51.5t30 -114.5q-1 -103 -55.5 -183t-143.5 -116l-18 41q58 35 86.5 80.5t19.5 87.5zM535 -57q-60 3 -91 42.5t-28 96.5q4 53 36 85t74 32q59 0 89 -51.5t30 -114.5q-1 -103 -55.5 -183t-143.5 -116
l-18 41q58 35 87 81t20 87z" />
    <glyph glyph-name="bullet" unicode="&#x2022;" horiz-adv-x="768" 
d="M387 946q63 0 105.5 -47t42.5 -115t-42.5 -113.5t-105.5 -45.5q-64 0 -107.5 46.5t-43.5 114.5q0 67 43.5 113.5t107.5 46.5z" />
    <glyph glyph-name="Euro" unicode="&#x20ac;" horiz-adv-x="1114" 
d="M39 735v66h117q-2 23 -2 71v60h-115v65h119q18 372 146 558t337 186q158 0 272 -106t170 -322l-182 -35q-60 405 -260 405q-70 1 -123.5 -49.5t-86.5 -145t-51.5 -216t-23.5 -275.5h566v-65h-566v-58v-73h566v-66h-564q5 -156 23.5 -280.5t51.5 -222t86 -150.5t122 -53
q204 -3 266 456l183 -26q-53 -240 -170.5 -365t-278.5 -125q-203 0 -332.5 196t-150.5 570h-119z" />
    <glyph glyph-name="trademark" unicode="&#x2122;" horiz-adv-x="1210" 
d="M373 952h-215v45q32 0 39 9q10 36 10 186v305q0 3 0.5 17.5t0.5 28t-0.5 32t-2 33t-3.5 28.5t-6 21.5t-10 7.5q-1 0 -18 0.5t-26.5 0t-22.5 -2.5t-19 -6q-9 -17 -32 -111l-39 21q4 102 4 155h639l168 -489l153 489h174v-45q-33 0 -39 -8q-10 -37 -10 -170v-342
q0 -120 10 -151q7 -9 39 -9v-45h-215v45q32 0 39 9q10 34 10 198v355l-192 -598l-209 573v-330q0 -153 10 -198q9 -9 39 -9v-45h-157v45q31 0 38 7q11 45 11 178v297q0 150 -13 190q-6 8 -28 8q0 -19 1 -55t1 -55l-37 -21q-2 7 -9 33.5t-14 48t-12 29.5q-6 4 -18.5 6
t-22 2.5t-26.5 0t-19 -0.5q-5 0 -9 -6.5t-6 -18t-3.5 -24t-1.5 -29v-27.5v-24.5v-15.5v-355q0 -128 12 -159q7 -9 37 -9v-45z" />
    </font>
</defs>
</svg>
