<?xml version="1.0" standalone="no"?>
<!DOCTYPE svg PUBLIC "-//W3C//DTD SVG 1.1//EN" "http://www.w3.org/Graphics/SVG/1.1/DTD/svg11.dtd" >
<svg xmlns="http://www.w3.org/2000/svg" xmlns:xlink="http://www.w3.org/1999/xlink" version="1.1">
<metadata>
Created by FontForge 20170731 at Fri May 26 12:17:09 2023
 By Aleksey,,,
Copyright (c) 2022 by Nicky Laatz. All rights reserved.
</metadata>
<defs>
<font id="AwesomeSerifItalic-Regular" horiz-adv-x="1144" >
  <font-face 
    font-family="Bon V Italic All"
    font-weight="400"
    font-style="italic"
    font-stretch="normal"
    units-per-em="2048"
    panose-1="0 0 0 0 0 0 0 0 0 0"
    ascent="1638"
    descent="-410"
    x-height="1126"
    cap-height="1540"
    bbox="-384.194 -457 2136 1976"
    underline-thickness="102"
    underline-position="-460"
    slope="-15.75"
    unicode-range="U+000D-FB02"
  />
<missing-glyph horiz-adv-x="1024" 
 />
    <glyph glyph-name="fi" unicode="fi" horiz-adv-x="1005" 
d="M332 1114h123q30 92 65.5 162t88 133.5t127.5 98t169 34.5q104 0 183.5 -42.5t85.5 -104.5q5 -43 -18.5 -73t-61.5 -30q-17 0 -43 11q-37 16 -58.5 50.5t-28.5 66.5t-25.5 56.5t-51.5 24.5q-40 0 -75.5 -18.5t-63 -54t-48.5 -71.5t-38.5 -86t-27 -82.5t-20.5 -74.5
l189 -2l-12 -47h-189q-10 -41 -14 -51q-36 -137 -127 -457q-34 -123 -115 -436q-15 -56 -30 -102t-38.5 -102.5t-48.5 -100.5t-60.5 -87.5t-75.5 -72t-92.5 -46.5t-111.5 -18q-95 0 -150.5 47.5t-70.5 104.5q-11 42 12 76.5t62 34.5q25 0 49 -15q28 -16 41 -54t14.5 -71.5
t17 -57t50.5 -17.5q43 8 84.5 51.5t76 114.5t64 149.5t56 174t45 169.5t37 154t26.5 110q50 176 121 451q3 9 8.5 26.5t7.5 24.5h-123zM1018 254l20 -14q-37 -125 -97.5 -184.5t-119.5 -59.5q-62 0 -90.5 50t-5.5 132q8 25 39 124.5t47 156.5q1 3 13.5 45.5t18 60t19 64.5
t20.5 74t18.5 70.5t17.5 72.5t12.5 62t8.5 57.5t1 40.5q3 35 -10 32q-23 -5 -67 -77.5t-50 -98.5l-25 12q40 126 119.5 201.5t139.5 67.5q118 -13 67 -180l-149 -504q-3 -11 -15 -50t-17.5 -58.5t-16 -55.5t-15.5 -58.5t-10.5 -49t-7.5 -45.5t0 -31q1 -14 8 -21.5t14 -7.5
q25 0 66.5 73t46.5 99z" />
    <glyph glyph-name="fl" unicode="fl" horiz-adv-x="1026" 
d="M-332 -256q-11 42 12 76.5t62 34.5q25 0 49 -15q28 -16 41 -54t14.5 -71.5t17 -57t50.5 -17.5q43 8 84.5 51.5t76 114.5t64 149.5t56 174t45 169.5t37 154t26.5 110q50 176 121 451q13 47 21.5 75.5t24 74.5t29 75.5t35.5 69t45 66t55.5 57t69 50t83.5 36t100 24.5
q20 4 61 4q24 0 71 -3t71 -3q28 0 29.5 -59t-17.5 -118.5t-41 -59.5q-6 0 -12 6q17 94 -20 146t-107 52q-63 0 -116.5 -35.5t-89 -93.5t-58.5 -116t-37 -119q-15 -65 -33 -129q-36 -137 -127 -457q-34 -123 -115 -436q-15 -56 -30 -102t-38.5 -102.5t-48.5 -100.5
t-60.5 -87.5t-76 -72t-93 -46.5t-112.5 -18q-94 0 -149 47.5t-70 104.5zM569 1065l13 49l221 -2l-12 -47h-222zM483 1114l-14 -49h-152l15 49h151zM1061 246q-35 -124 -96.5 -185t-118.5 -61q-58 0 -90 42t-11 146q13 63 106.5 392.5t170 622t68.5 337.5h190l-297 -1106
l-15 -48t-14 -46t-13 -43.5t-11.5 -40.5t-10 -37.5t-8 -33.5t-5 -29.5t-2.5 -25.5t1 -21q5 -21 23 -21q26 0 64.5 68.5t47.5 103.5z" />
    <glyph glyph-name="Th" unicode="Th" horiz-adv-x="1716" 
d="M1038 143q-12 -47 -32 -141h-166q346 1374 354 1448q-1 5 -3.5 9.5t-6.5 7.5t-7.5 6t-9.5 5t-10 3.5t-11 3t-11 2.5t-12 2t-11 2q-16 2 -57 2q-23 1 -45 -12t-33 -33q-17 -37 -37.5 -95t-44 -139.5t-40.5 -143.5t-43.5 -163t-37.5 -141q-13 -44 -39 -137
q-37 -126 -55 -192.5t-42 -160t-31 -146t1 -73.5q9 -26 68 -26l-6 -31h-375l8 31q62 0 82 26q13 14 27.5 43t32.5 81t31.5 92.5t36 120t33.5 119.5t36.5 134t33.5 123q5 17 38.5 135t46.5 166.5t36.5 138t34.5 145.5t14 93q2 21 -12 33.5t-37 11.5q-97 -1 -127 -5.5
t-67 -19.5q-18 -10 -44 -52t-53 -94.5t-32 -61.5l-25 14q4 13 35.5 110.5t48.5 155.5h877h57q-203 -724 -317 -1184q32 72 59 130.5t70 143.5t81 151t86.5 136.5t92 117t92 76.5t92.5 30q100 0 139.5 -69.5t14.5 -205.5q-11 -59 -68 -235t-102.5 -329.5t-38.5 -192.5
q5 -21 20 -21q25 3 59 63t54 109l22 -14q-40 -125 -100 -185.5t-123 -60.5q-56 2 -87 50t-9 134q27 97 97.5 304t98.5 317q38 140 38 204.5t-42 65.5q-50 2 -116.5 -65.5t-128 -164t-133 -234t-120.5 -243.5t-100 -225z" />
    <glyph glyph-name="fk" unicode="fk" horiz-adv-x="1480" 
d="M954 616l-163 -618h-170q284 931 376 1409q6 56 -10 72q-2 2 -6.5 6t-7.5 6l-7.5 5t-9.5 4t-12 1q-6 0 -24 6q-11 0 -31 -4q-51 -9 -93 -39.5t-69 -67.5t-51 -91t-36 -95t-26 -96l189 -2l-12 -47h-189q-10 -41 -14 -51q-36 -137 -127 -457q-34 -123 -115 -436
q-15 -56 -30 -102t-38.5 -102.5t-48.5 -100.5t-60.5 -87.5t-75.5 -72t-92.5 -46.5t-111.5 -18q-95 0 -150.5 47.5t-70.5 104.5q-11 42 12 76.5t62 34.5q25 0 49 -15q28 -16 41 -54t14.5 -71.5t17 -57t50.5 -17.5q43 8 84.5 51.5t76 114.5t64 149.5t56 174t45 169.5t37 154
t26.5 110q50 176 121 451q4 10 14 51h-121l15 49h121q20 65 41 116t57 106t80 93.5t109.5 69.5t146.5 43q20 4 61 4q24 0 78 -4q30 0 92 -1t96 -1l-219 -780q263 397 490 399q67 0 109.5 -43.5t45.5 -114.5q5 -79 -25.5 -151t-80.5 -124.5t-117 -97.5t-129.5 -72.5
t-124.5 -45.5q10 -39 36.5 -107t62.5 -145t79.5 -132.5t79.5 -55.5q22 0 59 28.5t64 59.5l12 -33q-47 -63 -111 -99t-134 -30q-50 3 -95.5 40t-80.5 96.5t-62.5 118t-57 125.5t-48.5 99l20 39q148 6 278 101.5t179 234.5q77 221 -37 221q-49 -2 -103 -34t-98.5 -76
t-94.5 -110.5t-83 -117t-72 -115.5z" />
    <glyph glyph-name="fh" unicode="fh" horiz-adv-x="1568" 
d="M889 143q-15 -71 -33 -141h-166q254 997 328 1315q18 94 -8 143t-86 49q-56 0 -103.5 -27.5t-78.5 -66.5t-58 -97.5t-41 -102.5t-29 -101l189 -2l-12 -47h-189q-10 -41 -14 -51q-36 -137 -127 -457q-34 -123 -115 -436q-15 -56 -30 -102t-38.5 -102.5t-48.5 -100.5
t-60.5 -87.5t-75.5 -72t-92.5 -46.5t-111.5 -18q-95 0 -150.5 47.5t-70.5 104.5q-11 42 12 76.5t62 34.5q25 0 49 -15q28 -16 41 -54t14.5 -71.5t17 -57t50.5 -17.5q43 8 84.5 51.5t76 114.5t64 149.5t56 174t45 169.5t37 154t26.5 110q50 176 121 451q4 10 14 51h-121
l15 49h121q20 65 41 116t57 106t80 93.5t109.5 69.5t146.5 43q52 8 108 2v2q32 -1 83 -2.5t94 -2.5t85 -1q-187 -665 -315 -1184q32 73 59 130.5t70 143.5t80.5 151t86 136.5t91.5 117.5t91.5 76t92.5 30q100 0 139.5 -69.5t14.5 -205.5q-10 -59 -113.5 -383t-95.5 -374
q8 -21 21 -21q25 3 61 66.5t51 105.5l23 -14q-39 -124 -99 -185t-122 -61q-57 2 -88 50t-9 134q28 101 98.5 307t98.5 314q36 140 36 204.5t-40 65.5q-50 2 -116.5 -65t-128.5 -164.5t-133.5 -234t-121 -243.5t-100.5 -225z" />
    <glyph glyph-name="fb" unicode="fb" horiz-adv-x="1499" 
d="M895 295q-30 -129 -6 -195.5t112 -66.5q66 0 130.5 38.5t113.5 97t92 133t70.5 142t44.5 127.5q25 89 38 177.5t11.5 168.5t-30 129.5t-82.5 49.5q-47 0 -97 -35.5t-92 -91t-85 -133t-75 -150t-63.5 -154.5t-49 -135t-32.5 -102zM565 -10l6 39q21 0 45.5 8.5t36.5 21.5
q23 28 48 101t54.5 183.5t30.5 115.5q170 611 222 850v2q23 98 -0.5 148t-83.5 50q-56 0 -103.5 -27.5t-78.5 -66.5t-58 -97.5t-41 -102.5t-29 -101l189 -2l-12 -47h-189q-10 -41 -14 -51q-36 -137 -127 -457q-34 -123 -115 -436q-15 -56 -30 -102t-38.5 -102.5
t-48.5 -100.5t-60.5 -87.5t-75.5 -72t-92.5 -46.5t-111.5 -18q-95 0 -150.5 47.5t-70.5 104.5q-11 42 12 76.5t62 34.5q25 0 49 -15q28 -16 41 -54t14.5 -71.5t17 -57t50.5 -17.5q43 8 84.5 51.5t76 114.5t64 149.5t56 174t45 169.5t37 154t26.5 110q50 176 121 451
q4 10 14 51h-121l15 49h121q20 65 41 116t57 106t80 93.5t109.5 69.5t146.5 43q39 6 110 2v2q16 0 102.5 -3t141.5 -3l-156 -563q-10 -35 -30.5 -105.5t-30.5 -105.5q35 74 73.5 136t88.5 120.5t110 92t123 32.5q100 0 163.5 -79t73.5 -207.5t-32 -291.5q-25 -87 -64.5 -169
t-96.5 -158t-125 -133t-154 -91t-178 -34q-103 0 -164 51q-66 -1 -157.5 -21.5t-119.5 -23.5z" />
    <glyph glyph-name=".notdef" horiz-adv-x="1024" 
 />
    <glyph glyph-name="uni0000" horiz-adv-x="0" 
 />
    <glyph glyph-name="uni0000" horiz-adv-x="0" 
 />
    <glyph glyph-name="uni000D" unicode="&#xd;" horiz-adv-x="512" 
 />
    <glyph glyph-name="space" unicode=" " horiz-adv-x="342" 
 />
    <glyph glyph-name="exclam" unicode="!" horiz-adv-x="542" 
d="M717 1559q48 0 64.5 -31t2.5 -82q-49 -171 -193.5 -538.5t-199.5 -547.5h-41q48 179 117 548t117 538q14 50 50 81.5t83 31.5zM309 178q44 0 66 -28.5t10 -69.5q-12 -44 -50 -72t-83 -28q-47 0 -68.5 28.5t-9.5 71.5q12 41 50.5 69.5t84.5 28.5z" />
    <glyph glyph-name="quotedbl" unicode="&#x22;" horiz-adv-x="600" 
d="M596 1499q39 0 48.5 -33t-3.5 -67q-23 -83 -78.5 -183t-75.5 -147h-26q5 50 5 109.5t5 108t23 112.5q10 39 37.5 69.5t64.5 30.5zM860 1495q26 0 39 -16t12 -38t-6 -46q-24 -82 -79 -181.5t-76 -148.5h-25q4 48 3.5 109.5t5 108.5t24.5 112q10 39 36.5 69t65.5 31z" />
    <glyph glyph-name="numbersign" unicode="#" horiz-adv-x="1228" 
d="M459 414h403l125 409h-405zM127 371l4 43h211l123 409h-295l2 43h305l127 418h117l-125 -418h403l129 430h119l-129 -430h228l-3 -43h-237l-123 -409h322l-5 -43h-329l-131 -432h-119l129 432h-404l-133 -445h-118l135 445h-203z" />
    <glyph glyph-name="dollar" unicode="$" horiz-adv-x="952" 
d="M709 696l-189 -653q105 22 189.5 109.5t121.5 212.5q28 101 -6 178t-116 153zM729 999l145 508q-94 -14 -168 -76t-98 -153q-23 -85 10 -149t111 -130zM889 1556l41 146h67l-43 -146q56 -4 98.5 -19.5t82 -40t53.5 -30.5l35 66l47 2l-64 -249q-63 -249 -63 -255h-41
q32 244 -9 358.5t-151 120.5l-160 -555q4 -3 12 -10q110 -91 155 -147q121 -151 73 -352q-1 -4 -2 -7q-30 -121 -108.5 -219t-183.5 -155.5t-222 -73.5l-49 -170h-68l49 164q-185 0 -286 98l-41 -72h-45q0 6 70.5 267t70.5 262l47 2q-62 -231 -1 -365t200 -139l202 706
q-107 91 -143 131q-110 123 -92 265q3 25 10 51q30 111 106 194t166.5 124t186.5 48z" />
    <glyph glyph-name="percent" unicode="%" horiz-adv-x="1499" 
d="M897 311q21 74 58 142.5t90 128t126.5 95.5t155.5 36q81 0 133.5 -36.5t70.5 -96.5t16 -128t-23 -141t-57.5 -140.5t-88.5 -126t-125 -93.5t-155 -35q-81 0 -134 35t-72 93.5t-17.5 126t22.5 140.5zM1038 311q-14 -50 -22 -103t-8.5 -114t25 -100t77.5 -39q169 0 270 356
q12 42 21.5 82.5t14.5 95.5t-0.5 94.5t-30 68t-68.5 28.5q-49 0 -95 -36t-81 -95.5t-60 -117.5t-43 -120zM188 -84q678 745 1475 1624h88q-119 -130 -769 -847.5t-703 -776.5h-91zM401 1126q21 74 58.5 143.5t90.5 128.5t126 94.5t155 35.5q81 0 133.5 -36t70.5 -96t16 -128
t-23 -142q-21 -73 -57.5 -140t-88.5 -125t-124.5 -93t-153.5 -35q-82 0 -135 35t-72.5 93t-18 125.5t22.5 139.5zM543 1126q-11 -38 -19 -79t-11.5 -92t3.5 -90t31.5 -66t66.5 -27q51 0 96.5 33t78.5 89.5t55 111.5t41 120q12 43 21 83.5t14.5 95.5t-0.5 94.5t-30.5 67.5
t-68.5 28q-49 0 -95 -36t-81 -95t-59.5 -117.5t-42.5 -120.5z" />
    <glyph glyph-name="ampersand" unicode="&#x26;" horiz-adv-x="1671" 
d="M680 809q-142 -77 -219.5 -166t-112.5 -203q-29 -87 -20.5 -165.5t44 -138t105.5 -95t164 -35.5q179 0 352 90q-102 113 -191.5 326t-121.5 387zM836 922q210 117 293 350q3 7 4 10q14 41 21.5 78.5t6 73t-20.5 56.5t-55 21q-122 0 -198 -172q-80 -184 -51 -417z
M1026 680q-33 75 11 163.5t137 121.5q95 32 212 32q122 0 181 9q49 7 95.5 23t95 46.5t86 71.5t64.5 102t34 135q8 101 -64 101q-40 0 -100 -35q-20 -10 -37 -10q-46 0 -65 43t18 104q45 70 121 70q59 0 103.5 -47.5t55.5 -147.5q12 -34 6 -83.5t-19.5 -103.5t-48.5 -112.5
t-79.5 -110t-112 -96.5t-147.5 -71q-5 -1 -14.5 -4t-14.5 -4q21 -45 22.5 -107t-16.5 -123q-36 -136 -134.5 -265t-237.5 -228q109 -109 233 -109q85 0 149.5 37.5t122.5 110.5l23 -7q-157 -233 -410 -233q-152 0 -270 108q-211 -108 -424 -108q-257 -1 -377 133t-49 332
q48 138 165 242.5t331 191.5q-39 256 47 432q60 122 158 193t227 71q113 0 163 -72.5t15 -193.5q-32 -112 -146.5 -218.5t-293.5 -189.5q27 -165 112 -362t187 -319q199 164 262 415q21 86 2 158.5t-70 103.5q-101 9 -141 2q-159 -23 -137 -167q1 -6 -7 -12.5t-16 -9.5z" />
    <glyph glyph-name="quotesingle" unicode="'" horiz-adv-x="323" 
d="M590 1499q39 0 48.5 -33t-3.5 -67q-23 -83 -78.5 -183t-75.5 -147h-26q5 51 5 110t4.5 107.5t22.5 112.5q10 38 38 69t65 31z" />
    <glyph glyph-name="parenleft" unicode="(" horiz-adv-x="561" 
d="M444 -109l-36 -24q-148 142 -193.5 374.5t27.5 491.5q69 242 251 475t412 385l21 -22q-184 -160 -319.5 -379.5t-205.5 -462.5q-71 -238 -62 -459t105 -379z" />
    <glyph glyph-name="parenright" unicode=")" horiz-adv-x="561" 
d="M4 -109q185 158 319 376t203 462q13 44 17 66q56 221 42.5 426.5t-100.5 349.5l35 22q34 -34 94 -123q194 -315 74 -737q-40 -142 -121.5 -290.5t-183.5 -264.5q-200 -222 -358 -309z" />
    <glyph glyph-name="asterisk" unicode="*" horiz-adv-x="864" 
d="M735 1143q-13 -8 -100 -63.5t-131 -78.5q-16 -8 -21 -8q-28 -9 -41 23q-4 8 -4 14q-7 23 2 37q9 18 39 31q3 1 9.5 3t9.5 3l219 78l-185 90h-4q-20 11 -20 31q0 15 18 36q7 7 9 11q31 36 61 24q4 0 16 -8q18 -15 148 -139q27 208 31 231q6 30 23.5 40.5t49.5 10.5h10
q25 0 33 -13t-2 -38q-34 -83 -102 -231q2 1 95.5 58.5t137.5 82.5q3 1 9.5 4t9.5 4q33 9 45 -26q2 -4 2 -15q2 -6 2 -18q-3 -32 -47 -45l-238 -90l176 -78q3 -1 8.5 -3t8.5 -3q20 -11 20 -31q0 -16 -18 -37q-2 -2 -6.5 -7t-6.5 -7q-29 -32 -53 -23q-6 0 -18 8q-23 19 -49 44
t-57.5 55.5t-43.5 42.5q-1 -8 -12 -96.5t-18 -133.5q-7 -31 -25 -42t-51 -11h-10q-48 3 -31 53q18 43 54.5 123.5t47.5 106.5z" />
    <glyph glyph-name="plus" unicode="+" horiz-adv-x="1191" 
d="M754 381l-105 -2l88 305h-309l29 104h311l84 299h104l-86 -296h316l-31 -105h-313z" />
    <glyph glyph-name="comma" unicode="," horiz-adv-x="479" 
d="M266 -10q-46 9 -63.5 44.5t2.5 86.5q18 48 53.5 71.5t73.5 18.5q44 -6 60.5 -48t4.5 -91q-24 -93 -100 -164.5t-178 -106.5l-8 35q69 34 110.5 75t44.5 79z" />
    <glyph glyph-name="hyphen" unicode="-" horiz-adv-x="661" 
d="M643 516h-436l35 123h436z" />
    <glyph glyph-name="period" unicode="." horiz-adv-x="403" 
d="M223 -4q-43 0 -63.5 30t-9.5 72t48 71.5t81 29.5q42 0 64 -29.5t13 -71.5q-12 -41 -51 -71.5t-82 -30.5z" />
    <glyph glyph-name="slash" unicode="/" horiz-adv-x="1026" 
d="M395 -160h-102l934 1852h100z" />
    <glyph glyph-name="zero" unicode="0" horiz-adv-x="1054" 
d="M1055 778q209 731 -90 731q-302 0 -510 -729q-216 -760 82 -760q83 0 160 59t141 166t117 238.5t100 294.5zM977 1554q147 0 228.5 -80.5t94 -253t-66.5 -442.5q-113 -392 -300.5 -598.5t-408.5 -206.5q-146 0 -227 90t-89.5 268.5t68.5 446.5q112 391 294 583.5
t407 192.5z" />
    <glyph glyph-name="one" unicode="1" horiz-adv-x="475" 
d="M418 1436l8 34q27 2 146.5 36t205.5 34l-313 -1081q-102 -342 -86 -402q5 -23 70 -28l-9 -29h-372l8 29q67 5 86 28q51 59 145 402q264 885 246 977q-5 12 -25 12q-12 0 -54 -8t-56 -4z" />
    <glyph glyph-name="two" unicode="2" horiz-adv-x="1067" 
d="M979 0h-938l18 39q52 46 163.5 136.5t209.5 169.5t218 189t210 208t162 211.5t96 213.5q18 85 10 155t-55 115.5t-125 45.5q-123 1 -234.5 -81.5t-183.5 -209.5l-43 4q72 148 215.5 253t317.5 105q166 0 252.5 -106t42.5 -266q-28 -102 -100 -209t-159.5 -194.5
t-204.5 -183.5t-214.5 -165.5t-212 -152t-176.5 -132.5h610q44 0 75.5 9.5t54 33t33.5 41.5t29 54q3 7 5 10h28z" />
    <glyph glyph-name="three" unicode="3" horiz-adv-x="987" 
d="M578 750l-9 34q79 52 139.5 99.5t122.5 108.5t106 132t67 148q28 94 -1 151t-114 58q-99 1 -207.5 -79t-185.5 -196l-43 6q75 137 222.5 239.5t280.5 102.5q119 0 188.5 -70.5t35.5 -199.5q-30 -113 -127.5 -209t-214.5 -157q167 0 240 -111.5t20 -298.5
q-37 -126 -120 -232t-185 -172.5t-213 -99.5t-207 -24q-64 5 -115.5 26.5t-82.5 52.5t-51 69t-21.5 76t6.5 75q9 31 38 56t60 25q24 0 35 -23.5t11 -59t6 -78t17.5 -79t49 -63t98.5 -30.5q107 -6 208 53t172 158.5t103 218.5q16 60 19.5 122.5t-8 120t-48.5 94t-96 37.5h-4
q-28 0 -63 -13t-61 -27.5t-68 -40.5z" />
    <glyph glyph-name="four" unicode="4" horiz-adv-x="1048" 
d="M1014 1364l-719 -719l512 4q43 156 207 715zM604 57q12 14 26.5 44t31 76t30.5 86t32 99.5t27 89.5t24 84t16 56h-586l10 39l909 911h93l-256 -897h247l-14 -53h-250q0 -2 -25.5 -88.5t-38.5 -133t-32 -122t-25.5 -123t-1.5 -68.5q5 -23 70 -28l-8 -29h-373l8 29
q68 5 86 28z" />
    <glyph glyph-name="five" unicode="5" horiz-adv-x="978" 
d="M227 369q25 -3 34 -29t5.5 -63.5t-1.5 -80.5t11 -80t45 -62.5t99 -26.5q156 0 292 123t191 317q21 75 24.5 145.5t-11.5 132t-59.5 99t-115.5 37.5q-147 0 -383 -150l-24 35l313 725q32 2 133 -4t158 -6q65 0 118 6t106 21.5t93 46t62 75.5h37l-88 -297h-631l-223 -516
q201 111 354 111q197 2 287 -110t30 -318q-28 -98 -81.5 -183.5t-121.5 -147t-146.5 -106t-159 -66.5t-156.5 -22q-75 0 -140 23.5t-112 75t-57 123.5q-11 86 32.5 133t85.5 39z" />
    <glyph glyph-name="six" unicode="6" horiz-adv-x="1015" 
d="M367 477q-20 -129 -15.5 -229t47.5 -160.5t121 -60.5q76 0 146.5 42t122 110.5t88.5 138.5t61 143q25 73 34.5 147t1 142t-50.5 110.5t-114 42.5q-74 0 -148.5 -41t-131.5 -105t-99.5 -137.5t-62.5 -142.5zM496 -23q-93 0 -157.5 31.5t-97 89t-46 131.5t-4 166
t30.5 184.5t54 194.5q32 101 81 203.5t121 208.5t154 186.5t188 132t216 51.5q150 0 227.5 -77t43.5 -183q-19 -56 -59 -85t-74 -21q-22 7 -29 34t-1.5 62t6.5 74.5t-4.5 72.5t-35.5 54.5t-84 21.5q-82 0 -166 -62t-149.5 -152t-125.5 -203.5t-97.5 -205.5t-61.5 -169
q80 108 197.5 176t244.5 68q96 0 161 -43t91.5 -113.5t23 -159.5t-37.5 -184q-74 -207 -241.5 -345t-368.5 -139z" />
    <glyph glyph-name="seven" unicode="7" horiz-adv-x="854" 
d="M397 1231l92 307l787 2l-57 -158q-695 -649 -760 -1101q-7 -36 -12.5 -97.5t-16.5 -101.5q-11 -42 -45 -74.5t-84 -27.5q-76 8 -59 102q25 128 100.5 281.5t173 294t215.5 282.5t221.5 250t196.5 192q-45 0 -136 4.5t-132 4.5h-37.5h-45.5t-47.5 -1.5t-52.5 -4
t-50.5 -8.5t-52 -14t-46.5 -20t-45 -27.5t-36 -37t-30 -47.5h-41z" />
    <glyph glyph-name="eight" unicode="8" horiz-adv-x="985" 
d="M627 739q-113 -55 -192 -145.5t-109 -190.5q-23 -75 -24.5 -143t19 -121t67.5 -84.5t116 -31.5q127 0 230 89t134 226q9 38 9.5 72t-6 63t-18 54.5t-29.5 48.5t-38 42.5t-44.5 39t-48.5 36t-51 35.5q-10 7 -15 10zM1065 1196q18 59 23 111.5t-5.5 100t-48.5 75.5t-102 28
q-125 0 -213 -78.5t-127 -203.5q-10 -34 -10 -65.5t6 -56.5t24 -51.5t34 -45t46 -43t50.5 -39.5t56.5 -40q13 -9 20 -14q180 118 246 322zM858 848q37 -27 65 -50.5t57 -55t47 -65t30 -73t11.5 -87.5t-13.5 -101q-33 -132 -118 -231.5t-203.5 -152t-254.5 -52.5
q-198 0 -287.5 108.5t-31.5 288.5q80 250 430 387q-34 24 -59.5 45t-51.5 48.5t-41.5 57t-25.5 65.5t-8 79t16 92q50 171 196.5 287t321.5 116q103 0 178.5 -43.5t105 -122.5t-0.5 -190q-62 -213 -363 -350z" />
    <glyph glyph-name="nine" unicode="9" horiz-adv-x="1028" 
d="M1092 1032q19 101 20.5 185t-15 149.5t-56.5 102t-101 36.5t-118.5 -29t-101.5 -74t-83.5 -104.5t-65.5 -115t-45 -111.5q-25 -73 -34.5 -147t-1 -142t50.5 -110.5t114 -42.5q73 0 145.5 38t128.5 98t98.5 129.5t64.5 137.5zM969 1552q93 0 157.5 -31.5t97 -89
t45.5 -130.5t3.5 -165.5t-30 -184.5t-54.5 -195t-82 -205t-119.5 -208t-153 -186t-187.5 -131t-218 -51q-150 0 -227 77.5t-43 183.5q19 57 58.5 85.5t72.5 18.5q23 -7 30 -34t1.5 -62t-6 -75t4.5 -72.5t35 -54.5t84 -22q59 0 119.5 32.5t112 86t102 125t90.5 145.5t76 152
t60 140t40 114q-83 -109 -198.5 -176.5t-243.5 -67.5q-96 0 -161 42.5t-92 113t-23.5 160t38.5 184.5q74 206 242 343.5t369 137.5z" />
    <glyph glyph-name="colon" unicode=":" horiz-adv-x="405" 
d="M457 889q45 0 67.5 -30t10.5 -73q-12 -41 -51 -69.5t-85 -28.5t-68.5 28.5t-11.5 69.5q12 43 52 73t86 30zM319 414q46 0 69 -29t11 -70q-12 -44 -51.5 -72t-85.5 -28q-47 0 -68.5 28.5t-9.5 71.5q12 42 51 70.5t84 28.5z" />
    <glyph glyph-name="semicolon" unicode=";" horiz-adv-x="462" 
d="M254 -14q-58 1 -77 38.5t3 81.5q21 52 67.5 81t88.5 24q42 -6 56 -44t-7 -101q-33 -93 -108.5 -162.5t-174.5 -102.5l-6 33q70 34 112 74t46 78zM428 580q45 0 67.5 -32t10.5 -77q-15 -49 -55 -80t-86 -31q-47 0 -68.5 31.5t-9.5 79.5q14 45 54.5 77t86.5 32z" />
    <glyph glyph-name="less" unicode="&#x3c;" horiz-adv-x="1089" 
d="M1065 338l-29 -98l-708 364l20 76l918 362l-27 -96l-780 -303z" />
    <glyph glyph-name="equal" unicode="=" horiz-adv-x="1075" 
d="M403 813l29 98h729l-28 -98h-730zM358 653h729l-28 -96h-729z" />
    <glyph glyph-name="greater" unicode="&#x3e;" horiz-adv-x="1089" 
d="M1108 604l-918 -364l29 98l780 305l-606 303l27 96l708 -362z" />
    <glyph glyph-name="question" unicode="?" horiz-adv-x="774" 
d="M399 287l21 69q25 87 78 170.5t115.5 153.5t125.5 142t120.5 164.5t88.5 193.5q10 33 16 64t9.5 69t-3.5 69t-23 58.5t-50 44t-82 18.5h-10q-29 0 -57.5 -4.5t-61 -15t-58 -33t-36.5 -53.5q-8 -32 -5 -45.5t11 -40.5t8 -51q1 -46 -35 -77t-84 -28q-35 2 -54 23.5t-19 51
t8 60.5q25 86 97.5 147.5t158 88t174.5 26.5h8q174 -3 250 -111.5t31 -266.5q-20 -71 -64 -139.5t-98.5 -124t-117 -110t-124 -107.5t-115.5 -106t-95.5 -115.5t-59.5 -127.5l-16 -57h-52zM401 178q44 0 66.5 -28.5t11.5 -69.5q-13 -44 -51.5 -72t-83.5 -28t-66.5 28.5
t-9.5 71.5q10 41 49 69.5t84 28.5z" />
    <glyph glyph-name="at" unicode="@" horiz-adv-x="1826" 
d="M903 227h6q41 0 86.5 28.5t83.5 73t67.5 89t49.5 86.5q37 76 78 205t57 190q32 107 13 145.5t-101 38.5q-68 0 -126 -34.5t-102.5 -99t-76.5 -131t-64 -156.5q-29 -81 -46 -152.5t-20.5 -136.5t20.5 -104.5t75 -41.5zM1534 1016l-174 -494q-53 -157 -63 -210
q-21 -143 79 -146q66 0 131.5 51t114 125t93 170t71 171.5t45.5 143.5q105 372 -10.5 565t-415.5 191q-151 -1 -288.5 -51.5t-246 -137t-200 -206t-156.5 -254t-108 -283.5q-28 -99 -44 -195t-18 -192t11 -180.5t47.5 -158t88 -126t135 -83t185.5 -31.5q231 -2 474.5 122.5
t381.5 317.5l51 -2q-101 -151 -255.5 -264t-327.5 -171t-342 -57q-157 1 -276.5 56.5t-189 152.5t-101.5 226t-22 279t58 310q46 157 121.5 300t182.5 267.5t234.5 215.5t287.5 143.5t333 52.5q171 0 298 -50t207 -153.5t91 -262.5t-51 -377q-28 -98 -68.5 -189.5t-99 -181
t-126.5 -154.5t-156 -102.5t-183 -32.5q-108 4 -148.5 63.5t-25.5 172.5q-143 -188 -305 -191q-98 -1 -153 60.5t-56.5 170t51.5 255.5q44 117 109 207.5t139.5 145t152.5 82t156 27.5q74 0 141.5 -13.5t108.5 -39t31 -55.5z" />
    <glyph glyph-name="A" unicode="A" 
d="M543 643h334q12 564 12 649q-137 -248 -346 -649zM874 592h-358q-48 -88 -70 -133q-182 -340 -182 -404q0 -12 30.5 -19t57.5 -7l-8 -29h-303l8 29q65 0 88 26q19 17 45 54t59 94t52.5 91.5t53.5 99.5l34 65l561 1081h121l-35 -1081q-16 -337 19 -404q14 -26 73 -26
l-8 -29h-369l9 29q23 0 45.5 7t29.5 19q35 63 43 404q1 18 2 64t2 69z" />
    <glyph glyph-name="B" unicode="B" horiz-adv-x="980" 
d="M539 786l-195 -700q-14 -51 31 -51h129q136 0 235 105.5t148 285.5q54 195 -12 279t-244 81h-92zM733 1464l-180 -639l61 2q77 2 141 28t104.5 62t73.5 89t49.5 93t31.5 89q14 46 19.5 86t-1 84t-29.5 75t-73 51.5t-125 20.5h-27q-32 0 -45 -41zM559 -2l-510 2l2 31
q71 0 92 26q35 41 79 174.5t67 227.5q272 936 252 1018q-9 39 -88 34l8 29h352q130 -1 217 -28.5t126.5 -74.5t49.5 -111.5t-14 -139.5q-17 -62 -49.5 -118t-83.5 -108t-128.5 -90.5t-172.5 -56.5q198 0 276.5 -108.5t32.5 -278.5q-55 -204 -194.5 -316t-313.5 -112z" />
    <glyph glyph-name="C" unicode="C" horiz-adv-x="993" 
d="M1094 477q-37 -80 -74.5 -146t-92 -135t-113 -116t-136 -77t-162.5 -30q-139 0 -222.5 91.5t-98 270.5t58.5 443q106 386 295.5 581t413.5 195q164 0 251 -106l68 104h37l-127 -397h-37q3 181 -50 268.5t-155 85.5q-104 -1 -202.5 -100t-175 -259.5t-134.5 -371.5
q-44 -161 -62.5 -293.5t-9 -236t57 -161.5t131.5 -58q132 0 246.5 102t238.5 346h54z" />
    <glyph glyph-name="D" unicode="D" horiz-adv-x="1062" 
d="M743 1503l-409 -1464h88q98 1 186 43t155.5 111.5t126 166.5t99.5 199.5t72 218.5q33 119 47 223.5t6.5 197.5t-38.5 159.5t-94 105t-155 39.5h-84zM414 0h-377l6 31q27 0 60 7t44 19q51 63 144 402q270 929 248 1020q-9 37 -84 32l6 29h381q99 1 176.5 -24t126.5 -68
t80.5 -103.5t44 -127.5t11.5 -144t-12 -149t-30 -146q-25 -94 -60 -181t-85.5 -177.5t-117.5 -164t-148.5 -132t-187.5 -91t-226 -32.5z" />
    <glyph glyph-name="E" unicode="E" horiz-adv-x="950" 
d="M35 0l8 29q61 0 84 26q53 60 207 636q5 18 8 28t7 25.5t7 27.5q117 411 141 516q38 164 25 201q-7 22 -67 22l8 29h805q-15 -55 -41 -156.5t-35 -134.5l-33 -14q0 6 5.5 66.5t4.5 107.5t-14 57q-38 21 -358 25q-23 0 -43.5 -13t-28.5 -32q-71 -157 -203 -621
q274 7 320 25q24 10 55 63.5t58.5 117.5t33.5 73l29 -2q-38 -120 -168 -596l-27 -2q0 8 7 72.5t5.5 118t-20.5 63.5q-24 12 -94.5 16t-210.5 6q-58 -207 -103.5 -403.5t-56.5 -282.5q-3 -21 10 -34t37 -13q359 9 410 31q12 6 31 31.5t42.5 65.5t40.5 71t37.5 70t20.5 40
l25 -14q-5 -16 -55 -150.5t-66 -193.5l-580 2h-268z" />
    <glyph glyph-name="F" unicode="F" horiz-adv-x="894" 
d="M461 0h-428l10 29q59 0 82 26q19 21 46 90t56 165.5t52.5 180.5t47.5 174.5t29 106.5q10 35 24.5 86.5t25 89.5t25 89.5t24.5 88t22 84t19 77.5t15 69t10 57.5t4 44.5t-3 29q-10 26 -69 26l8 27h817q-2 -6 -78 -291l-29 -14q-1 10 3.5 67.5t3.5 105.5t-13 58
q-44 23 -368 27q-23 0 -44 -13t-30 -32q-69 -160 -201 -623q274 7 320 25q24 10 54 62t60.5 120.5t32.5 71.5l27 -2q-102 -348 -164 -596l-29 -2q0 8 7 72.5t5.5 118t-20.5 63.5q-17 8 -66 13t-97 6.5t-142 2.5q-26 -90 -61 -223t-71 -302.5t-26 -199.5q8 -24 117 -24z" />
    <glyph glyph-name="G" unicode="G" horiz-adv-x="1040" 
d="M530 -16q-103 3 -178 52t-117.5 143t-39.5 246t57 347q54 198 133.5 349.5t173.5 244t196 138.5t210 46q81 0 149.5 -28.5t112.5 -81.5l69 108h37l-149 -483h-39q23 142 1.5 239.5t-71.5 148t-117 50.5q-60 0 -118 -29.5t-103 -76t-88 -112.5t-74 -130.5t-60 -140
t-46 -130t-33 -110.5q-46 -162 -63.5 -292t-5.5 -233t67 -159t152 -55q98 0 164 55t96 133q0 1 25.5 90t43 157t31 145t4.5 100q-10 26 -67 26l8 27h369l-9 -27q-61 0 -84 -26q-36 -39 -90 -217l-88 -314q-68 -94 -193.5 -149t-265.5 -51z" />
    <glyph glyph-name="H" unicode="H" horiz-adv-x="1136" 
d="M1053 784h-539q-194 -662 -168 -729q9 -26 70 -26l-10 -29h-373l10 29q59 0 82 26q17 19 37.5 67t48 138.5t44.5 148.5t53.5 190t47.5 171q9 33 25 88.5t27 95.5t27 98.5t26.5 97t23.5 92t19 83.5t13.5 71t6 54.5t-3.5 34.5q-7 26 -65 26l6 29h373l-9 -27q-56 0 -84 -28
q-12 -14 -26 -41.5t-30.5 -74.5t-29.5 -86.5t-33 -109.5t-31 -109.5t-33 -121.5t-30 -111h539q39 139 57.5 207t48 183.5t39 179.5t2.5 86q-10 26 -69 26l8 27h373l-8 -27q-58 0 -84 -26q-18 -20 -40 -72t-49 -142t-45.5 -155.5t-51.5 -187.5t-44 -164q-10 -36 -24.5 -86.5
t-26 -90t-25.5 -88.5t-25 -88t-22 -82t-19 -77t-15 -67.5t-10 -58t-3 -44t4 -29.5q9 -26 70 -26l-10 -29h-373l8 29q58 0 84 26q22 24 53.5 106t73 227t57.5 203.5t52 192.5z" />
    <glyph glyph-name="I" unicode="I" horiz-adv-x="444" 
d="M33 0l10 29q59 0 82 26q17 19 37.5 67t48 138.5t44.5 148.5t53.5 190t47.5 171q9 33 25 88.5t27 95.5t27 98.5t26.5 97t23.5 92t19 83.5t13.5 71t6 54.5t-3.5 34.5q-7 26 -65 26l6 29h373l-9 -27q-58 0 -84 -26q-18 -20 -40 -72.5t-48.5 -140.5t-45.5 -156.5t-50.5 -187
t-44.5 -164.5q-10 -36 -24.5 -86.5t-26 -90t-25.5 -88.5t-25 -88t-22 -82t-19 -77t-15 -67.5t-10 -58t-3 -44t4 -29.5q9 -26 70 -26l-10 -29h-373z" />
    <glyph glyph-name="J" unicode="J" horiz-adv-x="528" 
d="M-86 -174l6 43q31 -10 70 -10q41 0 69 14q34 17 67 53t59.5 76t54.5 99.5t46 104t40 109.5t31.5 97t25 85t16.5 56q7 25 49.5 180t66 244t55 216t43.5 200t5 92q-9 26 -71 26l6 29h383l-8 -29q-63 0 -86 -26q-29 -31 -77.5 -197.5t-108 -395.5t-91.5 -325
q-11 -35 -29 -94.5t-30.5 -101.5t-32.5 -100.5t-37.5 -101t-43 -93t-51.5 -86t-60.5 -71t-72.5 -57t-85 -35t-100 -13.5q-50 0 -109 12z" />
    <glyph glyph-name="K" unicode="K" horiz-adv-x="1134" 
d="M406 0h-373l10 29q59 0 82 26q12 14 26.5 44t32 79.5t32.5 95t36 119t34.5 121t37 132.5t34.5 124q9 33 25 88.5t27 95.5t27 98.5t26.5 97t23.5 92t19 83.5t13.5 71t6 54.5t-3.5 34.5q-9 26 -67 26q1 2 4 14.5t4 14.5h371l-9 -27q-56 0 -84 -28q-20 -21 -48 -93.5
t-58.5 -174.5t-55 -190.5t-50.5 -186.5t-31 -117q-1 -4 -5 -16t-6 -19q322 345 609 680q21 26 35 48.5t23 47t-6 38t-54 11.5l8 27h342l-10 -27q-103 -7 -174 -71q-135 -128 -457 -486q108 -449 121 -516q72 -318 123 -385q20 -22 77 -26l-10 -29h-403l10 29q92 7 98 26
q17 57 -65 385q-4 18 -86 363q-53 -60 -127 -146t-92 -106q-125 -436 -105 -496q9 -26 70 -26q0 -2 -4 -14.5t-4 -14.5z" />
    <glyph glyph-name="L" unicode="L" horiz-adv-x="954" 
d="M303 0h-270l10 29q59 0 82 26q12 14 26.5 43.5t32 80t32 95.5t36 120t34.5 121.5t36.5 133t33.5 123.5q3 11 14.5 50.5t22 75t26 91.5t27.5 101.5t27 104t24 98.5t18 86.5t9 67t-2 40.5q-9 26 -69 26l8 27h377l-7 -29q-59 0 -83 -24q-64 -72 -218.5 -640t-179.5 -753
q-3 -21 10 -34t37 -13q361 9 422 33q17 9 53 67.5t74.5 130t42.5 78.5l23 -14q-12 -41 -60 -166.5t-63 -177.5z" />
    <glyph glyph-name="M" unicode="M" horiz-adv-x="1462" 
d="M526 1483q-9 26 -71 26l10 31h285l84 -1210l733 1210h295l-9 -31q-63 0 -86 -26q-19 -20 -42.5 -74t-51 -142.5t-49 -161.5t-53.5 -188.5t-47 -166.5q-12 -41 -28 -96t-28.5 -97.5t-28 -96t-26 -92t-22.5 -85.5t-18 -76.5t-12.5 -64.5t-5 -50t4.5 -33q9 -26 70 -26
l-9 -31h-379l9 31q63 0 86 26q17 19 37.5 64t49 133.5t44.5 142t54 185.5t48 168q10 37 38 131.5t45 154.5t38 139.5t34.5 138.5t18.5 99l-776 -1288l-90 -117l-94 1368l-172 -612q-16 -55 -50 -171.5t-53 -184t-40 -151t-27.5 -133t0.5 -69.5q9 -26 71 -26l-10 -31h-280
l8 31q63 0 86 26q13 14 28 43.5t33 79t33 94t36.5 118.5t35 121t37 132t34.5 123q114 390 132 460q55 214 40 255z" />
    <glyph glyph-name="N" unicode="N" horiz-adv-x="1116" 
d="M307 0h-274l10 29q59 0 82 26q17 19 37.5 67t48 138.5t44.5 148.5t53.5 190t47.5 171q7 25 44.5 158t52.5 189t38.5 151.5t29.5 145.5t-1 69q-10 28 -65 28l6 29h295l250 -1210l122 440q8 29 44.5 158t52.5 188t39 153t30 144.5t0 69.5q-10 28 -69 28l8 29h272l-8 -29
q-58 0 -82 -28q-18 -20 -39.5 -69.5t-50.5 -144.5t-45 -150.5t-52.5 -190.5t-43.5 -162l-211 -766h-82l-305 1405l-174 -639q-114 -403 -120 -427q-62 -238 -46 -284q9 -26 69 -26z" />
    <glyph glyph-name="O" unicode="O" horiz-adv-x="1079" 
d="M532 -27q-143 0 -230 90t-105 268.5t55 446.5q108 385 301 580.5t416 195.5q85 0 151.5 -28t113.5 -89t67 -151t10 -219.5t-54 -288.5q-55 -195 -137.5 -350.5t-178.5 -253.5t-200 -149.5t-209 -51.5zM434 778q-45 -162 -64.5 -296t-12.5 -241t53.5 -167t132.5 -60
q85 0 164.5 60.5t146.5 168t121.5 241t99.5 294.5q45 162 63.5 292t10 232t-56.5 158t-134 56t-165 -56.5t-144 -159.5t-118 -232.5t-97 -289.5z" />
    <glyph glyph-name="P" unicode="P" horiz-adv-x="913" 
d="M731 1462l-207 -733l99 2q132 2 236.5 109t156.5 297q53 198 -1.5 284t-197.5 84l-33 -2q-40 0 -53 -41zM477 0h-430l8 31q73 3 90 26q9 9 18.5 23.5t19.5 37t18 43t19.5 55.5t19.5 60.5t21 71.5t20.5 74.5t22.5 83.5t24 86q224 814 209 885q-8 37 -86 34l6 29h370
q240 -2 334 -101.5t39 -308.5q-52 -201 -199 -317t-348 -119l-139 -2l-31 -108q-12 -43 -30.5 -108.5t-29 -102.5t-24 -87t-20 -80t-11.5 -62t-4.5 -53t5.5 -34q8 -20 116 -26z" />
    <glyph glyph-name="Q" unicode="Q" horiz-adv-x="1081" 
d="M432 778q-45 -163 -64.5 -295.5t-12.5 -239.5t55 -166t135 -59q69 0 135 40t121.5 108.5t106.5 166t92 207.5t77 238q45 162 63 291t9 230.5t-57 156.5t-134 55q-87 0 -166 -56t-144.5 -158t-118.5 -231t-97 -288zM532 -27q-143 0 -230 90t-105 268.5t55 446.5
q55 196 135.5 347t175 243.5t197 139t209.5 46.5q85 0 151.5 -28t113.5 -89t67 -151t10 -219.5t-54 -288.5q-55 -195 -137.5 -350.5t-178.5 -253.5t-200 -149.5t-209 -51.5zM813 -195q-29 -20 -78 -20q-41 0 -152 23.5t-177 23.5q-86 0 -157.5 -26t-137.5 -99l92 146
q84 102 241 102q67 0 181 -21.5t149 -21.5q56 0 76 29q14 23 0 61l27 8q8 -32 8.5 -68t-18.5 -75.5t-54 -61.5z" />
    <glyph glyph-name="R" unicode="R" horiz-adv-x="1073" 
d="M731 1464l-178 -639l90 2q79 1 143 28t100.5 57.5t70.5 90t43.5 85.5t28.5 84q4 10 5 14q12 40 17 78.5t-1.5 83.5t-28 78t-70.5 55.5t-122 23.5h-47q-38 0 -51 -41zM602 791l-63 -3q-6 -22 -32 -114t-48.5 -177t-47 -182t-36.5 -167t-6 -93q9 -26 69 -26l-10 -29h-373
l8 31q63 0 82 24q54 67 144 404q4 14 83 294t127 480t38 246q-9 36 -86 32l6 29h381q87 -1 155.5 -15t113 -38.5t73.5 -57t40.5 -72.5t10.5 -82t-14 -89q-43 -155 -150.5 -247t-280.5 -134q66 -1 110 -33.5t63 -84t27.5 -117t5 -133t-5.5 -132.5t-3 -116t11.5 -82t39.5 -31
q14 0 30 9t23 15.5t23 22.5l12 -27q-38 -39 -97 -73.5t-112 -34.5q-38 0 -67 20q-26 19 -34.5 69t-5 114t9 138.5t1.5 148t-22 137.5t-66.5 111t-126.5 65z" />
    <glyph glyph-name="S" unicode="S" horiz-adv-x="854" 
d="M68 4q1 3 34 130t65 253t32 131l43 2q-45 -173 -31.5 -282t64 -159t133.5 -50q132 0 236 84.5t134 234.5q12 59 7 113t-23.5 96t-46 82.5t-60.5 73.5t-67.5 68.5t-67 68t-59 72t-43 79.5t-19 92t12.5 109q24 91 75 163t116 113.5t134 63t137 21.5q63 0 108 -14.5t85 -40
t55 -31.5l35 63l43 2q-1 -5 -59.5 -252t-59.5 -252h-37q24 173 12 278.5t-52 152t-115 51.5q-112 8 -207.5 -69.5t-112.5 -201.5q-10 -54 -0.5 -103t33.5 -87.5t57.5 -77.5t71.5 -73.5t75 -75t68 -81.5t51 -94.5t24 -113t-13 -137.5q-24 -102 -79.5 -185t-128.5 -135
t-157 -79.5t-170 -26.5q-75 0 -140.5 23.5t-106.5 64.5l-41 -64h-45z" />
    <glyph glyph-name="T" unicode="T" horiz-adv-x="956" 
d="M295 0l8 31q62 0 82 26q13 14 27.5 43t32.5 81t31.5 92.5t36 120t33.5 119.5t36.5 134t33.5 123q5 17 38.5 135t46.5 166.5t36.5 138t34.5 145.5t14 93q2 21 -12 33.5t-37 11.5q-97 -1 -127 -5.5t-67 -19.5q-18 -10 -44 -52t-53 -94.5t-32 -61.5l-25 14q4 13 35.5 110.5
t48.5 155.5h877q-15 -53 -35.5 -140.5t-30.5 -125.5l-29 -14q0 8 2.5 61.5t-0.5 95t-16 51.5q-26 14 -59.5 19t-126.5 6q-23 1 -45 -12t-33 -33q-17 -37 -37.5 -95t-44 -139.5t-40.5 -143.5t-43.5 -163t-37.5 -141q-13 -44 -39 -137q-37 -126 -55 -192.5t-42 -160t-31 -146
t1 -73.5q9 -26 68 -26l-6 -31h-375z" />
    <glyph glyph-name="U" unicode="U" horiz-adv-x="1110" 
d="M559 -25q-260 2 -298 205q-24 130 44 395q0 1 53 195q6 23 44.5 157.5t53 190.5t38.5 152t30.5 146t-0.5 69q-9 26 -67 26l6 29h383l-8 -29q-59 0 -82 -26q-19 -20 -41.5 -73t-48.5 -138t-46.5 -158.5t-50.5 -184t-45 -165.5q-5 -18 -16 -57q-21 -72 -31 -111t-28 -111
t-22 -115.5t-8 -103.5t7.5 -96t31.5 -71.5t58.5 -52t91.5 -17.5q50 0 93.5 11.5t80 30.5t69.5 53t59 69.5t52 88.5t46 101t42 117.5t39 127.5t39 140q9 33 25 88.5t27 95.5t27 98.5t26.5 97t23.5 92t19 83.5t13.5 71t6 54.5t-3.5 34.5q-9 26 -67 26l8 29h276l-8 -29
q-58 0 -84 -26q-18 -20 -40 -73t-48 -138.5t-46.5 -158t-51 -184.5t-45.5 -165l-18 -66q-27 -98 -42 -149.5t-47 -142t-60.5 -140.5t-76 -114.5t-99.5 -98t-125 -57.5t-159 -23z" />
    <glyph glyph-name="V" unicode="V" horiz-adv-x="1142" 
d="M522 1485q-12 26 -73 26l8 29h372l-8 -29q-22 0 -45.5 -7.5t-30.5 -18.5q-10 -19 -18 -57.5t-12 -91.5t-6.5 -93.5t-4 -95.5t-2.5 -66q-1 -23 -6 -202t-9 -340.5t-5 -286.5q149 265 442 829q5 10 34.5 66t50 97t46.5 94.5t40 92t14 56.5q-3 24 -66 24l10 29h277l-6 -29
q-66 0 -90 -24q-69 -64 -244 -406l-563 -1081h-123v2q6 180 18.5 539.5t18.5 539.5q16 337 -19 404z" />
    <glyph glyph-name="W" unicode="W" horiz-adv-x="1746" 
d="M518 1487q-14 26 -69 26l8 27h358l-10 -27q-20 0 -41.5 -7t-28.5 -19q-11 -22 -18.5 -80.5t-10 -112t-4 -126t-2.5 -87.5q-8 -661 -6 -835q161 290 434 803l7 155q0 227 -25 281q-14 26 -70 26l11 29h407l-6 -29q-53 0 -92.5 -29t-48.5 -79q-6 -35 -10 -86.5t-5.5 -88
t-2.5 -87.5t-1 -60q-12 -487 -10 -839q110 194 457 839q186 347 188 406q1 13 -15.5 19.5t-39.5 6.5l8 27h256l-8 -27q-58 0 -84 -26q-71 -68 -244 -406l-577 -1081h-117l20 928l-495 -928h-117l25 1081q8 343 -21 406z" />
    <glyph glyph-name="X" unicode="X" horiz-adv-x="1136" 
d="M870 872l2 -8q2 -17 7.5 -50.5t7.5 -47.5q6 -37 26.5 -169.5t30 -189t26.5 -147t32 -138t30 -67.5q20 -26 82 -26l-6 -29h-373l6 29q58 0 72 26q8 33 7 83t-13.5 146t-26 184t-31.5 197l-4.5 25.5t-3.5 22t-4 24.5q-292 -413 -363 -525q-81 -126 -83 -157
q-1 -15 15.5 -20.5t41.5 -5.5l-8 -29h-279l7 29q61 0 96 26q26 20 67.5 68t106.5 136.5t107.5 148t132 188t118.5 170.5q4 8 14.5 23.5t14.5 21.5l-6 31q-19 131 -30.5 203.5t-31 182t-37 172.5t-34.5 85q-20 26 -80 26l6 29h373l-6 -29q-60 0 -74 -26q-17 -35 -2.5 -160.5
t47.5 -335.5q2 -10 3 -16l2.5 -15t2.5 -16q343 476 348 543q1 15 -15.5 20.5t-39.5 5.5l6 29h281l-6 -29q-64 0 -97 -26q-28 -21 -77 -79.5t-125 -163t-124 -173t-139 -197.5z" />
    <glyph glyph-name="Y" unicode="Y" horiz-adv-x="1114" 
d="M838 696q-112 -390 -131 -477q-27 -123 -13 -162q7 -28 68 -28l-8 -29h-371l6 31q61 0 84 26q12 13 24.5 37.5t27 64t26.5 76t29 97t28.5 102.5t32 116.5t31.5 115.5q-5 37 -37 283t-55.5 375.5t-47.5 160.5q-18 26 -77 26l6 29h373l-7 -29q-59 0 -73 -26
q-19 -41 5.5 -263t63.5 -462q161 228 307.5 455.5t149.5 269.5q1 15 -17.5 20.5t-43.5 5.5l8 29h278l-6 -29q-63 0 -96 -26q-38 -29 -132.5 -160.5t-238 -344t-194.5 -284.5z" />
    <glyph glyph-name="Z" unicode="Z" horiz-adv-x="937" 
d="M883 0h-854l1099 1491q-456 -14 -493 -29q-18 -10 -53.5 -76t-70.5 -141t-42 -86l-25 15q83 264 111 366l608 -2v2h199l-1100 -1491q500 9 537 25q18 10 62 87t88 164.5t50 96.5l25 -14q-11 -39 -69 -197.5t-72 -210.5z" />
    <glyph glyph-name="bracketleft" unicode="[" horiz-adv-x="563" 
d="M567 1554h400l-13 -47h-237l-463 -1613h238l-15 -48h-399z" />
    <glyph glyph-name="backslash" unicode="\" horiz-adv-x="1191" 
d="M1004 -160l-508 1852h100l510 -1852h-102z" />
    <glyph glyph-name="bracketright" unicode="]" horiz-adv-x="563" 
d="M840 1554l-490 -1708h-399l12 48h238l463 1613h-238l14 47h400z" />
    <glyph glyph-name="asciicircum" unicode="^" horiz-adv-x="1163" 
d="M635 1102l303 270h66l149 -270h-80l-119 215l-237 -215h-82z" />
    <glyph glyph-name="underscore" unicode="_" horiz-adv-x="1052" 
d="M918 -143h-857l23 77h856z" />
    <glyph glyph-name="grave" unicode="`" horiz-adv-x="557" 
d="M475 1268l-20 -19l-238 148q-43 27 -50 67.5t21 67.5q21 24 54 24q38 0 71 -47z" />
    <glyph glyph-name="a" unicode="a" horiz-adv-x="1019" 
d="M940 852v2q44 164 14 211q-26 47 -120 47q-69 0 -131.5 -33.5t-109.5 -85.5t-89.5 -125t-71 -142t-53.5 -148q-41 -124 -62 -239.5t-7.5 -204t73.5 -93.5h6q199 0 551 811zM346 -14q-90 5 -140 89t-48.5 215t49.5 294q81 258 246.5 412.5t373.5 154.5q215 0 322 -100
l-94 -332q-10 -38 -46.5 -161.5t-52.5 -186.5q-62 -210 -55 -267q5 -22 23 -22q25 0 65 72.5t45 99.5l23 -12q-34 -125 -95 -184.5t-122 -61.5q-69 0 -96.5 55t-0.5 144l119 401q-28 -64 -52.5 -117t-59.5 -119.5t-68 -117.5t-74 -102t-81 -84t-87 -52.5t-94 -17.5z" />
    <glyph glyph-name="b" unicode="b" horiz-adv-x="966" 
d="M362 295q-30 -129 -5.5 -195.5t112.5 -66.5q66 0 130.5 38.5t114 97t92.5 133t71 141.5t45 128q24 90 36.5 178t10.5 168t-30.5 129.5t-82.5 49.5q-47 0 -97 -35.5t-92 -91t-85 -133t-75 -150t-63.5 -154.5t-49 -135t-32.5 -102zM33 -10l6 39q21 0 45.5 8.5t36.5 21.5
q14 18 30.5 56t32.5 90t27.5 93t25.5 95.5t17 65.5q253 896 244 991q-5 14 -25 14q-7 0 -39 -5.5t-45 -0.5l23 31q32 3 139 27t160 24l-158 -563q-10 -35 -29.5 -105.5t-29.5 -105.5q34 74 72.5 136t88 120.5t110 92t124.5 32.5q99 0 162.5 -79t73.5 -207.5t-33 -291.5
q-30 -109 -85.5 -210.5t-132.5 -186.5t-181 -136.5t-218 -51.5q-106 0 -164 51q-67 -1 -159 -21.5t-119 -23.5z" />
    <glyph glyph-name="c" unicode="c" horiz-adv-x="831" 
d="M1016 989q8 -63 -27 -102t-78 -39q-24 0 -34 10q-28 18 -38.5 51.5t-9.5 65.5t-0.5 62.5t-19 49t-57.5 17.5q-64 -1 -126 -57t-110 -142.5t-81.5 -170t-55.5 -161.5q-23 -87 -30 -176.5t4 -170.5t54 -132t113 -51q108 0 216.5 97.5t154.5 207.5l37 -6q-58 -149 -197 -261
t-289 -112q-96 0 -160.5 51t-90.5 136.5t-23 192.5t35 224q44 160 127 290.5t197.5 209t236.5 76.5q107 -2 174.5 -44t77.5 -116z" />
    <glyph glyph-name="d" unicode="d" horiz-adv-x="1038" 
d="M954 868l7 23q29 218 -132 221q-74 1 -146.5 -49t-129 -131t-100 -169.5t-72.5 -178.5q-40 -121 -59 -243.5t-2 -214t79 -91.5q52 1 147 116t205 307.5t203 409.5zM1051 254l22 -12q-33 -122 -94.5 -184t-124.5 -62q-58 0 -88.5 48.5t-9.5 127.5l129 451
q-54 -114 -111.5 -216t-128.5 -204t-145 -161.5t-138 -57.5q-89 4 -143 90.5t-56 219.5t46 296q50 158 137.5 285t203 202.5t236.5 75.5q156 0 220 -102q90 341 81 399q-5 16 -26 16q-6 0 -36.5 -5.5t-43.5 -0.5l20 27q33 3 138 28t157 25q-236 -827 -323 -1169
q-66 -223 -53 -275q6 -14 18 -14q27 0 67.5 72t45.5 100z" />
    <glyph glyph-name="e" unicode="e" horiz-adv-x="868" 
d="M872 944q6 20 2 47.5t-13 52.5t-36 42.5t-67 17.5q-45 0 -88.5 -23.5t-79 -65t-65.5 -87t-55.5 -103t-41.5 -98.5t-31 -86l281 78q80 21 131.5 82.5t62.5 142.5zM383 598q-4 -12 -4 -16q-30 -101 -35.5 -193t12 -161.5t61 -110.5t107.5 -41q59 0 122 31.5t116.5 81.5
t96 103.5t73.5 106.5l37 -6q-39 -80 -91 -150.5t-118 -130.5t-148.5 -95t-169.5 -35q-184 0 -248 166t11 434q69 255 222.5 413t334.5 158q76 0 136 -25.5t93.5 -65.5t44 -90t-5 -97.5t-61.5 -90.5t-117 -67q-38 -13 -72 -23.5t-70.5 -20.5t-61 -16.5t-66 -15.5t-60.5 -13.5
t-69.5 -15t-69.5 -14.5z" />
    <glyph glyph-name="f" unicode="f" horiz-adv-x="581" 
d="M332 1116h125q146 428 440 428q88 0 146 -43t63 -108q3 -41 -20 -72t-62 -31q-23 0 -43 10q-37 15 -48.5 50t-6 67.5t-1.5 58t-36 25.5q-40 0 -75.5 -19t-63 -53t-49.5 -72t-39 -85.5t-28 -82.5t-20 -73l191 -2l-14 -49h-189q-2 -8 -6 -25.5t-6 -25.5q-36 -137 -127 -457
q-20 -75 -58 -218t-59 -218q-15 -56 -30 -102t-38.5 -102.5t-48.5 -100.5t-60.5 -87.5t-75.5 -72t-92.5 -46.5t-111.5 -18q-94 0 -149 47.5t-70 104.5q-12 41 10 76t62 35q25 0 49 -15q24 -13 36.5 -41t16.5 -56t9 -54t20 -40t43 -9q50 9 98.5 69t84 141t71 193t57 200
t45.5 187.5t33 132.5q23 85 64.5 241t56.5 210q1 6 6.5 24.5t7.5 28.5h-121z" />
    <glyph glyph-name="g" unicode="g" horiz-adv-x="964" 
d="M430 748q-23 -96 -17.5 -175.5t50 -130.5t117.5 -51q110 0 207 105.5t139 251.5q24 100 19 182.5t-48.5 136t-116.5 53.5q-109 0 -209 -110.5t-141 -261.5zM1069 1024q78 -119 35 -276q-29 -108 -109.5 -198.5t-193.5 -142.5t-232 -51q-23 0 -84 9q-96 -10 -157.5 -38.5
t-73.5 -66.5q-9 -27 12 -40t66 -13q36 1 165.5 13.5t198.5 12.5q96 0 158 -37t68 -118q6 -88 -34 -175t-112 -154.5t-178 -109.5t-225 -42h-25q-180 5 -264 98t-31 250q1 1 5 6t9 9.5t11.5 10.5t15.5 10.5t19 6.5q42 5 80 -18.5t32 -51.5q-46 -145 -8 -212t170 -68
q92 -1 174 29.5t133 80t74.5 113.5t-0.5 131q-22 71 -186 71q-50 0 -142.5 -8t-120.5 -8h-14q-88 5 -129.5 47t-13.5 125q22 65 86.5 112t150.5 60q-99 44 -140.5 138t-8.5 219q48 173 203.5 292t337.5 119q161 0 253 -102q37 42 43 51q7 10 11 21.5t3.5 25.5t-2 25.5
t-8 29.5t-10.5 29t-13 33t-13 33q7 33 48 54t79 21q43 0 49 -37q10 -53 -12 -120t-66 -121q-41 -48 -84 -78z" />
    <glyph glyph-name="h" unicode="h" horiz-adv-x="1046" 
d="M367 143q-15 -71 -33 -141h-166q347 1377 356 1448q-5 16 -28 16q-8 0 -37.5 -4.5t-40.5 -1.5l20 29q32 3 138 27t159 24q-187 -665 -315 -1184q32 73 59 130.5t70 143.5t80.5 151t86 136.5t91.5 117.5t91.5 76t92.5 30q100 0 139.5 -69.5t14.5 -205.5
q-10 -59 -113.5 -383t-95.5 -374q8 -21 20 -21q25 3 62 66.5t51 105.5l23 -14q-39 -124 -99.5 -185t-122.5 -61q-56 2 -87 50t-9 134q28 101 98.5 307t98.5 314q36 140 36 204.5t-40 65.5q-50 2 -116.5 -65t-128.5 -164.5t-133.5 -234t-121 -243.5t-100.5 -225z" />
    <glyph glyph-name="i" unicode="i" horiz-adv-x="495" 
d="M528 240q-37 -125 -97.5 -184.5t-119.5 -59.5q-62 0 -90.5 50t-5.5 132q8 25 39 124.5t47 156.5q1 3 13.5 45.5t18 60t19 64.5t20.5 74t18.5 70.5t17.5 72.5t12.5 62t8.5 57.5t1 40.5q3 35 -10 32q-23 -5 -67 -77.5t-50 -98.5l-24 12q40 126 119 201.5t139 67.5
q118 -13 67 -180l-149 -504q-3 -11 -15 -50t-17.5 -58.5t-16 -55.5t-15.5 -58.5t-10.5 -49t-7.5 -45.5t0 -31q1 -14 8 -21.5t14 -7.5q25 0 66.5 73t46.5 99zM561 1266q-43 0 -64 30t-10 72t48 71t81 29q42 0 64.5 -29t13.5 -71q-12 -41 -51 -71.5t-82 -30.5z" />
    <glyph glyph-name="j" unicode="j" horiz-adv-x="499" 
d="M-43 -403q-66 -3 -121 24t-55 72q-2 36 45 77.5t86 34.5q17 -7 23 -34.5t7 -55t18.5 -50t55.5 -23.5q28 5 56.5 29.5t50.5 56t45.5 81t39 89t33.5 95t26 83t20 69.5l108 398q82 301 95 382q11 65 6 97q-5 16 -29 16q-8 0 -37 -5.5t-41 -0.5l19 35q34 3 141 27t158 24
l-234 -844q-66 -237 -111 -341q-114 -263 -299 -319q-50 -16 -106 -17zM643 1266q-44 0 -65 30t-9 72q11 42 47.5 71t81.5 29q43 0 66 -29.5t12 -70.5q-12 -41 -51 -71.5t-82 -30.5z" />
    <glyph glyph-name="k" unicode="k" horiz-adv-x="985" 
d="M459 616l-164 -618h-170q282 926 381 1438q0 30 -27 30q-11 0 -30 -3t-31 -3q-15 0 -19 2l19 29q38 3 143 26t158 23l-221 -780q38 57 72.5 103.5t86 104.5t100.5 97t110 66t120 28q67 0 110 -43.5t48 -114.5q4 -78 -26.5 -150.5t-80.5 -125t-117 -97.5t-129.5 -72.5
t-123.5 -45.5q8 -37 34.5 -106.5t62.5 -146t80 -132t79 -55.5q22 0 58.5 28t66.5 60l12 -33q-47 -62 -112 -98.5t-134 -30.5q-51 3 -96.5 40t-80.5 96.5t-62 118t-56.5 125.5t-48.5 99l21 39q146 6 275.5 101.5t178.5 234.5q13 34 21 66t11.5 70.5t-13.5 61.5t-54 23
q-49 -2 -103 -34.5t-97.5 -75t-95.5 -111.5t-82.5 -116t-73.5 -116v-2z" />
    <glyph glyph-name="l" unicode="l" horiz-adv-x="458" 
d="M496 246q-35 -124 -96.5 -185t-120.5 -61q-58 0 -89.5 41t-9.5 147q13 63 100.5 369.5t158.5 577t63 315.5q-5 16 -29 16q-7 0 -36.5 -4.5t-41.5 -1.5l19 29q32 3 139 27t160 24l-297 -1106q-5 -15 -13.5 -43t-13 -42.5t-11.5 -39t-11 -38t-9.5 -34t-8 -33t-5.5 -28.5
t-4 -26.5t-1 -21.5t1 -19q5 -21 20 -21q27 0 65.5 68t47.5 104z" />
    <glyph glyph-name="m" unicode="m" horiz-adv-x="1583" 
d="M379 117l-29 -115h-174l125 457q7 27 61 221q76 273 64 342q-2 12 -10 12q-21 0 -67 -73t-52 -99l-27 8q44 129 110 207t130 78q26 0 47 -12q24 -12 32 -46.5t-4 -109.5t-20.5 -116t-36.5 -153q-7 -28 -10 -42l-78 -307q142 311 224 452q186 323 321 320
q108 -1 145.5 -69t10.5 -206q-6 -41 -18 -85.5t-30.5 -103t-25.5 -83.5q-9 -38 -51 -170q33 70 60 126.5t67.5 134t75.5 137t77.5 122t80 103.5t77.5 67.5t74 26.5q107 0 145.5 -68t14.5 -207q-11 -60 -70.5 -236t-107 -329.5t-40.5 -191.5q5 -21 21 -21q25 3 59 63t54 109
l22 -14q-40 -125 -100 -185.5t-123 -60.5q-56 2 -87 50t-9 134q28 102 102 308t102 313q23 89 30 151.5t-1 93t-29 31.5q-42 1 -104 -67t-122 -164t-131.5 -232t-120.5 -238.5t-101 -217.5q-28 -91 -43 -162l-166 -2q23 78 112.5 361.5t131.5 441.5q23 88 31 151t0.5 95.5
t-29.5 33.5q-41 1 -93.5 -47.5t-108 -134t-109 -182.5t-108.5 -214.5t-94 -206t-77 -179.5z" />
    <glyph glyph-name="n" unicode="n" horiz-adv-x="1058" 
d="M356 84l-22 -84h-160l127 459q25 95 61 221q76 273 64 342q-3 14 -10 14q-20 0 -64 -69t-55 -105l-27 10q39 120 107.5 201.5t134.5 81.5q26 0 43 -10q34 -18 34 -94.5t-19.5 -164t-55.5 -210.5l-96 -357q132 289 197 410q221 409 384 412q39 1 71 -12t58.5 -45t32.5 -85
t-6 -133q-11 -58 -70 -238.5t-104 -334.5t-35 -189q8 -16 19 -16q27 0 65.5 68t48.5 104l21 -14q-34 -128 -103 -191t-135 -53q-52 8 -76.5 61t0.5 140q27 89 95.5 287t99.5 311q37 143 37 208.5t-45 65.5q-52 -2 -123.5 -79.5t-137 -185t-139 -254t-122 -254t-95.5 -218.5z
" />
    <glyph glyph-name="o" unicode="o" horiz-adv-x="915" 
d="M864 571q23 85 37.5 155.5t20 146.5t-6 128t-47.5 85.5t-96 33.5q-242 0 -391 -549q-19 -71 -32.5 -131t-23.5 -127.5t-7 -120t16.5 -96t46.5 -67t84 -23.5q242 0 399 565zM784 1161q122 0 197.5 -75t91 -206.5t-30.5 -308.5q-71 -260 -237.5 -434t-349.5 -174
q-122 0 -196.5 80.5t-87 216t31.5 311.5q71 259 232.5 424.5t348.5 165.5z" />
    <glyph glyph-name="p" unicode="p" horiz-adv-x="1021" 
d="M387 287q-24 -140 15 -203t145 -68q61 -1 125.5 48t118.5 128.5t97.5 168.5t72.5 178q29 91 45.5 182.5t17.5 175t-28 137.5t-87 58q-58 3 -145.5 -90t-164.5 -215.5t-136 -245.5q-26 -84 -76 -254zM332 -379v-24h-365v24q63 5 78 27q21 27 56.5 130.5t52.5 178.5
q8 35 67.5 248.5t75.5 281.5l27 99q28 103 42 155.5t31 124.5t22 111t-1 55q-3 12 -12 12q-20 0 -54 -56t-57 -116l-25 17q34 114 96.5 189t127.5 75q20 0 30 -4q95 -27 35 -266l-29 -115q33 55 61 97.5t74 99t89.5 94t100 64t112.5 26.5q72 0 122 -50.5t72 -134.5
t14.5 -198t-45.5 -236q-76 -243 -234.5 -400t-334.5 -157q-167 0 -231 113q-98 -351 -90 -426q4 -36 92 -39z" />
    <glyph glyph-name="q" unicode="q" horiz-adv-x="972" 
d="M856 565l4 10q40 138 72 244q32 138 11 211.5t-112 73.5q-67 0 -133 -39t-116 -99t-94 -136t-72 -144t-45 -129q-25 -90 -36.5 -178.5t-7 -168t36.5 -128.5t91 -49q53 0 108.5 43t98 102t84.5 139t65.5 136.5t44.5 111.5zM440 -18q-89 0 -152 46t-92.5 125t-28.5 185.5
t34 226.5q30 106 85.5 206.5t132.5 186t180.5 137.5t215.5 52q107 0 166 -53q67 2 162.5 23t120.5 24l-7 -39q-66 0 -86 -37q-64 -109 -223.5 -705.5t-161.5 -683.5q6 -14 27 -14q8 0 39.5 4.5t44.5 1.5l-16 -30q-32 -3 -139 -27.5t-160 -24.5l192 676q-42 -60 -75 -101
t-77.5 -86.5t-90.5 -69t-91 -23.5z" />
    <glyph glyph-name="r" unicode="r" horiz-adv-x="849" 
d="M391 213q-26 -112 -20 -162q3 -13 22.5 -19.5t42.5 -6.5l-6 -25h-354l6 25q60 0 80 26q9 11 20 32.5t20.5 45t21 58t19.5 60t19 64t16.5 57.5t14.5 52.5t10 38.5q97 343 115 437q17 91 10 128q-5 10 -16 10q-16 0 -56.5 -22.5t-44.5 -24.5l6 23q3 1 68 48.5t109 53.5
q99 13 129 -61l-164 -578q37 78 70 142t78.5 146.5t87.5 144.5t87.5 117.5t90 84.5t83.5 29q66 -2 100 -50t19 -133q-8 -40 -37.5 -73t-66.5 -33q-19 0 -39 10q-29 18 -36.5 49t-0.5 57t6.5 48.5t-14.5 23.5q-47 0 -142 -136.5t-190.5 -324.5t-163.5 -362z" />
    <glyph glyph-name="s" unicode="s" horiz-adv-x="774" 
d="M365 -37q-138 15 -211 118q-55 77 -45 152q9 66 63 80q12 9 29 9q22 0 43 -15q25 -13 31.5 -39.5t-2 -56t-13 -63.5t-2.5 -62t31 -50.5t86 -31.5q113 -16 183.5 34.5t92.5 137.5q12 49 5 95t-28.5 83t-52.5 75t-66.5 70.5t-70 70t-63 73t-45.5 79.5t-18 89.5t20 103.5
q42 110 147 174t234 64q41 0 79 -7t76 -22t65.5 -43.5t37.5 -68.5q14 -50 -8 -91.5t-64 -41.5q-15 0 -33 6q-30 12 -39 39t-6 57.5t2 60t-24.5 51t-75.5 25.5q-80 7 -151.5 -47.5t-96.5 -124.5q-16 -44 -7 -86.5t36 -77.5t64 -74t78 -75t77.5 -79.5t62.5 -88.5t33.5 -101.5
t-10.5 -119.5q-38 -133 -156 -208t-250 -75q-26 0 -38 2z" />
    <glyph glyph-name="t" unicode="t" horiz-adv-x="583" 
d="M621 248q-50 -130 -128 -193t-153 -63q-64 2 -94 48t-8 136q7 27 71.5 255t104.5 398t35 228q-8 6 -30.5 9t-42.5 3t-50 -1t-37 -1l12 49q29 0 66 6.5t85.5 24.5t92 45t83.5 73.5t62 104.5l37 2l-72 -256h183l-13 -49h-184l-143 -498q-79 -299 -88 -338
q-18 -69 -10.5 -102t36.5 -33q35 0 80.5 46.5t79.5 125.5z" />
    <glyph glyph-name="u" unicode="u" horiz-adv-x="1044" 
d="M1032 1071l23 76h159q-78 -258 -200 -674q-87 -288 -70 -348q2 -10 10 -10q19 0 68 75.5t53 96.5q9 0 25 -8q-42 -125 -111.5 -204t-132.5 -79q-16 0 -31 6q-108 32 37 473l99 346q-150 -327 -243 -484q-194 -326 -339 -327q-89 -2 -136 64t-16 213q12 57 70 232.5
t103 328.5t38 194q-6 15 -16 15q-26 0 -68 -70t-51 -100l-22 12q27 90 71 148.5t87 79t85 16.5q53 -6 75.5 -60t-1.5 -141q-21 -67 -90.5 -267t-104.5 -323q-21 -76 -31 -125t-11.5 -84t9 -50.5t33.5 -16.5q33 -1 72.5 27.5t83 84t86 119t89.5 151t85.5 161t82.5 167.5
t70.5 152.5t59.5 132.5z" />
    <glyph glyph-name="v" unicode="v" horiz-adv-x="890" 
d="M414 2q-31 -8 -64 -8q-66 0 -96.5 43.5t-20.5 124.5q10 67 72 276t108.5 386t30.5 212q-5 10 -26 -10.5t-48.5 -66t-47.5 -97.5l-27 10q22 93 100 191t146 98q34 0 57 -26q20 -23 22.5 -72.5t-10 -116t-33.5 -143t-47.5 -160.5t-50.5 -160.5t-44 -152t-27 -125.5
q-5 -39 -4.5 -66.5t9.5 -42t27 -14.5q19 0 49 18q82 39 174.5 138.5t166.5 220.5t116 257t27 238q0 8 -12 19.5t-26 22t-25 28.5t-9 37q6 44 40 68t79 24q35 0 60.5 -22t33.5 -54q13 -46 -6 -137t-61.5 -201t-110.5 -230t-146.5 -223t-178 -181t-197.5 -103z" />
    <glyph glyph-name="w" unicode="w" horiz-adv-x="1406" 
d="M1014 1116l172 2q-23 -110 -132.5 -465t-123.5 -446q-17 -129 51 -129q28 0 82 31q78 45 162 142t149 214t98 249t13 236q0 9 -12.5 20.5t-26.5 22t-25 28t-8 36.5q6 44 40 68t79 24q36 0 61 -22t33 -54q6 -32 3.5 -82.5t-21.5 -117t-44 -140t-65 -153t-84 -155.5
t-100.5 -147t-114.5 -127.5t-126.5 -97.5t-137.5 -57q-30 -6 -55 -6q-71 0 -104 45.5t-21 126.5q8 63 71 280q-33 -62 -63 -112t-79.5 -116t-97 -110.5t-110 -76t-125.5 -31.5q-68 0 -99.5 43t-19.5 125q9 68 71 275.5t109 384.5t31 212q-5 10 -26 -10.5t-48.5 -66
t-47.5 -97.5l-27 10q22 93 100 191t146 98q34 0 57 -26q21 -23 23 -72.5t-11 -116t-33.5 -142.5t-47 -160t-50.5 -160t-44.5 -151.5t-28.5 -125.5q-17 -129 38 -129q25 0 58 20q80 49 169 174.5t158 271t109 279.5q61 219 76 293z" />
    <glyph glyph-name="x" unicode="x" horiz-adv-x="874" 
d="M532 573q-52 406 -135 406q-40 0 -80 -90l-24 33q21 43 48.5 85.5t71 82.5t81.5 40q31 0 55 -24q41 -39 71 -123t42.5 -154.5t25.5 -173.5q24 26 63 66.5t58.5 61.5t45 52.5t36.5 53t18.5 48.5t5.5 54q-37 40 -11.5 89.5t83.5 49.5q36 0 63 -21t27 -56q0 -36 -17 -72
t-56 -79.5t-77.5 -80.5t-108.5 -102.5t-122 -118.5q4 -42 15.5 -108t30 -146.5t46.5 -137t58 -56.5q37 0 74 79l26 -28q-17 -33 -36.5 -64.5t-46 -66.5t-57 -56.5t-58.5 -21.5q-33 0 -62.5 31t-51 85.5t-38 110t-29 123.5t-18 104.5t-10.5 73.5q-42 -49 -108 -118.5
t-96.5 -103.5t-53.5 -80.5t-19 -88.5q25 -27 23 -58t-29.5 -56t-65.5 -25q-35 0 -62.5 22t-27.5 56q0 39 20 78t63 85t89 89t122 114.5t138 136.5z" />
    <glyph glyph-name="y" unicode="y" horiz-adv-x="913" 
d="M102 -399q-54 1 -81 48t-21 95t33 51q12 -3 63.5 -20t77.5 -19q79 -5 146.5 37.5t154.5 169.5q28 97 30 339t-30.5 454.5t-91.5 212.5q-35 0 -76 -84l-24 33q112 208 200 208q33 0 60 -30q40 -44 70 -178.5t42 -283.5t11.5 -284.5t-15.5 -187.5q37 50 58.5 79.5t65.5 92
t71 108.5t64 110t56.5 115t36 106t15 102t-18.5 83l-7.5 2.5t-15.5 8.5t-19.5 15t-14.5 22t-4 30q4 45 37.5 67.5t71.5 22.5q29 0 55.5 -17.5t34.5 -53.5q22 -71 -25.5 -210.5t-138.5 -299.5t-212.5 -329.5t-242.5 -306t-234 -223t-182 -85.5z" />
    <glyph glyph-name="z" unicode="z" horiz-adv-x="784" 
d="M1053 1157q-73 -133 -151.5 -242t-140 -178t-190 -210t-233.5 -263q55 10 113 -8q35 -12 101.5 -43t109.5 -45q24 -8 55 -8q53 0 92.5 36.5t60.5 102.5l17 -35q-29 -109 -106 -188.5t-169 -79.5q-28 0 -61 10q-33 12 -114.5 45t-125.5 47q-21 8 -49 8q-48 0 -91 -26.5
t-73 -67.5l-39 27q103 118 353.5 394t388.5 439q-37 3 -82 19q-39 14 -110 46.5t-107 45.5q-30 10 -53 10q-56 0 -99.5 -40.5t-58.5 -104.5l-21 31q30 117 104.5 196.5t166.5 79.5q31 0 65 -12q43 -14 120.5 -48t109.5 -46q25 -7 38 -7q85 0 138 121z" />
    <glyph glyph-name="braceleft" unicode="{" horiz-adv-x="724" 
d="M236 743q98 18 184.5 70t109.5 133q16 52 21 154.5t20 154.5q42 150 191.5 251.5t333.5 119.5l-9 -31q-105 -9 -196 -72t-119 -159q-16 -53 -24.5 -156.5t-24.5 -156.5q-33 -114 -149 -199t-252 -123q54 -20 97 -46.5t80 -67.5t46.5 -90.5t-4.5 -114.5q-15 -53 -65 -157
t-66 -157q-28 -96 26.5 -160t153.5 -73l-8 -29q-173 18 -265 119t-49 250q16 54 70.5 157t69.5 154q22 81 -36 133t-145 70z" />
    <glyph glyph-name="bar" unicode="|" horiz-adv-x="696" 
d="M817 1790h98l-596 -2073h-98z" />
    <glyph glyph-name="braceright" unicode="}" horiz-adv-x="724" 
d="M868 743l-8 -26q-59 -11 -116 -34.5t-110 -68t-69 -100.5q-14 -51 -18.5 -154t-20.5 -157q-43 -149 -192 -250t-332 -119l8 29q104 10 195.5 74t118.5 159q16 53 25 157t24 157q18 61 60 114t99 91.5t116.5 66t125.5 47.5q-52 18 -96.5 46.5t-79.5 70t-45.5 92.5t4.5 113
q15 53 65 156.5t66 156.5q27 96 -28 158.5t-154 72.5l8 31q174 -18 265 -119.5t48 -251.5q-15 -51 -68.5 -153.5t-68.5 -155.5q-10 -45 -0.5 -79t40 -59.5t65 -41t73.5 -23.5z" />
    <glyph glyph-name="asciitilde" unicode="~" horiz-adv-x="1191" 
d="M1155 770l31 -14q-49 -85 -136 -157.5t-167 -72.5q-44 0 -86 17.5t-68.5 39t-61 39t-65.5 17.5q-50 0 -105.5 -31t-88.5 -76l-29 13q44 82 134.5 154.5t172.5 72.5q43 0 82.5 -17.5t65.5 -39t61.5 -39t69.5 -17.5q45 0 101.5 31t88.5 80z" />
    <glyph glyph-name="uni007F" horiz-adv-x="520" 
 />
    <glyph glyph-name="exclamdown" unicode="&#xa1;" horiz-adv-x="542" 
d="M-174 -20q-48 0 -65 30.5t-3 79.5q48 171 193 539.5t199 548.5h40q-46 -176 -114 -546.5t-117 -541.5q-14 -48 -50.5 -79t-82.5 -31zM233 1360q-44 0 -66 28t-11 70q13 44 51.5 72.5t83.5 28.5q47 0 67.5 -29t8.5 -72q-10 -41 -49 -69.5t-85 -28.5z" />
    <glyph glyph-name="cent" unicode="&#xa2;" horiz-adv-x="970" 
d="M530 117l291 1011q-50 -9 -98.5 -48t-86.5 -91.5t-71.5 -118.5t-56 -124.5t-37.5 -112.5q-21 -70 -33.5 -147t-14 -158.5t25 -140t81.5 -70.5zM551 -55h-70l35 123q-105 9 -169.5 87t-74 200.5t32.5 279.5q65 226 215.5 375.5t313.5 163.5l38 135h70l-39 -135
q100 -10 160 -67.5t76 -141.5q8 -43 -40.5 -88.5t-90.5 -45.5q-10 0 -21 7q0 2 -0.5 43.5t-1.5 58t-7 55t-15.5 58.5t-28.5 41.5t-45 29.5l-287 -1005q30 8 61.5 29.5t53.5 42t50.5 59t40.5 56t36.5 58t25.5 42.5q13 8 31 8q41 0 61 -42t-12 -89q-62 -83 -161 -143t-201 -72
z" />
    <glyph glyph-name="sterling" unicode="&#xa3;" horiz-adv-x="960" 
d="M221 614l17 56h178q7 39 20 119.5t24 139.5t25 109q29 101 82 190.5t125 161t168.5 113t202.5 41.5q120 0 201 -52.5t61 -145.5q-9 -51 -56 -87t-100 -36q-41 0 -62.5 25.5t-19.5 66.5q-1 38 24 81.5t56 69.5q-57 31 -123 31q-54 0 -104.5 -30.5t-88.5 -76.5t-71 -106.5
t-54 -112t-36 -102.5q-12 -39 -47.5 -178t-62.5 -221h462l-14 -56h-469q-58 -150 -141 -265t-209 -189q61 6 123 6t185 -7t179 -7q70 0 123.5 8t103.5 28.5t85.5 61.5t54.5 102l49 8l-129 -360h-965l41 145q81 25 141.5 72t99.5 112t63 132t43 153h-185z" />
    <glyph glyph-name="section" unicode="&#xa7;" horiz-adv-x="929" 
d="M821 553q48 59 62 106q10 35 10 64.5t-9 52.5t-24 42.5t-37 36t-45.5 30t-52 27t-54 25t-54 26.5t-50.5 30q-49 -56 -63 -112q-13 -37 -8.5 -69t14 -55t32.5 -44t46 -36t55.5 -31.5t60.5 -29t60.5 -29.5t56.5 -34zM510 1044q-70 84 -31 216q29 102 104.5 174t167 103
t189.5 28q74 -2 160.5 -35.5t107.5 -36.5q11 -54 -15.5 -138.5t-51.5 -115.5q-20 -12 -39 -12q-21 0 -29 16q3 54 -3.5 100.5t-24 87.5t-54.5 64.5t-90 24.5h-8q-83 0 -155 -57.5t-95 -143.5q-14 -49 -5.5 -88.5t34.5 -65.5t62.5 -49t79 -40.5t84 -40.5t77 -47t58.5 -61.5
t28.5 -84t-12.5 -113.5q-42 -141 -166 -231q63 -76 26 -209q-29 -102 -105.5 -178.5t-170.5 -112.5t-191 -35q-64 0 -117.5 14.5t-120.5 47.5t-69 34q-16 31 4.5 124t61.5 155q15 12 35 12q23 0 32 -18q0 -41 -1 -84.5t11 -86t31.5 -76t60 -55t97.5 -22.5h4q99 0 171.5 57
t100.5 154q17 57 5 101.5t-44.5 72t-77 53t-93 45t-92 48.5t-74 64t-39.5 90.5t12 127.5q42 143 170 223z" />
    <glyph glyph-name="dieresis" unicode="&#xa8;" horiz-adv-x="770" 
d="M862 1401q12 39 42.5 63.5t68.5 24.5q39 0 55.5 -28t5.5 -66q-11 -37 -43.5 -63.5t-68.5 -26.5q-38 0 -54 28.5t-6 67.5zM551 1401q11 39 41.5 63.5t71.5 24.5q36 0 53 -28t6 -66q-10 -37 -44 -63.5t-69 -26.5h-2q-37 0 -52.5 29t-4.5 67z" />
    <glyph glyph-name="copyright" unicode="&#xa9;" horiz-adv-x="1708" 
d="M358 596q-47 -156 -35.5 -286.5t69 -225t169 -147t264.5 -52.5q203 0 382.5 91t306.5 251.5t186 368.5q47 155 35.5 285.5t-69 225t-169 147.5t-264.5 53q-306 0 -545 -198t-330 -513zM809 608q-16 -56 -25.5 -112t-10 -116t12 -105.5t46.5 -75t88 -29.5q23 0 46.5 6
t45.5 20.5t40.5 28.5t39.5 38.5t34 39.5t32 44t26.5 40.5t24 39t18.5 30.5q13 8 28 8q26 0 46 -20t22.5 -48.5t-20.5 -60.5q-68 -90 -177.5 -151.5t-220.5 -61.5q-178 0 -251 129t-7 358q33 115 90 204t128 144t150 83t163 28q117 0 185.5 -58t84.5 -149q7 -31 -19 -65
t-63 -53t-61 -13q-5 20 -5 31q-1 8 -2 29t-1.5 33t-3 34t-5.5 35.5t-8 33t-12 32t-17 26.5t-22.5 22t-29 13.5t-36.5 5.5q-66 1 -125.5 -39t-103 -106t-74 -133.5t-51.5 -139.5zM293 596q48 169 140.5 312.5t216 246.5t279.5 161t324 58q134 0 239.5 -37t174.5 -106.5
t105 -165t34 -215t-41 -254.5q-48 -170 -141 -313.5t-216.5 -246t-278.5 -160.5t-322 -58q-135 0 -240.5 37t-174.5 106t-105 164.5t-34.5 215t40.5 255.5z" />
    <glyph glyph-name="registered" unicode="&#xae;" horiz-adv-x="1214" 
d="M418 969q-62 -219 23.5 -355.5t297.5 -136.5q211 0 376.5 137t227.5 355q61 217 -25 354t-296 137q-212 0 -376.5 -137t-227.5 -354zM885 1268l-74 -256q52 1 80.5 5t59.5 17.5t50 43.5t33 79q5 25 6 43.5t-11 31t-24 20t-33.5 11.5t-39.5 5.5t-41 1.5q-4 0 -6 -2z
M758 639h-207l12 39q33 0 45 8q35 57 95 279.5t67 296.5q-5 8 -20 8h-31l12 43q14 0 51 1q55 6 124.5 1.5t130 -15t93.5 -49.5t15 -102q-36 -115 -168 -160q28 -15 41 -46t11.5 -65.5t-4 -70.5t-6 -61.5t4.5 -38.5q0 -2 2.5 -4.5t5.5 -2.5q12 0 39 27l25 -29
q-59 -59 -121 -59q-41 0 -54.5 26t-9 66t10 82.5t-5 82t-46.5 58.5q-6 5 -21 10t-22 5h-30l-23 -72q-2 -6 -8.5 -32t-13 -51.5t-13 -53.5t-9.5 -48t-1 -26q8 -8 41 -8zM344 969q71 249 262.5 406t435.5 157q243 0 343.5 -157t29.5 -406q-71 -251 -262 -408.5t-434 -157.5
q-244 0 -345 157.5t-30 408.5z" />
    <glyph glyph-name="macron" unicode="&#xaf;" horiz-adv-x="792" 
d="M524 1198h449q24 0 24 -5q1 -2 0 -5q-4 -14 -26 -45q-15 -21 -22 -25t-29 -4h-451q-5 0 -8 0.5t-5 2t-1 5.5l26 43l5 10t4.5 7.5t3.5 5.5t3.5 4.5t4 2.5t6 2t7 0.5t9.5 0.5z" />
    <glyph glyph-name="degree" unicode="&#xb0;" horiz-adv-x="872" 
d="M831 1374q-58 0 -107.5 -38t-66.5 -97q-17 -58 11 -95.5t86 -37.5q57 0 106 37.5t66 95.5t-10.5 96.5t-84.5 38.5zM854 1458q98 0 145 -62t19 -157q-28 -96 -109 -157.5t-180 -61.5q-100 0 -146 62t-18 159q28 95 108.5 156t180.5 61z" />
    <glyph glyph-name="acute" unicode="&#xb4;" horiz-adv-x="499" 
d="M496 1266l168 229q38 53 94 53q29 0 47 -18q17 -17 19 -45t-12.5 -56.5t-43.5 -44.5l-254 -135z" />
    <glyph glyph-name="periodcentered" unicode="&#xb7;" horiz-adv-x="772" 
d="M629 844q63 0 94 -42t12 -102q-17 -61 -71 -102t-117 -41q-64 0 -96 41.5t-15 101.5t73 102t120 42z" />
    <glyph glyph-name="cedilla" unicode="&#xb8;" horiz-adv-x="669" 
d="M299 20h57l-137 -143q36 4 68 4q21 0 39.5 -1t42 -4.5t40.5 -10t35.5 -17.5t25.5 -26t11.5 -36.5t-6.5 -49.5q-16 -58 -57 -99t-90 -59.5t-85.5 -25.5t-64.5 -7q-21 0 -47.5 4t-55.5 13t-46 27t-13 42q3 21 19.5 37.5t38.5 16.5q21 -1 31.5 -17.5t14 -36t21 -35.5
t49.5 -16q52 0 107 34.5t76 111.5q7 28 -4 49t-34.5 31.5t-48.5 15t-53 4.5q-19 0 -48 -3t-42 -3q-21 0 -14 20q1 6 18 23t17 18z" />
    <glyph glyph-name="questiondown" unicode="&#xbf;" horiz-adv-x="774" 
d="M375 1243l-21 -69q-25 -87 -79 -170.5t-116.5 -153t-125.5 -141.5t-120 -165t-87 -194q-10 -32 -16 -63t-9.5 -68.5t3.5 -69t23 -58.5t50 -43.5t82 -18.5h10q28 0 57 4.5t61 15t57.5 33t37.5 53.5q11 30 -2.5 71t-13.5 64q0 48 36 78.5t85 28.5q35 -2 53.5 -24
t18.5 -51.5t-7 -61.5q-25 -85 -98 -146.5t-160 -88t-176 -25.5t-155 31t-100.5 81t-44 119.5t14.5 146.5q20 71 63.5 139.5t98 124t117 110t124.5 107.5t115.5 106t95.5 115.5t60 127.5l15 55h53zM373 1354q-46 0 -68 28.5t-10 69.5q12 44 50.5 72t84.5 28q45 0 66.5 -28.5
t9.5 -71.5q-12 -41 -50.5 -69.5t-82.5 -28.5z" />
    <glyph glyph-name="Agrave" unicode="&#xc0;" 
d="M541 643h333q13 611 13 649q-137 -248 -346 -649zM872 592h-358q-48 -88 -70 -133q-182 -340 -182 -404q0 -12 30.5 -19t57.5 -7l-8 -29h-303l8 29q65 0 88 26q19 17 45 54t59 94t52.5 91.5t53.5 99.5l34 65l561 1081h121l-35 -1081q-16 -339 18 -404q14 -26 74 -26
l-8 -29h-369l9 29q23 0 45.5 7t29.5 19q35 63 43 404q1 18 2 64t2 69zM922 1929l161 -241l-20 -19l-238 148q-43 27 -49.5 67.5t21.5 67.5q21 24 53 24q39 0 72 -47z" />
    <glyph glyph-name="Aacute" unicode="&#xc1;" 
d="M541 643h333q13 611 13 649q-137 -248 -346 -649zM872 592h-358q-48 -88 -70 -133q-182 -340 -182 -404q0 -12 30.5 -19t57.5 -7l-8 -29h-303l8 29q65 0 88 26q19 17 45 54t59 94t52.5 91.5t53.5 99.5l34 65l561 1081h121l-35 -1081q-16 -339 18 -404q14 -26 74 -26
l-8 -29h-369l9 29q23 0 45.5 7t29.5 19q35 63 43 404q1 18 2 64t2 69zM991 1632l-18 17l168 229q38 53 94 53q29 0 47 -18q17 -17 19 -45t-12.5 -56.5t-43.5 -44.5z" />
    <glyph glyph-name="Acircumflex" unicode="&#xc2;" 
d="M541 643h333q13 611 13 649q-137 -248 -346 -649zM872 592h-358q-48 -88 -70 -133q-182 -340 -182 -404q0 -12 30.5 -19t57.5 -7l-8 -29h-303l8 29q65 0 88 26q19 17 45 54t59 94t52.5 91.5t53.5 99.5l34 65l561 1081h121l-35 -1081q-16 -339 18 -404q14 -26 74 -26
l-8 -29h-369l9 29q23 0 45.5 7t29.5 19q35 63 43 404q1 18 2 64t2 69zM1063 1901h39q20 0 28 -5t17 -18l135 -211q15 -19 10 -30t-22 -11q-22 0 -41 19l-170 151l-264 -154q-27 -18 -52 -18q-21 0 -19 12t26 31l258 211q30 23 55 23z" />
    <glyph glyph-name="Atilde" unicode="&#xc3;" 
d="M541 643h333q13 611 13 649q-137 -248 -346 -649zM872 592h-358q-48 -88 -70 -133q-182 -340 -182 -404q0 -12 30.5 -19t57.5 -7l-8 -29h-303l8 29q65 0 88 26q19 17 45 54t59 94t52.5 91.5t53.5 99.5l34 65l561 1081h121l-35 -1081q-16 -339 18 -404q14 -26 74 -26
l-8 -29h-369l9 29q23 0 45.5 7t29.5 19q35 63 43 404q1 18 2 64t2 69zM1151 1624q-31 0 -60 15.5t-51.5 37.5t-43.5 44t-45.5 37.5t-49.5 15.5q-40 -3 -76.5 -35t-85.5 -99l-22 23q38 78 114.5 142t139.5 65q31 0 60 -15.5t52 -38t44.5 -44.5t45.5 -37.5t46 -14.5q24 0 46 9
t41.5 28t30.5 31t27.5 36t17.5 25l23 -20q-26 -78 -107 -141.5t-147 -63.5z" />
    <glyph glyph-name="Adieresis" unicode="&#xc4;" 
d="M543 643h334q12 564 12 649q-137 -248 -346 -649zM874 592h-358q-48 -88 -70 -133q-182 -340 -182 -404q0 -12 30.5 -19t57.5 -7l-8 -29h-303l8 29q65 0 88 26q19 17 45 54t59 94t52.5 91.5t53.5 99.5l34 65l561 1081h121l-35 -1081q-16 -337 19 -404q14 -26 73 -26
l-8 -29h-369l9 29q23 0 45.5 7t29.5 19q35 63 43 404q1 18 2 64t2 69zM834 1776q11 39 41 63.5t71 24.5q36 0 53.5 -28.5t6.5 -66.5q-10 -37 -44 -63.5t-69 -26.5h-2q-37 0 -52.5 29.5t-4.5 67.5zM1145 1776q12 39 42 63.5t68 24.5q39 0 56 -28.5t6 -66.5q-11 -37 -44 -63.5
t-69 -26.5q-38 0 -53.5 29t-5.5 68z" />
    <glyph glyph-name="Aring" unicode="&#xc5;" 
d="M541 643h333q13 611 13 649q-137 -248 -346 -649zM1057 1716h2q31 0 58.5 22.5t35.5 53.5q9 32 -6.5 53t-46.5 21t-58.5 -21t-37.5 -53q-8 -31 7.5 -53.5t45.5 -22.5zM872 592h-358q-48 -88 -70 -133q-182 -340 -182 -404q0 -12 30.5 -19t57.5 -7l-8 -29h-303l8 29
q65 0 88 26q19 17 45 54t59 94t52.5 91.5t53.5 99.5l34 65l561 1081h121l-35 -1081q-16 -339 18 -404q14 -26 74 -26l-8 -29h-369l9 29q23 0 45.5 7t29.5 19q35 63 43 404q1 18 2 64t2 69zM1038 1647h-2q-60 0 -89.5 42t-12.5 103q17 60 71.5 102.5t114.5 42.5
q61 0 91.5 -42.5t13.5 -102.5q-19 -61 -73 -103t-114 -42z" />
    <glyph glyph-name="AE" unicode="&#xc6;" horiz-adv-x="1691" 
d="M1223 1350q-160 -205 -529 -701h336q2 14 10 37q4 14 12.5 43t12.5 43q11 40 53.5 186.5t66.5 235t38 156.5zM1229 776l-92 -303q-69 -275 -80 -373q-3 -23 10 -35t39 -12q383 9 422 25q15 7 44.5 48t55 83t54.5 92t32 55l29 -14q-12 -39 -63 -165.5t-66 -178.5l-588 2
l-313 -2l12 33q80 6 98 26q10 11 21 32.5t21 44.5t22.5 57t21 59.5t20.5 63.5t17.5 56.5t15.5 52t11 38.5q32 105 39 127h-363q-22 -29 -53 -71.5t-41 -55.5q-6 -9 -91.5 -117.5t-139 -183.5t-60.5 -103q-5 -21 62 -26l-7 -31h-299l7 31q70 5 102 26q56 41 167 173t185 231
l756 1018q0 1 -1 3t-1 3q-8 21 -70 26l9 29h839q-15 -53 -39.5 -154.5t-34.5 -138.5l-36 -14q0 5 1 67t-3 108t-17 56q-7 4 -22 7t-39.5 5t-46.5 3.5t-60 2.5t-62.5 1.5t-69.5 1.5t-68 2q-55 0 -76 -47q-30 -66 -54 -135l-141 -476q268 7 316 25q27 10 58.5 64t59.5 118.5
t33 73.5l33 -4q-106 -344 -174 -604l-33 -4q0 9 8.5 73.5t7.5 118.5t-22 64q-45 18 -303 22z" />
    <glyph glyph-name="Ccedilla" unicode="&#xc7;" horiz-adv-x="993" 
d="M346 -121l98 101q-116 23 -181 120t-72 267.5t61 410.5q106 386 295.5 581t413.5 195q164 0 251 -106l68 104h37l-127 -397h-37q3 181 -50 268.5t-155 85.5q-104 -1 -202.5 -100t-175 -259.5t-134.5 -371.5q-44 -161 -62.5 -293.5t-9 -236t57 -161.5t131.5 -58
q132 0 246.5 102t238.5 346h54q-39 -85 -77 -152.5t-93 -135.5t-115 -113.5t-140 -74t-171 -28.5l-95 -98q36 4 68 4q21 0 39.5 -1t42 -4.5t40.5 -10t35.5 -17.5t25.5 -26t11.5 -36.5t-6.5 -49.5q-16 -58 -57 -99t-90 -59.5t-85.5 -25.5t-64.5 -7q-21 0 -47 4t-55 13t-46 27
t-13 42q3 22 19 38t38 16q21 -1 31.5 -17.5t14.5 -36t21.5 -35.5t49.5 -16q52 0 106.5 34.5t75.5 111.5q7 28 -3.5 49t-34 31.5t-48.5 15t-53 4.5q-18 0 -48 -3t-42 -3q-22 0 -15 20q1 6 18 23t17 18z" />
    <glyph glyph-name="Egrave" unicode="&#xc8;" horiz-adv-x="958" 
d="M33 0l8 29q61 0 84 26q53 60 207 636q5 18 8 28t7 25.5t7 27.5q117 411 141 516q38 164 25 201q-7 22 -67 22l8 29h805q-15 -55 -41 -156.5t-35 -134.5l-33 -14q0 6 5.5 66.5t4.5 107.5t-14 57q-38 21 -358 25q-23 0 -43.5 -13t-28.5 -32q-71 -157 -203 -621
q274 7 320 25q24 10 55 63.5t58.5 117.5t33.5 73l29 -2q-38 -120 -168 -596l-27 -2q0 8 7 72.5t5.5 118t-20.5 63.5q-24 12 -94.5 16t-210.5 6q-58 -207 -103.5 -403.5t-56.5 -282.5q-3 -21 10 -34t37 -13q359 9 410 31q12 6 31 31.5t42.5 65.5t40.5 71t37.5 70t20.5 40
l24 -14q-4 -13 -54 -149t-66 -195l-580 2h-268zM1083 1663l-20 -18l-238 147q-43 27 -49.5 67.5t21.5 67.5q22 25 53 25q39 0 72 -47z" />
    <glyph glyph-name="Eacute" unicode="&#xc9;" horiz-adv-x="958" 
d="M33 0l8 29q61 0 84 26q53 60 207 636q5 18 8 28t7 25.5t7 27.5q117 411 141 516q38 164 25 201q-7 22 -67 22l8 29h805q-15 -55 -41 -156.5t-35 -134.5l-33 -14q0 6 5.5 66.5t4.5 107.5t-14 57q-38 21 -358 25q-23 0 -43.5 -13t-28.5 -32q-71 -157 -203 -621
q274 7 320 25q24 10 55 63.5t58.5 117.5t33.5 73l29 -2q-38 -120 -168 -596l-27 -2q0 8 7 72.5t5.5 118t-20.5 63.5q-24 12 -94.5 16t-210.5 6q-58 -207 -103.5 -403.5t-56.5 -282.5q-3 -21 10 -34t37 -13q359 9 410 31q12 6 31 31.5t42.5 65.5t40.5 71t37.5 70t20.5 40
l24 -14q-4 -13 -54 -149t-66 -195l-580 2h-268zM866 1651l168 229q38 53 94 53q30 0 48 -18q17 -17 19 -45t-12.5 -56.5t-43.5 -44.5l-254 -135z" />
    <glyph glyph-name="Ecircumflex" unicode="&#xca;" horiz-adv-x="958" 
d="M33 0l8 29q61 0 84 26q53 60 207 636q5 18 8 28t7 25.5t7 27.5q117 411 141 516q38 164 25 201q-7 22 -67 22l8 29h805q-15 -55 -41 -156.5t-35 -134.5l-33 -14q0 6 5.5 66.5t4.5 107.5t-14 57q-38 21 -358 25q-23 0 -43.5 -13t-28.5 -32q-71 -157 -203 -621
q274 7 320 25q24 10 55 63.5t58.5 117.5t33.5 73l29 -2q-38 -120 -168 -596l-27 -2q0 8 7 72.5t5.5 118t-20.5 63.5q-24 12 -94.5 16t-210.5 6q-58 -207 -103.5 -403.5t-56.5 -282.5q-3 -21 10 -34t37 -13q359 9 410 31q12 6 31 31.5t42.5 65.5t40.5 71t37.5 70t20.5 40
l24 -14q-4 -13 -54 -149t-66 -195l-580 2h-268zM1022 1946h39q20 0 28 -5t17 -18l135 -211q15 -19 10 -30t-22 -11q-22 0 -41 19l-170 151l-264 -153q-29 -19 -52 -19q-21 0 -19 12t26 31l258 211q30 23 55 23z" />
    <glyph glyph-name="Edieresis" unicode="&#xcb;" horiz-adv-x="958" 
d="M33 0l8 29q61 0 84 26q53 60 207 636q5 18 8 28t7 25.5t7 27.5q117 411 141 516q38 164 25 201q-7 22 -67 22l8 29h805q-15 -55 -41 -156.5t-35 -134.5l-33 -14q0 6 5.5 66.5t4.5 107.5t-14 57q-38 21 -358 25q-23 0 -43.5 -13t-28.5 -32q-71 -157 -203 -621
q274 7 320 25q24 10 55 63.5t58.5 117.5t33.5 73l29 -2q-38 -120 -168 -596l-27 -2q0 8 7 72.5t5.5 118t-20.5 63.5q-24 12 -94.5 16t-210.5 6q-58 -207 -103.5 -403.5t-56.5 -282.5q-3 -21 10 -34t37 -13q359 9 410 31q12 6 31 31.5t42.5 65.5t40.5 71t37.5 70t20.5 40
l24 -14q-4 -13 -54 -149t-66 -195l-580 2h-268zM1055 1774q12 39 42 63.5t68 24.5q39 0 56 -28.5t6 -66.5q-11 -37 -44 -63.5t-69 -26.5q-38 0 -53.5 29t-5.5 68zM743 1774q11 39 41.5 63.5t71.5 24.5q36 0 53 -28.5t6 -66.5q-11 -37 -44 -63.5t-68 -26.5h-2q-37 0 -53 29.5
t-5 67.5z" />
    <glyph glyph-name="Igrave" unicode="&#xcc;" horiz-adv-x="444" 
d="M31 0l10 29q59 0 82 26q17 19 37.5 67t48 138.5t44.5 148.5t53.5 190t47.5 171q9 33 25 88.5t27 95.5t27 98.5t26.5 97t23.5 92t19 83.5t13.5 71t6 54.5t-3.5 34.5q-7 26 -65 26l6 29h372l-8 -27q-58 0 -84 -26q-18 -20 -40 -72.5t-48.5 -140.5t-45.5 -156.5t-50.5 -187
t-44.5 -164.5q-10 -36 -24.5 -86.5t-26 -90t-25.5 -88.5t-25 -88t-22 -82t-19 -77t-15 -67.5t-10 -58t-3 -44t4 -29.5q9 -26 70 -26l-11 -29h-372zM754 1663l-21 -18l-237 147q-43 27 -50 67.5t21 67.5q22 25 53 25q39 0 72 -47z" />
    <glyph glyph-name="Iacute" unicode="&#xcd;" horiz-adv-x="444" 
d="M31 0l10 29q59 0 82 26q17 19 37.5 67t48 138.5t44.5 148.5t53.5 190t47.5 171q9 33 25 88.5t27 95.5t27 98.5t26.5 97t23.5 92t19 83.5t13.5 71t6 54.5t-3.5 34.5q-7 26 -65 26l6 29h372l-8 -27q-58 0 -84 -26q-18 -20 -40 -72.5t-48.5 -140.5t-45.5 -156.5t-50.5 -187
t-44.5 -164.5q-10 -36 -24.5 -86.5t-26 -90t-25.5 -88.5t-25 -88t-22 -82t-19 -77t-15 -67.5t-10 -58t-3 -44t4 -29.5q9 -26 70 -26l-11 -29h-372zM662 1657l167 229q38 53 95 53q29 0 47 -18q17 -17 19 -44.5t-12.5 -56t-43.5 -44.5l-254 -136z" />
    <glyph glyph-name="Icircumflex" unicode="&#xce;" horiz-adv-x="444" 
d="M31 0l10 29q59 0 82 26q17 19 37.5 67t48 138.5t44.5 148.5t53.5 190t47.5 171q9 33 25 88.5t27 95.5t27 98.5t26.5 97t23.5 92t19 83.5t13.5 71t6 54.5t-3.5 34.5q-7 26 -65 26l6 29h372l-8 -27q-58 0 -84 -26q-18 -20 -40 -72.5t-48.5 -140.5t-45.5 -156.5t-50.5 -187
t-44.5 -164.5q-10 -36 -24.5 -86.5t-26 -90t-25.5 -88.5t-25 -88t-22 -82t-19 -77t-15 -67.5t-10 -58t-3 -44t4 -29.5q9 -26 70 -26l-11 -29h-372zM725 1903h39q20 0 28 -5t17 -18l135 -211q15 -19 10 -30t-22 -11q-22 0 -41 19l-170 151l-264 -153q-29 -19 -51 -19
q-21 0 -19 12q1 12 25 31l258 211q30 23 55 23z" />
    <glyph glyph-name="Idieresis" unicode="&#xcf;" horiz-adv-x="444" 
d="M31 0l10 29q59 0 82 26q17 19 37.5 67t48 138.5t44.5 148.5t53.5 190t47.5 171q9 33 25 88.5t27 95.5t27 98.5t26.5 97t23.5 92t19 83.5t13.5 71t6 54.5t-3.5 34.5q-7 26 -65 26l6 29h372l-8 -27q-58 0 -84 -26q-18 -20 -40 -72.5t-48.5 -140.5t-45.5 -156.5t-50.5 -187
t-44.5 -164.5q-10 -36 -24.5 -86.5t-26 -90t-25.5 -88.5t-25 -88t-22 -82t-19 -77t-15 -67.5t-10 -58t-3 -44t4 -29.5q9 -26 70 -26l-11 -29h-372zM782 1716q12 39 42.5 63.5t68.5 24.5q39 0 55.5 -28t5.5 -66q-11 -37 -43.5 -63.5t-68.5 -26.5q-38 0 -54 28.5t-6 67.5z
M471 1716q11 39 41.5 63.5t71.5 24.5q36 0 53 -28t6 -66q-10 -37 -44 -63.5t-69 -26.5h-2q-37 0 -52.5 29t-4.5 67z" />
    <glyph glyph-name="Ntilde" unicode="&#xd1;" horiz-adv-x="1116" 
d="M305 0h-274l10 29q59 0 82 26q17 19 37.5 67t48 138.5t44.5 148.5t53.5 190t47.5 171q7 25 44.5 158t52.5 189t38.5 151.5t29.5 145.5t-1 69q-10 28 -65 28l6 29h295l250 -1210l122 440q8 29 44.5 158t52.5 188t39 153t30 144.5t0 69.5q-10 28 -69 28l8 29h272l-8 -29
q-58 0 -82 -28q-18 -20 -39.5 -69.5t-50.5 -144.5t-45 -150.5t-52.5 -190.5t-43.5 -162l-211 -766h-82l-305 1405l-174 -639q-114 -403 -120 -427q-62 -238 -46 -284q9 -26 69 -26zM1139 1626q-31 0 -60 15.5t-51.5 37.5t-43.5 44t-45.5 37.5t-49.5 15.5q-40 -3 -76.5 -35
t-85.5 -99l-22 23q38 78 114 142t139 65q31 0 60 -15.5t52 -38t44.5 -44.5t45.5 -37.5t46 -14.5q20 0 40 8t34 18t30 27t24.5 27.5t20.5 28t15 20.5l23 -20q-26 -78 -107 -141.5t-147 -63.5z" />
    <glyph glyph-name="Ograve" unicode="&#xd2;" horiz-adv-x="1079" 
d="M432 778q-45 -162 -64.5 -296t-12.5 -241t53.5 -167t132.5 -60q85 0 164.5 60.5t146.5 168t121.5 241t99.5 294.5q45 162 63.5 292t10 232t-56.5 158t-134 56t-165 -56.5t-144 -159.5t-118 -232.5t-97 -289.5zM530 -27q-143 0 -230 90t-105 268.5t55 446.5
q108 385 301 580.5t416 195.5q85 0 151.5 -28t113.5 -89t67 -151t10 -219.5t-54 -288.5q-55 -195 -137.5 -350.5t-178.5 -253.5t-200 -149.5t-209 -51.5zM926 1905l161 -242l-20 -18l-238 147q-43 27 -49.5 67.5t21.5 67.5q22 25 53 25q39 0 72 -47z" />
    <glyph glyph-name="Oacute" unicode="&#xd3;" horiz-adv-x="1079" 
d="M432 778q-45 -162 -64.5 -296t-12.5 -241t53.5 -167t132.5 -60q85 0 164.5 60.5t146.5 168t121.5 241t99.5 294.5q45 162 63.5 292t10 232t-56.5 158t-134 56t-165 -56.5t-144 -159.5t-118 -232.5t-97 -289.5zM530 -27q-143 0 -230 90t-105 268.5t55 446.5
q108 385 301 580.5t416 195.5q85 0 151.5 -28t113.5 -89t67 -151t10 -219.5t-54 -288.5q-55 -195 -137.5 -350.5t-178.5 -253.5t-200 -149.5t-209 -51.5zM1051 1626l-19 16l168 230q38 53 94 53q29 0 47 -18q27 -24 17.5 -73t-53.5 -73z" />
    <glyph glyph-name="Ocircumflex" unicode="&#xd4;" horiz-adv-x="1079" 
d="M432 778q-45 -162 -64.5 -296t-12.5 -241t53.5 -167t132.5 -60q85 0 164.5 60.5t146.5 168t121.5 241t99.5 294.5q45 162 63.5 292t10 232t-56.5 158t-134 56t-165 -56.5t-144 -159.5t-118 -232.5t-97 -289.5zM530 -27q-143 0 -230 90t-105 268.5t55 446.5
q108 385 301 580.5t416 195.5q85 0 151.5 -28t113.5 -89t67 -151t10 -219.5t-54 -288.5q-55 -195 -137.5 -350.5t-178.5 -253.5t-200 -149.5t-209 -51.5zM1059 1950h39q20 0 28 -5t17 -18l135 -211q15 -19 10 -30t-22 -11q-22 0 -41 19l-170 151l-264 -153q-29 -19 -52 -19
q-21 0 -19 12q1 12 25 31l259 211q30 23 55 23z" />
    <glyph glyph-name="Otilde" unicode="&#xd5;" horiz-adv-x="1079" 
d="M432 778q-45 -162 -64.5 -296t-12.5 -241t53.5 -167t132.5 -60q85 0 164.5 60.5t146.5 168t121.5 241t99.5 294.5q45 162 63.5 292t10 232t-56.5 158t-134 56t-165 -56.5t-144 -159.5t-118 -232.5t-97 -289.5zM530 -27q-143 0 -230 90t-105 268.5t55 446.5
q108 385 301 580.5t416 195.5q85 0 151.5 -28t113.5 -89t67 -151t10 -219.5t-54 -288.5q-55 -195 -137.5 -350.5t-178.5 -253.5t-200 -149.5t-209 -51.5zM1147 1653q-38 0 -74 23.5t-59.5 51t-55 51t-61.5 23.5q-40 -3 -76.5 -35t-85.5 -98l-22 23q37 78 114 141.5t140 64.5
q37 0 73.5 -23.5t61 -51.5t55 -51.5t57.5 -22.5q20 0 40 8t34 18t30 27t24.5 27.5t20.5 28t15 20.5l23 -20q-26 -78 -107 -141.5t-147 -63.5z" />
    <glyph glyph-name="Odieresis" unicode="&#xd6;" horiz-adv-x="1079" 
d="M432 778q-45 -162 -64.5 -296t-12.5 -241t53.5 -167t132.5 -60q85 0 164.5 60.5t146.5 168t121.5 241t99.5 294.5q45 162 63.5 292t10 232t-56.5 158t-134 56t-165 -56.5t-144 -159.5t-118 -232.5t-97 -289.5zM530 -27q-143 0 -230 90t-105 268.5t55 446.5
q108 385 301 580.5t416 195.5q85 0 151.5 -28t113.5 -89t67 -151t10 -219.5t-54 -288.5q-55 -195 -137.5 -350.5t-178.5 -253.5t-200 -149.5t-209 -51.5zM807 1778q11 39 41.5 63.5t71.5 24.5q36 0 53 -28t6 -66q-11 -37 -44.5 -64t-68.5 -27h-2q-37 0 -52.5 29.5t-4.5 67.5
zM1118 1778q12 39 42.5 63.5t68.5 24.5q39 0 55.5 -28t5.5 -66q-11 -37 -43.5 -64t-68.5 -27q-38 0 -54 29t-6 68z" />
    <glyph glyph-name="Oslash" unicode="&#xd8;" horiz-adv-x="1079" 
d="M356 238l779 1136q-39 142 -177 142q-86 0 -165 -56.5t-144 -159.5t-118 -232.5t-97 -289.5q-95 -347 -78 -540zM1151 1276l-774 -1135q43 -127 166 -127q85 0 164.5 60.5t146.5 168t121.5 241t99.5 294.5q85 311 76 498zM315 51l-143 -209h-84l180 264
q-68 100 -74 265.5t58 406.5q108 385 301 580.5t416 195.5q146 0 233 -81l131 192h84l-170 -248q130 -199 10 -639q-55 -195 -137.5 -350.5t-178.5 -253.5t-200 -149.5t-209 -51.5q-133 0 -217 78z" />
    <glyph glyph-name="Ugrave" unicode="&#xd9;" horiz-adv-x="1110" 
d="M557 -25q-260 2 -298 205q-24 130 44 395q0 1 53 195q6 23 44.5 157.5t53 190.5t38.5 152t30.5 146t-0.5 69q-9 26 -67 26l6 29h383l-8 -29q-59 0 -82 -26q-19 -20 -41.5 -73t-48.5 -138t-46.5 -158.5t-50.5 -184t-45 -165.5q-5 -18 -16 -57q-21 -72 -31 -111t-28 -111
t-22 -115.5t-8 -103.5t7.5 -96t31.5 -71.5t58.5 -52t91.5 -17.5q50 0 93.5 11.5t80 30.5t69.5 53t59 69.5t52 88.5t46 101t42 117.5t39 127.5t39 140q9 33 25 88.5t27 95.5t27 98.5t26.5 97t23.5 92t19 83.5t13.5 71t6 54.5t-3.5 34.5q-9 26 -67 26l8 29h276l-8 -29
q-58 0 -84 -26q-18 -20 -40 -73t-48 -138.5t-46.5 -158t-51 -184.5t-45.5 -165l-18 -66q-27 -98 -42 -149.5t-47 -142t-60.5 -140.5t-76 -114.5t-99.5 -98t-125 -57.5t-159 -23zM1128 1661l-20 -19l-238 148q-43 27 -49.5 67.5t21.5 67.5q22 25 53 25q39 0 72 -47z" />
    <glyph glyph-name="Uacute" unicode="&#xda;" horiz-adv-x="1110" 
d="M557 -25q-260 2 -298 205q-24 130 44 395q0 1 53 195q6 23 44.5 157.5t53 190.5t38.5 152t30.5 146t-0.5 69q-9 26 -67 26l6 29h383l-8 -29q-59 0 -82 -26q-19 -20 -41.5 -73t-48.5 -138t-46.5 -158.5t-50.5 -184t-45 -165.5q-5 -18 -16 -57q-21 -72 -31 -111t-28 -111
t-22 -115.5t-8 -103.5t7.5 -96t31.5 -71.5t58.5 -52t91.5 -17.5q50 0 93.5 11.5t80 30.5t69.5 53t59 69.5t52 88.5t46 101t42 117.5t39 127.5t39 140q9 33 25 88.5t27 95.5t27 98.5t26.5 97t23.5 92t19 83.5t13.5 71t6 54.5t-3.5 34.5q-9 26 -67 26l8 29h276l-8 -29
q-58 0 -84 -26q-18 -20 -40 -73t-48 -138.5t-46.5 -158t-51 -184.5t-45.5 -165l-18 -66q-27 -98 -42 -149.5t-47 -142t-60.5 -140.5t-76 -114.5t-99.5 -98t-125 -57.5t-159 -23zM1034 1647l168 229q38 53 94 53q29 0 47 -18q27 -24 17.5 -73t-53.5 -73l-254 -135z" />
    <glyph glyph-name="Ucircumflex" unicode="&#xdb;" horiz-adv-x="1110" 
d="M557 -25q-260 2 -298 205q-24 130 44 395q0 1 53 195q6 23 44.5 157.5t53 190.5t38.5 152t30.5 146t-0.5 69q-9 26 -67 26l6 29h383l-8 -29q-59 0 -82 -26q-19 -20 -41.5 -73t-48.5 -138t-46.5 -158.5t-50.5 -184t-45 -165.5q-5 -18 -16 -57q-21 -72 -31 -111t-28 -111
t-22 -115.5t-8 -103.5t7.5 -96t31.5 -71.5t58.5 -52t91.5 -17.5q50 0 93.5 11.5t80 30.5t69.5 53t59 69.5t52 88.5t46 101t42 117.5t39 127.5t39 140q9 33 25 88.5t27 95.5t27 98.5t26.5 97t23.5 92t19 83.5t13.5 71t6 54.5t-3.5 34.5q-9 26 -67 26l8 29h276l-8 -29
q-58 0 -84 -26q-18 -20 -40 -73t-48 -138.5t-46.5 -158t-51 -184.5t-45.5 -165l-18 -66q-27 -98 -42 -149.5t-47 -142t-60.5 -140.5t-76 -114.5t-99.5 -98t-125 -57.5t-159 -23zM1108 1954h39q20 0 28 -5t17 -18l135 -211q15 -19 10 -30t-22 -11q-22 0 -41 19l-170 151
l-264 -153q-28 -19 -52 -19q-21 0 -19 12t26 31l258 211q30 23 55 23z" />
    <glyph glyph-name="Udieresis" unicode="&#xdc;" horiz-adv-x="1110" 
d="M557 -25q-260 2 -298 205q-24 130 44 395q0 1 53 195q6 23 44.5 157.5t53 190.5t38.5 152t30.5 146t-0.5 69q-9 26 -67 26l6 29h383l-8 -29q-59 0 -82 -26q-19 -20 -41.5 -73t-48.5 -138t-46.5 -158.5t-50.5 -184t-45 -165.5q-5 -18 -16 -57q-21 -72 -31 -111t-28 -111
t-22 -115.5t-8 -103.5t7.5 -96t31.5 -71.5t58.5 -52t91.5 -17.5q50 0 93.5 11.5t80 30.5t69.5 53t59 69.5t52 88.5t46 101t42 117.5t39 127.5t39 140q9 33 25 88.5t27 95.5t27 98.5t26.5 97t23.5 92t19 83.5t13.5 71t6 54.5t-3.5 34.5q-9 26 -67 26l8 29h276l-8 -29
q-58 0 -84 -26q-18 -20 -40 -73t-48 -138.5t-46.5 -158t-51 -184.5t-45.5 -165l-18 -66q-27 -98 -42 -149.5t-47 -142t-60.5 -140.5t-76 -114.5t-99.5 -98t-125 -57.5t-159 -23zM1133 1772q12 39 42 63.5t68 24.5q39 0 56 -28.5t6 -66.5q-11 -37 -44 -63.5t-69 -26.5
q-38 0 -53.5 29t-5.5 68zM821 1772q11 39 41.5 63.5t71.5 24.5q36 0 53 -28.5t6 -66.5q-11 -37 -44 -63.5t-68 -26.5h-2q-37 0 -53 29.5t-5 67.5z" />
    <glyph glyph-name="germandbls" unicode="&#xdf;" horiz-adv-x="1050" 
d="M1018 1262q19 101 -14 161t-107 60q-43 0 -81 -17t-67 -49.5t-51 -66t-41.5 -82t-30.5 -81t-24 -77.5l-188 -651q-102 -344 -88 -400q6 -31 69 -34l-6 -25h-369l7 25q64 3 92 34q44 54 139 400l72 239q17 59 45 164.5t39 143.5q25 86 51 153.5t69.5 141t94 122t124.5 80
t162 31.5q138 0 213 -77t52 -195q-6 -32 -19 -61t-25.5 -50t-35.5 -43.5t-37 -35t-42.5 -31t-39.5 -25t-41 -23.5q-7 -4 -41 -22t-48 -26t-43 -28.5t-45 -37.5t-33 -43.5t-25 -55.5q-13 -45 -0.5 -76t43 -47.5t71.5 -31t85.5 -25.5t84 -31t67.5 -48t36.5 -76.5t-9.5 -116.5
q-39 -143 -155.5 -237.5t-247.5 -94.5q-53 3 -97 17.5t-88.5 38.5t-58.5 30q-6 34 25 143q35 118 65 172q8 2 21 2q-48 -363 172 -360q75 0 132 57t71 137q10 51 0.5 92t-33.5 67t-55.5 51t-65.5 44t-65 45.5t-53.5 55.5t-30 74.5t5.5 101.5q25 117 143 197q223 143 250 301
z" />
    <glyph glyph-name="agrave" unicode="&#xe0;" horiz-adv-x="1019" 
d="M934 852v2q44 164 14 211q-26 47 -121 47q-69 0 -131.5 -33.5t-109.5 -85t-89 -125t-70.5 -142.5t-53.5 -148q-41 -124 -62 -239.5t-7.5 -204t73.5 -93.5h6q199 0 551 811zM340 -14q-90 5 -140 89t-48.5 215t49.5 294q81 258 246.5 412.5t373.5 154.5q215 0 322 -100
l-94 -332q-10 -38 -46.5 -161.5t-52.5 -186.5q-62 -210 -55 -267q5 -22 23 -22q25 0 65 72.5t45 99.5l23 -12q-34 -125 -95 -184.5t-122 -61.5q-69 0 -96.5 55t-0.5 144l119 401q-28 -64 -52.5 -117t-59.5 -119.5t-68 -117.5t-74 -102t-81 -84t-87 -52.5t-94 -17.5z
M877 1509l161 -241l-20 -19l-238 148q-43 27 -49.5 67.5t21.5 67.5q21 24 53 24q39 0 72 -47z" />
    <glyph glyph-name="aacute" unicode="&#xe1;" horiz-adv-x="1019" 
d="M934 852v2q44 164 14 211q-26 47 -121 47q-69 0 -131.5 -33.5t-109.5 -85t-89 -125t-70.5 -142.5t-53.5 -148q-41 -124 -62 -239.5t-7.5 -204t73.5 -93.5h6q199 0 551 811zM340 -14q-90 5 -140 89t-48.5 215t49.5 294q81 258 246.5 412.5t373.5 154.5q215 0 322 -100
l-94 -332q-10 -38 -46.5 -161.5t-52.5 -186.5q-62 -210 -55 -267q5 -22 23 -22q25 0 65 72.5t45 99.5l23 -12q-34 -125 -95 -184.5t-122 -61.5q-69 0 -96.5 55t-0.5 144l119 401q-28 -64 -52.5 -117t-59.5 -119.5t-68 -117.5t-74 -102t-81 -84t-87 -52.5t-94 -17.5z
M737 1249l-18 17l168 229q38 53 94 53q29 0 47 -18q17 -17 19 -45t-12.5 -56.5t-43.5 -44.5z" />
    <glyph glyph-name="acircumflex" unicode="&#xe2;" horiz-adv-x="1019" 
d="M934 852v2q44 164 14 211q-26 47 -121 47q-69 0 -131.5 -33.5t-109.5 -85t-89 -125t-70.5 -142.5t-53.5 -148q-41 -124 -62 -239.5t-7.5 -204t73.5 -93.5h6q199 0 551 811zM340 -14q-90 5 -140 89t-48.5 215t49.5 294q81 258 246.5 412.5t373.5 154.5q215 0 322 -100
l-94 -332q-10 -38 -46.5 -161.5t-52.5 -186.5q-62 -210 -55 -267q5 -22 23 -22q25 0 65 72.5t45 99.5l23 -12q-34 -125 -95 -184.5t-122 -61.5q-69 0 -96.5 55t-0.5 144l119 401q-28 -64 -52.5 -117t-59.5 -119.5t-68 -117.5t-74 -102t-81 -84t-87 -52.5t-94 -17.5z
M936 1528h39q20 0 28 -5t17 -18l135 -211q15 -19 10 -30t-22 -11q-22 0 -41 19l-170 151l-264 -153q-29 -19 -52 -19q-21 0 -19 12t26 31l258 211q30 23 55 23z" />
    <glyph glyph-name="atilde" unicode="&#xe3;" horiz-adv-x="1019" 
d="M934 852v2q44 164 14 211q-26 47 -121 47q-69 0 -131.5 -33.5t-109.5 -85t-89 -125t-70.5 -142.5t-53.5 -148q-41 -124 -62 -239.5t-7.5 -204t73.5 -93.5h6q199 0 551 811zM340 -14q-90 5 -140 89t-48.5 215t49.5 294q81 258 246.5 412.5t373.5 154.5q215 0 322 -100
l-94 -332q-10 -38 -46.5 -161.5t-52.5 -186.5q-62 -210 -55 -267q5 -22 23 -22q25 0 65 72.5t45 99.5l23 -12q-34 -125 -95 -184.5t-122 -61.5q-69 0 -96.5 55t-0.5 144l119 401q-28 -64 -52.5 -117t-59.5 -119.5t-68 -117.5t-74 -102t-81 -84t-87 -52.5t-94 -17.5z
M971 1266q-38 0 -74 23.5t-59.5 51t-55 51t-61.5 23.5q-40 -3 -76.5 -35t-85.5 -98l-22 23q37 78 114 141.5t140 64.5q37 0 73.5 -23.5t61 -51.5t55 -51.5t57.5 -22.5q20 0 40 8t34 18t30 27t24.5 27.5t20.5 28t15 20.5l23 -21q-26 -78 -107 -141t-147 -63z" />
    <glyph glyph-name="adieresis" unicode="&#xe4;" horiz-adv-x="1019" 
d="M934 852v2q44 164 14 211q-26 47 -121 47q-69 0 -131.5 -33.5t-109.5 -85t-89 -125t-70.5 -142.5t-53.5 -148q-41 -124 -62 -239.5t-7.5 -204t73.5 -93.5h6q199 0 551 811zM340 -14q-90 5 -140 89t-48.5 215t49.5 294q81 258 246.5 412.5t373.5 154.5q215 0 322 -100
l-94 -332q-10 -38 -46.5 -161.5t-52.5 -186.5q-62 -210 -55 -267q5 -22 23 -22q25 0 65 72.5t45 99.5l23 -12q-34 -125 -95 -184.5t-122 -61.5q-69 0 -96.5 55t-0.5 144l119 401q-28 -64 -52.5 -117t-59.5 -119.5t-68 -117.5t-74 -102t-81 -84t-87 -52.5t-94 -17.5z
M641 1401q11 39 41.5 63.5t71.5 24.5q36 0 53 -28t6 -66q-10 -37 -44 -63.5t-69 -26.5h-2q-37 0 -52.5 29t-4.5 67zM952 1401q12 39 42.5 63.5t68.5 24.5q39 0 55.5 -28t5.5 -66q-11 -37 -43.5 -63.5t-68.5 -26.5q-38 0 -54 28.5t-6 67.5z" />
    <glyph glyph-name="aring" unicode="&#xe5;" horiz-adv-x="1019" 
d="M934 852v2q44 164 14 211q-26 47 -121 47q-69 0 -131.5 -33.5t-109.5 -85t-89 -125t-70.5 -142.5t-53.5 -148q-41 -124 -62 -239.5t-7.5 -204t73.5 -93.5h6q199 0 551 811zM864 1331h2q31 0 59.5 22.5t35.5 53.5q9 32 -7 53t-47 21t-58.5 -21t-37.5 -53q-8 -31 7.5 -53.5
t45.5 -22.5zM340 -14q-90 5 -140 89t-48.5 215t49.5 294q81 258 246.5 412.5t373.5 154.5q215 0 322 -100l-94 -332q-10 -38 -46.5 -161.5t-52.5 -186.5q-62 -210 -55 -267q5 -22 23 -22q25 0 65 72.5t45 99.5l23 -12q-34 -125 -95 -184.5t-122 -61.5q-69 0 -96.5 55
t-0.5 144l119 401q-28 -64 -52.5 -117t-59.5 -119.5t-68 -117.5t-74 -102t-81 -84t-87 -52.5t-94 -17.5zM846 1262h-2q-60 0 -90 42t-13 103q17 60 72 102.5t115 42.5q61 0 91 -42.5t13 -102.5q-19 -61 -72.5 -103t-113.5 -42z" />
    <glyph glyph-name="ae" unicode="&#xe6;" horiz-adv-x="1519" 
d="M934 834q1 3 3 10t3 10q42 159 14 211q-29 47 -123 47q-68 0 -130.5 -33.5t-109.5 -85.5t-89.5 -125t-71 -142.5t-53.5 -147.5q-40 -125 -61 -241t-8 -207t73 -97h8q56 0 124 64.5t139.5 179.5t141 252.5t140.5 304.5zM1526 944q6 20 1.5 47.5t-13.5 52.5t-36.5 42.5
t-68.5 17.5q-54 0 -105.5 -35t-89 -84.5t-72.5 -118.5t-55 -120t-38 -107l282 80q80 21 132 82.5t63 142.5zM1036 600l-6 -18q-30 -101 -35 -193t12.5 -161.5t61 -110.5t107.5 -41q59 0 122.5 31.5t117 81.5t96 103.5t73.5 106.5l37 -6q-39 -78 -90 -147.5t-116.5 -130.5
t-147 -97t-166.5 -36q-189 -3 -254.5 162.5t10.5 437.5v6q-40 -90 -76 -162.5t-90 -160.5t-104.5 -146t-114 -97t-125.5 -36q-91 5 -142 89t-49.5 215t50.5 294q81 259 249.5 413t387.5 154q80 0 161.5 -25t139.5 -73q130 100 268 100q76 0 136 -25.5t94 -65.5t44.5 -90
t-4.5 -97.5t-61 -90.5t-117 -67q-86 -29 -172.5 -51.5t-129.5 -31.5t-167 -34z" />
    <glyph glyph-name="ccedilla" unicode="&#xe7;" horiz-adv-x="831" 
d="M264 -119l94 99q-72 19 -119.5 76t-64.5 138t-11.5 178t34.5 201q44 160 127 290.5t197.5 209t236.5 76.5q107 -2 174.5 -44t77.5 -116q8 -63 -27 -102t-78 -39q-25 0 -35 10q-28 18 -38.5 51.5t-9.5 65.5t-0.5 62.5t-19 49t-57.5 17.5q-51 -1 -102.5 -39.5t-91.5 -95.5
t-76.5 -131t-60.5 -139t-41 -126q-23 -87 -30 -176.5t4 -170.5t54 -132t113 -51q108 0 216.5 97.5t154.5 207.5l37 -6q-58 -149 -197 -261t-289 -112q-18 0 -26 2l-91 -94q36 4 68 4q21 0 39.5 -1t42 -4.5t40.5 -10t35.5 -17.5t25.5 -26t11.5 -36.5t-6.5 -49.5
q-16 -58 -57 -99t-89.5 -59.5t-85 -25.5t-64.5 -7q-21 0 -47.5 4t-55.5 13t-46 27t-13 42q3 22 19 38t38 16q21 -1 31.5 -17.5t14.5 -36t21.5 -35.5t49.5 -16q52 0 106.5 34.5t75.5 111.5q7 28 -3.5 49t-34 31.5t-48.5 15t-53 4.5q-19 0 -48.5 -3t-41.5 -3q-22 0 -15 20
q1 6 18 23t17 18z" />
    <glyph glyph-name="egrave" unicode="&#xe8;" horiz-adv-x="868" 
d="M866 944q6 20 2 47.5t-13 52.5t-36 42.5t-67 17.5q-45 0 -88.5 -23.5t-79 -65t-65.5 -87t-55.5 -103t-41.5 -98.5t-31 -86l281 78q80 21 131.5 82.5t62.5 142.5zM377 598q-4 -12 -4 -16q-30 -101 -35.5 -193t12 -161.5t61 -110.5t107.5 -41q59 0 122 31.5t116.5 81.5
t96 103.5t73.5 106.5l37 -6q-39 -80 -91 -150.5t-118 -130.5t-148.5 -95t-169.5 -35q-184 0 -248 166t11 434q69 255 222.5 413t334.5 158q76 0 136 -25.5t93.5 -65.5t44 -90t-5 -97.5t-61.5 -90.5t-117 -67q-38 -13 -72 -23.5t-70.5 -20.5t-61 -16.5t-66 -15.5t-60.5 -13.5
t-69.5 -15t-69.5 -14.5zM664 1495l161 -242l-20 -18l-238 147q-43 27 -49.5 68t21.5 68q21 24 53 24q39 0 72 -47z" />
    <glyph glyph-name="eacute" unicode="&#xe9;" horiz-adv-x="868" 
d="M866 944q6 20 2 47.5t-13 52.5t-36 42.5t-67 17.5q-45 0 -88.5 -23.5t-79 -65t-65.5 -87t-55.5 -103t-41.5 -98.5t-31 -86l281 78q80 21 131.5 82.5t62.5 142.5zM377 598q-4 -12 -4 -16q-30 -101 -35.5 -193t12 -161.5t61 -110.5t107.5 -41q59 0 122 31.5t116.5 81.5
t96 103.5t73.5 106.5l37 -6q-39 -80 -91 -150.5t-118 -130.5t-148.5 -95t-169.5 -35q-184 0 -248 166t11 434q69 255 222.5 413t334.5 158q76 0 136 -25.5t93.5 -65.5t44 -90t-5 -97.5t-61.5 -90.5t-117 -67q-38 -13 -72 -23.5t-70.5 -20.5t-61 -16.5t-66 -15.5t-60.5 -13.5
t-69.5 -15t-69.5 -14.5zM715 1266l-19 16l168 229q39 54 94 54q29 0 48 -19q17 -17 19 -44.5t-12.5 -56t-43.5 -44.5z" />
    <glyph glyph-name="ecircumflex" unicode="&#xea;" horiz-adv-x="868" 
d="M866 944q6 20 2 47.5t-13 52.5t-36 42.5t-67 17.5q-45 0 -88.5 -23.5t-79 -65t-65.5 -87t-55.5 -103t-41.5 -98.5t-31 -86l281 78q80 21 131.5 82.5t62.5 142.5zM377 598q-4 -12 -4 -16q-30 -101 -35.5 -193t12 -161.5t61 -110.5t107.5 -41q59 0 122 31.5t116.5 81.5
t96 103.5t73.5 106.5l37 -6q-39 -80 -91 -150.5t-118 -130.5t-148.5 -95t-169.5 -35q-184 0 -248 166t11 434q69 255 222.5 413t334.5 158q76 0 136 -25.5t93.5 -65.5t44 -90t-5 -97.5t-61.5 -90.5t-117 -67q-38 -13 -72 -23.5t-70.5 -20.5t-61 -16.5t-66 -15.5t-60.5 -13.5
t-69.5 -15t-69.5 -14.5zM860 1528h39q20 0 28 -5t17 -18l135 -211q15 -19 10 -30t-22 -11q-22 0 -41 19l-170 151l-264 -153q-28 -19 -51 -19q-21 0 -19 12q1 12 25 31l258 211q30 23 55 23z" />
    <glyph glyph-name="edieresis" unicode="&#xeb;" horiz-adv-x="868" 
d="M866 944q6 20 2 47.5t-13 52.5t-36 42.5t-67 17.5q-45 0 -88.5 -23.5t-79 -65t-65.5 -87t-55.5 -103t-41.5 -98.5t-31 -86l281 78q80 21 131.5 82.5t62.5 142.5zM377 598q-4 -12 -4 -16q-30 -101 -35.5 -193t12 -161.5t61 -110.5t107.5 -41q59 0 122 31.5t116.5 81.5
t96 103.5t73.5 106.5l37 -6q-39 -80 -91 -150.5t-118 -130.5t-148.5 -95t-169.5 -35q-184 0 -248 166t11 434q69 255 222.5 413t334.5 158q76 0 136 -25.5t93.5 -65.5t44 -90t-5 -97.5t-61.5 -90.5t-117 -67q-38 -13 -72 -23.5t-70.5 -20.5t-61 -16.5t-66 -15.5t-60.5 -13.5
t-69.5 -15t-69.5 -14.5zM565 1401q11 39 41.5 63.5t71.5 24.5q36 0 53 -28t6 -66q-11 -37 -44 -63.5t-68 -26.5h-2q-37 0 -53 29t-5 67zM877 1401q12 39 42 63.5t68 24.5q39 0 56 -28t6 -66q-11 -37 -44 -63.5t-69 -26.5q-38 0 -53.5 28.5t-5.5 67.5z" />
    <glyph glyph-name="igrave" unicode="&#xec;" horiz-adv-x="495" 
d="M526 240q-36 -125 -97.5 -184.5t-119.5 -59.5q-63 0 -91.5 49.5t-4.5 132.5q8 25 39 124.5t47 156.5q4 13 26 89t36.5 128t32.5 124t27 124.5t7 81.5q0 17 -2 25t-8 7q-24 -5 -67.5 -77t-49.5 -99l-27 12q40 126 120 201.5t141 67.5q118 -13 67 -180l-151 -504
q-73 -247 -80 -316q-2 -20 0 -32q0 -14 6.5 -21.5t13.5 -7.5q25 0 66.5 73t46.5 99zM623 1288l-21 -18l-237 147q-43 27 -50 67.5t21 67.5q22 25 53 25q39 0 72 -47z" />
    <glyph glyph-name="iacute" unicode="&#xed;" horiz-adv-x="495" 
d="M526 240q-36 -125 -97.5 -184.5t-119.5 -59.5q-63 0 -91.5 49.5t-4.5 132.5q8 25 39 124.5t47 156.5q4 13 26 89t36.5 128t32.5 124t27 124.5t7 81.5q0 17 -2 25t-8 7q-24 -5 -67.5 -77t-49.5 -99l-27 12q40 126 120 201.5t141 67.5q118 -13 67 -180l-151 -504
q-73 -247 -80 -316q-2 -20 0 -32q0 -14 6.5 -21.5t13.5 -7.5q25 0 66.5 73t46.5 99zM526 1266l168 229q38 53 94 53q30 0 48 -18q17 -17 19 -45t-12.5 -56.5t-43.5 -44.5l-254 -135z" />
    <glyph glyph-name="icircumflex" unicode="&#xee;" horiz-adv-x="495" 
d="M526 240q-36 -125 -97.5 -184.5t-119.5 -59.5q-63 0 -91.5 49.5t-4.5 132.5q8 25 39 124.5t47 156.5q4 13 26 89t36.5 128t32.5 124t27 124.5t7 81.5q0 17 -2 25t-8 7q-24 -5 -67.5 -77t-49.5 -99l-27 12q40 126 120 201.5t141 67.5q118 -13 67 -180l-151 -504
q-73 -247 -80 -316q-2 -20 0 -32q0 -14 6.5 -21.5t13.5 -7.5q25 0 66.5 73t46.5 99zM600 1528h39q20 0 28 -5t17 -18l135 -211q15 -19 10 -30t-22 -11q-22 0 -41 19l-170 151l-264 -153q-29 -19 -51 -19q-21 0 -19 12q1 12 25 31l258 211q30 23 55 23z" />
    <glyph glyph-name="idieresis" unicode="&#xef;" horiz-adv-x="495" 
d="M526 240q-36 -125 -97.5 -184.5t-119.5 -59.5q-63 0 -91.5 49.5t-4.5 132.5q8 25 39 124.5t47 156.5q4 13 26 89t36.5 128t32.5 124t27 124.5t7 81.5q0 17 -2 25t-8 7q-24 -5 -67.5 -77t-49.5 -99l-27 12q40 126 120 201.5t141 67.5q118 -13 67 -180l-151 -504
q-73 -247 -80 -316q-2 -20 0 -32q0 -14 6.5 -21.5t13.5 -7.5q25 0 66.5 73t46.5 99zM659 1393q12 39 42.5 63.5t68.5 24.5t55 -28.5t6 -66.5q-11 -37 -43.5 -63.5t-68.5 -26.5q-38 0 -54 29t-6 68zM348 1393q11 39 41.5 63.5t71.5 24.5q36 0 53 -28.5t6 -66.5
q-11 -37 -44 -63.5t-68 -26.5h-2q-37 0 -53 29.5t-5 67.5z" />
    <glyph glyph-name="ntilde" unicode="&#xf1;" horiz-adv-x="1058" 
d="M354 84l-22 -84h-160l127 459q25 95 61 221q76 273 64 342q-3 14 -10 14q-20 0 -64 -69t-55 -105l-27 10q39 120 107.5 201.5t134.5 81.5q26 0 43 -10q34 -18 34 -94.5t-19.5 -164t-55.5 -210.5l-96 -357q132 289 197 410q221 409 384 412q39 1 71 -12t58.5 -45t32.5 -85
t-6 -133q-11 -58 -70 -238.5t-104 -334.5t-35 -189q8 -16 19 -16q27 0 65.5 68t48.5 104l21 -14q-34 -128 -103 -191t-135 -53q-52 8 -76.5 61t0.5 140q27 89 95.5 287t99.5 311q37 143 37 208.5t-45 65.5q-52 -2 -123.5 -79.5t-137 -185t-139 -254t-122 -254t-95.5 -218.5z
M954 1274q-38 0 -74 23.5t-59.5 51t-54.5 51t-61 23.5q-40 -3 -76.5 -35t-85.5 -98l-23 23q38 78 114.5 142t139.5 65q31 0 60 -15.5t52 -38t44.5 -44.5t45.5 -37.5t46 -14.5q20 0 40 8t34 18t30 27t24.5 27.5t20.5 28t15 20.5l22 -20q-26 -78 -107 -141.5t-147 -63.5z" />
    <glyph glyph-name="ograve" unicode="&#xf2;" horiz-adv-x="915" 
d="M862 571q23 85 37.5 155.5t20 146.5t-6 128t-47.5 85.5t-96 33.5q-242 0 -391 -549q-19 -71 -32.5 -131t-23.5 -127.5t-7 -120t16.5 -96t46.5 -67t84 -23.5q242 0 399 565zM782 1161q122 0 197.5 -75t91 -206.5t-30.5 -308.5q-71 -260 -237.5 -434t-349.5 -174
q-122 0 -196.5 80.5t-87 216t31.5 311.5q71 259 232.5 424.5t348.5 165.5zM786 1509l162 -241l-20 -19l-238 148q-43 27 -49.5 67.5t21.5 67.5q21 24 53 24q38 0 71 -47z" />
    <glyph glyph-name="oacute" unicode="&#xf3;" horiz-adv-x="915" 
d="M862 571q23 85 37.5 155.5t20 146.5t-6 128t-47.5 85.5t-96 33.5q-242 0 -391 -549q-19 -71 -32.5 -131t-23.5 -127.5t-7 -120t16.5 -96t46.5 -67t84 -23.5q242 0 399 565zM782 1161q122 0 197.5 -75t91 -206.5t-30.5 -308.5q-71 -260 -237.5 -434t-349.5 -174
q-122 0 -196.5 80.5t-87 216t31.5 311.5q71 259 232.5 424.5t348.5 165.5zM729 1249l-18 17l168 229q38 53 94 53q29 0 47 -18q17 -17 19 -45t-12.5 -56.5t-43.5 -44.5z" />
    <glyph glyph-name="ocircumflex" unicode="&#xf4;" horiz-adv-x="915" 
d="M862 571q23 85 37.5 155.5t20 146.5t-6 128t-47.5 85.5t-96 33.5q-242 0 -391 -549q-19 -71 -32.5 -131t-23.5 -127.5t-7 -120t16.5 -96t46.5 -67t84 -23.5q242 0 399 565zM782 1161q122 0 197.5 -75t91 -206.5t-30.5 -308.5q-71 -260 -237.5 -434t-349.5 -174
q-122 0 -196.5 80.5t-87 216t31.5 311.5q71 259 232.5 424.5t348.5 165.5zM885 1528h39q20 0 28 -5t17 -18l135 -211q15 -19 10 -30t-22 -11q-22 0 -41 19l-170 151l-265 -153q-28 -19 -51 -19q-21 0 -19 12q1 12 25 31l258 211q30 23 56 23z" />
    <glyph glyph-name="otilde" unicode="&#xf5;" horiz-adv-x="915" 
d="M862 571q23 85 37.5 155.5t20 146.5t-6 128t-47.5 85.5t-96 33.5q-242 0 -391 -549q-19 -71 -32.5 -131t-23.5 -127.5t-7 -120t16.5 -96t46.5 -67t84 -23.5q242 0 399 565zM782 1161q122 0 197.5 -75t91 -206.5t-30.5 -308.5q-71 -260 -237.5 -434t-349.5 -174
q-122 0 -196.5 80.5t-87 216t31.5 311.5q71 259 232.5 424.5t348.5 165.5zM918 1266q-38 0 -74 23.5t-59.5 51t-55 51t-61.5 23.5q-40 -3 -76.5 -35t-85.5 -98l-23 23q37 78 114 141.5t140 64.5q31 0 60 -15.5t52 -37.5t44.5 -44t45.5 -37.5t46 -14.5q20 0 40 8t34 18t30 27
t24.5 27.5t20.5 28t15 20.5l22 -21q-26 -78 -106.5 -141t-146.5 -63z" />
    <glyph glyph-name="odieresis" unicode="&#xf6;" horiz-adv-x="915" 
d="M862 571q23 85 37.5 155.5t20 146.5t-6 128t-47.5 85.5t-96 33.5q-242 0 -391 -549q-19 -71 -32.5 -131t-23.5 -127.5t-7 -120t16.5 -96t46.5 -67t84 -23.5q242 0 399 565zM782 1161q122 0 197.5 -75t91 -206.5t-30.5 -308.5q-71 -260 -237.5 -434t-349.5 -174
q-122 0 -196.5 80.5t-87 216t31.5 311.5q71 259 232.5 424.5t348.5 165.5zM590 1401q11 39 41 63.5t71 24.5q36 0 53.5 -28.5t6.5 -65.5q-10 -37 -44 -63.5t-69 -26.5h-2q-37 0 -52.5 29t-4.5 67zM901 1401q12 39 42.5 63.5t68.5 24.5q39 0 55.5 -28t5.5 -66
q-11 -37 -43.5 -63.5t-68.5 -26.5q-38 0 -54 28.5t-6 67.5z" />
    <glyph glyph-name="oslash" unicode="&#xf8;" horiz-adv-x="915" 
d="M317 203l594 813q-33 104 -139 104q-242 0 -391 -549q-64 -239 -64 -368zM924 922l-592 -813q29 -103 133 -103q242 0 399 565q62 225 60 351zM274 29l-92 -125h-82l129 178q-54 82 -60.5 208.5t34.5 280.5q71 259 232.5 424.5t348.5 165.5q112 0 187 -63l110 153l80 -2
l-147 -202q55 -77 62.5 -199t-34.5 -277q-71 -260 -237.5 -434t-349.5 -174q-112 0 -181 66z" />
    <glyph glyph-name="ugrave" unicode="&#xf9;" horiz-adv-x="1083" 
d="M1030 1071l23 76h159q-78 -258 -200 -674q-87 -288 -70 -348q2 -10 10 -10q19 0 68 75.5t53 96.5q9 0 25 -8q-42 -125 -111.5 -204t-132.5 -79q-16 0 -31 6q-108 32 37 473l98 346q-147 -321 -237 -474q-197 -336 -344 -337q-89 -2 -136 64t-16 213q12 57 70 232.5
t103 328.5t38 194q-6 15 -16 15q-26 0 -68 -70t-51 -100l-22 12q27 90 71 148.5t87 79t85 16.5q53 -6 75.5 -60t-1.5 -141q-21 -67 -90.5 -267t-104.5 -323q-21 -76 -31 -125t-11.5 -84t9 -50.5t33.5 -16.5q33 -1 72.5 27.5t83 84t86 119t89.5 151t85.5 161t82.5 167.5
t70.5 152.5t59.5 132.5zM961 1268l-21 -19l-238 148q-43 27 -49.5 67.5t21.5 67.5q21 24 53 24q39 0 72 -47z" />
    <glyph glyph-name="uacute" unicode="&#xfa;" horiz-adv-x="1083" 
d="M1030 1071l23 76h159q-78 -258 -200 -674q-87 -288 -70 -348q2 -10 10 -10q19 0 68 75.5t53 96.5q9 0 25 -8q-42 -125 -111.5 -204t-132.5 -79q-16 0 -31 6q-108 32 37 473l98 346q-147 -321 -237 -474q-197 -336 -344 -337q-89 -2 -136 64t-16 213q12 57 70 232.5
t103 328.5t38 194q-6 15 -16 15q-26 0 -68 -70t-51 -100l-22 12q27 90 71 148.5t87 79t85 16.5q53 -6 75.5 -60t-1.5 -141q-21 -67 -90.5 -267t-104.5 -323q-21 -76 -31 -125t-11.5 -84t9 -50.5t33.5 -16.5q33 -1 72.5 27.5t83 84t86 119t89.5 151t85.5 161t82.5 167.5
t70.5 152.5t59.5 132.5zM776 1257l168 230q38 53 94 53q29 0 47 -18q27 -24 17.5 -73t-53.5 -73l-254 -135z" />
    <glyph glyph-name="ucircumflex" unicode="&#xfb;" horiz-adv-x="1083" 
d="M1030 1071l23 76h159q-78 -258 -200 -674q-87 -288 -70 -348q2 -10 10 -10q19 0 68 75.5t53 96.5q9 0 25 -8q-42 -125 -111.5 -204t-132.5 -79q-16 0 -31 6q-108 32 37 473l98 346q-147 -321 -237 -474q-197 -336 -344 -337q-89 -2 -136 64t-16 213q12 57 70 232.5
t103 328.5t38 194q-6 15 -16 15q-26 0 -68 -70t-51 -100l-22 12q27 90 71 148.5t87 79t85 16.5q53 -6 75.5 -60t-1.5 -141q-21 -67 -90.5 -267t-104.5 -323q-21 -76 -31 -125t-11.5 -84t9 -50.5t33.5 -16.5q33 -1 72.5 27.5t83 84t86 119t89.5 151t85.5 161t82.5 167.5
t70.5 152.5t59.5 132.5zM938 1526h39q20 0 28 -5t17 -18l135 -211q15 -19 10 -30t-22 -11q-22 0 -41 19l-170 151l-264 -153q-28 -19 -52 -19q-21 0 -19 12t26 31l258 211q30 23 55 23z" />
    <glyph glyph-name="udieresis" unicode="&#xfc;" horiz-adv-x="1083" 
d="M1030 1071l23 76h159q-78 -258 -200 -674q-87 -288 -70 -348q2 -10 10 -10q19 0 68 75.5t53 96.5q9 0 25 -8q-42 -125 -111.5 -204t-132.5 -79q-16 0 -31 6q-108 32 37 473l98 346q-147 -321 -237 -474q-197 -336 -344 -337q-89 -2 -136 64t-16 213q12 57 70 232.5
t103 328.5t38 194q-6 15 -16 15q-26 0 -68 -70t-51 -100l-22 12q27 90 71 148.5t87 79t85 16.5q53 -6 75.5 -60t-1.5 -141q-21 -67 -90.5 -267t-104.5 -323q-21 -76 -31 -125t-11.5 -84t9 -50.5t33.5 -16.5q33 -1 72.5 27.5t83 84t86 119t89.5 151t85.5 161t82.5 167.5
t70.5 152.5t59.5 132.5zM965 1397q12 39 42 63.5t68 24.5q39 0 56 -28t6 -66q-11 -37 -44 -64t-69 -27q-38 0 -53.5 29t-5.5 68zM653 1397q11 39 41.5 63.5t71.5 24.5q36 0 53 -28t6 -66q-11 -37 -44 -64t-68 -27h-2q-37 0 -53 29.5t-5 67.5z" />
    <glyph glyph-name="ydieresis" unicode="&#xff;" horiz-adv-x="913" 
d="M100 -399q-54 1 -81 48t-21 95t33 51q12 -3 63.5 -20t77.5 -19q79 -5 146.5 37.5t154.5 169.5q28 97 30 339t-30.5 454.5t-91.5 212.5q-35 0 -76 -84l-24 33q112 208 200 208q33 0 60 -30q40 -44 70 -178.5t42 -283.5t11.5 -284.5t-15.5 -187.5q37 50 58.5 79.5t65.5 92
t71 108.5t64 110t56.5 115t36 106t15 102t-18.5 83l-7.5 2.5t-15.5 8.5t-19.5 15t-14.5 22t-4 30q4 45 37 67.5t71 22.5q29 0 56 -17.5t35 -53.5q22 -71 -25.5 -210.5t-138.5 -299.5t-212.5 -329.5t-242.5 -306t-234 -223t-182 -85.5zM899 1401q12 39 42.5 63.5t68.5 24.5
q39 0 55.5 -28t5.5 -66q-11 -37 -44 -63.5t-69 -26.5q-38 0 -53.5 28.5t-5.5 67.5zM588 1401q11 39 41 63.5t71 24.5q36 0 53.5 -28.5t6.5 -65.5q-10 -37 -44 -63.5t-69 -26.5h-2q-37 0 -52.5 29t-4.5 67z" />
    <glyph glyph-name="dotlessi" unicode="&#x131;" horiz-adv-x="495" 
d="M528 240q-36 -125 -97.5 -184.5t-119.5 -59.5q-63 0 -91.5 49.5t-4.5 132.5q8 25 39 124.5t47 156.5q4 13 26 89t36.5 128t32.5 124t27 124.5t7 81.5q0 17 -2 25t-8 7q-24 -5 -67.5 -77t-49.5 -99l-27 12q40 126 120 201.5t141 67.5q118 -13 67 -180l-151 -504
q-73 -247 -80 -316q-2 -20 0 -32q0 -14 6.5 -21.5t13.5 -7.5q25 0 66.5 73t46.5 99z" />
    <glyph glyph-name="OE" unicode="&#x152;" horiz-adv-x="1724" 
d="M434 784q-45 -162 -64.5 -296t-12.5 -241t53.5 -167t132.5 -60q85 0 164.5 60.5t146.5 168t121.5 241t99.5 294.5q45 162 63.5 292t10 232t-56.5 158t-134 56t-165 -56.5t-144 -159.5t-118 -232.5t-97 -289.5zM1077 0h-268l8 29q61 0 84 26q29 34 72 160
q-100 -116 -213 -175.5t-228 -59.5q-143 0 -230 89.5t-105 268t55 446.5q108 385 301 581t416 196q115 0 196.5 -53t118.5 -160q23 114 12 141q-7 22 -67 22l8 29h805q-15 -55 -41 -156.5t-35 -134.5l-33 -14q0 6 5.5 66.5t4.5 107.5t-14 57q-38 21 -358 25q-23 0 -43.5 -13
t-28.5 -32q-71 -157 -203 -621q274 7 320 25q24 10 55 63.5t58.5 117.5t33.5 73l29 -2q-38 -120 -168 -596l-27 -2q0 8 7 72.5t5.5 118t-20.5 63.5q-24 12 -94.5 16t-210.5 6q-58 -207 -103.5 -403.5t-56.5 -282.5q-3 -21 10 -34t37 -13q359 9 410 31q12 6 31 31.5
t42.5 65.5t40.5 71t37.5 70t20.5 40l25 -14q-5 -16 -55 -150.5t-66 -193.5z" />
    <glyph glyph-name="oe" unicode="&#x153;" horiz-adv-x="1570" 
d="M864 573q23 85 37.5 155.5t20 146.5t-6 128t-47.5 85.5t-96 33.5q-242 0 -391 -549q-19 -71 -32.5 -131t-23.5 -127.5t-7 -120t16.5 -96t46.5 -67t84 -23.5q242 0 399 565zM1565 944q6 20 1.5 47.5t-13 52.5t-36 42.5t-67.5 17.5q-45 0 -88.5 -23.5t-79 -65t-65 -87
t-55 -103t-41.5 -98.5t-31 -86l280 78q80 21 132 82.5t63 142.5zM1075 598q-4 -12 -4 -16q-30 -101 -35.5 -193t12 -161.5t61.5 -110.5t108 -41q59 0 122 31.5t116 81.5t95.5 103.5t73.5 106.5l37 -6q-39 -80 -90.5 -150.5t-117.5 -130.5t-148.5 -95t-169.5 -35
q-109 0 -178 60.5t-91 170.5q-88 -116 -195.5 -182t-215.5 -66q-122 0 -196.5 80.5t-87 216t31.5 311.5q71 259 232.5 424.5t348.5 165.5q109 0 181.5 -61.5t99.5 -171.5q81 106 181.5 164.5t207.5 58.5q76 0 136 -25.5t93.5 -65.5t44 -90t-5 -97.5t-61.5 -90.5t-117 -67
q-38 -13 -72 -23.5t-70.5 -20.5t-61 -16.5t-66 -15.5t-60.5 -13.5t-69.5 -15t-69.5 -14.5z" />
    <glyph glyph-name="Ydieresis" unicode="&#x178;" horiz-adv-x="1114" 
d="M836 696q-112 -390 -131 -477q-27 -123 -13 -162q7 -28 68 -28l-8 -29h-371l6 31q61 0 84 26q12 13 24.5 37.5t27 64t26.5 76t29 97t28.5 102.5t32 116.5t31.5 115.5q-5 37 -37 283t-55.5 375.5t-47.5 160.5q-18 26 -77 26l6 29h372l-6 -29q-59 0 -73 -26
q-19 -41 5.5 -263t63.5 -462q161 228 307.5 455.5t149.5 269.5q1 15 -17.5 20.5t-43.5 5.5l8 29h278l-6 -29q-63 0 -96 -26q-38 -29 -132.5 -160.5t-238 -344t-194.5 -284.5zM1133 1776q12 39 42 63.5t68 24.5q39 0 56 -28.5t6 -66.5q-11 -37 -44 -63.5t-69 -26.5
q-38 0 -53.5 29t-5.5 68zM821 1776q11 39 41.5 63.5t71.5 24.5q36 0 53 -28.5t6 -66.5q-11 -37 -44 -63.5t-68 -26.5h-2q-37 0 -53 29.5t-5 67.5z" />
    <glyph glyph-name="circumflex" unicode="&#x2c6;" horiz-adv-x="870" 
d="M831 1528h39q20 0 28 -5t17 -18l136 -211q15 -19 9.5 -30t-22.5 -11q-22 0 -41 19l-170 151l-264 -153q-29 -19 -51 -19q-21 0 -19 12q1 12 25 31l258 211q30 23 55 23z" />
    <glyph glyph-name="caron" unicode="&#x2c7;" horiz-adv-x="870" 
d="M803 1260h-39q-20 0 -28 5t-17 17l-135 211q-15 19 -10 30t22 11q23 0 41 -18l172 -152l262 154q27 18 51 18q21 0 19 -12q-1 -12 -25 -31l-258 -211q-28 -22 -55 -22z" />
    <glyph glyph-name="breve" unicode="&#x2d8;" horiz-adv-x="833" 
d="M723 1067h-2q-45 0 -81.5 16.5t-57.5 43.5t-35 61t-13.5 68.5t7.5 66.5q12 35 30 35q24 0 21 -33q-7 -75 34.5 -112t127.5 -37q174 0 247 149q17 33 37 33q10 0 13 -9t-2 -26q-25 -88 -120.5 -172t-205.5 -84z" />
    <glyph glyph-name="dotaccent" unicode="&#x2d9;" horiz-adv-x="464" 
d="M541 1071h-2q-41 0 -56 28.5t-4 71.5q11 40 44.5 70.5t74.5 30.5q40 0 56 -30.5t5 -70.5q-11 -41 -44.5 -70.5t-73.5 -29.5z" />
    <glyph glyph-name="ring" unicode="&#x2da;" horiz-adv-x="587" 
d="M649 1262h-2q-60 0 -89.5 42t-12.5 103q17 60 71.5 102.5t114.5 42.5q61 0 91.5 -42.5t13.5 -102.5q-19 -61 -73 -103t-114 -42zM668 1331h2q31 0 58.5 22.5t35.5 53.5q9 32 -6.5 53t-46.5 21t-59 -21t-38 -53q-8 -31 8 -53.5t46 -22.5z" />
    <glyph glyph-name="tilde" unicode="&#x2dc;" horiz-adv-x="890" 
d="M924 1266q-38 0 -74 23.5t-59.5 51t-55 51t-61.5 23.5q-40 -3 -76.5 -35t-85.5 -98l-23 23q37 78 114 141.5t140 64.5q31 0 60 -15.5t52 -37.5t44.5 -44t45.5 -37.5t46 -14.5q20 0 40 8t34 18t30 27t24.5 27.5t20.5 28t15 20.5l23 -21q-26 -78 -107 -141t-147 -63z" />
    <glyph glyph-name="endash" unicode="&#x2013;" horiz-adv-x="806" 
d="M936 516l-784 -6l28 106l785 7z" />
    <glyph glyph-name="emdash" unicode="&#x2014;" horiz-adv-x="1476" 
d="M1606 516l-1454 -6l28 106l1454 7z" />
    <glyph glyph-name="quoteleft" unicode="&#x2018;" horiz-adv-x="462" 
d="M623 1339q58 -3 77.5 -39.5t-0.5 -82.5q-21 -52 -66 -80t-87 -23q-43 5 -58 42.5t5 100.5q31 93 104 163.5t170 101.5l8 -33q-69 -32 -110 -72.5t-43 -77.5z" />
    <glyph glyph-name="quoteright" unicode="&#x2019;" horiz-adv-x="419" 
d="M582 1296q-58 3 -78 40t0 83q21 51 65.5 79.5t85.5 23.5q43 -5 59.5 -43t-3.5 -101q-31 -93 -104 -163t-171 -101l-8 33q69 32 110 72t44 77z" />
    <glyph glyph-name="quotesinglbase" unicode="&#x201a;" horiz-adv-x="462" 
d="M248 -14q-59 1 -78.5 37.5t2.5 82.5q19 52 63.5 80t86.5 23q43 -5 58.5 -42.5t-3.5 -100.5q-30 -93 -103.5 -162.5t-171.5 -102.5l-8 33q69 32 110 73t44 79z" />
    <glyph glyph-name="quotedblleft" unicode="&#x201c;" horiz-adv-x="735" 
d="M856 1292q58 -1 78 -39t-2 -84q-19 -50 -64.5 -78.5t-87.5 -23.5q-43 6 -58 44t5 101q30 93 103 162.5t171 102.5l9 -35q-69 -32 -111 -72.5t-43 -77.5zM549 1292q58 -1 78 -39t-2 -84q-19 -50 -64.5 -78.5t-87.5 -23.5q-43 6 -58 44t5 101q30 93 103 162.5t171 102.5
l8 -35q-69 -32 -110 -72.5t-43 -77.5z" />
    <glyph glyph-name="quotedblright" unicode="&#x201d;" horiz-adv-x="735" 
d="M553 1251q-39 1 -61.5 19t-24.5 44.5t8 57.5q19 52 64.5 81t87.5 24q43 -6 58.5 -44.5t-3.5 -101.5q-30 -93 -103 -162t-171 -102l-9 35q69 32 110 72t44 77zM860 1251q-39 1 -61.5 19t-24.5 44.5t8 57.5q19 52 64.5 81t87.5 24q43 -6 58.5 -44.5t-3.5 -101.5
q-30 -93 -103 -162t-171 -102l-8 35q68 32 109 72t44 77z" />
    <glyph glyph-name="quotedblbase" unicode="&#x201e;" horiz-adv-x="735" 
d="M248 -14q-59 1 -78.5 37.5t2.5 82.5q19 52 63.5 80t86.5 23q43 -5 58.5 -42.5t-3.5 -100.5q-30 -93 -103.5 -162.5t-171.5 -102.5l-8 33q69 32 110 73t44 79zM555 -14q-59 1 -78.5 37.5t2.5 82.5q19 52 63.5 80t86.5 23q43 -5 58.5 -42.5t-3.5 -100.5
q-30 -93 -103 -162.5t-171 -102.5l-9 33q69 32 110 73t44 79z" />
    <glyph glyph-name="bullet" unicode="&#x2022;" horiz-adv-x="772" 
d="M629 844q63 0 94 -42t12 -102q-17 -61 -71 -102t-117 -41q-64 0 -96 41.5t-15 101.5t73 102t120 42z" />
    <glyph glyph-name="perthousand" unicode="&#x2030;" horiz-adv-x="2418" 
 />
    <glyph glyph-name="fraction" unicode="&#x2044;" horiz-adv-x="761" 
d="M168 -160h-102l933 1852h101z" />
    <glyph glyph-name="Euro" unicode="&#x20ac;" horiz-adv-x="1097" 
d="M238 664l16 55h113q5 22 16 59q10 40 12 47h-110l16 56h113q114 339 286 506t383 167q154 0 238 -91t84 -277l-164 -25q33 348 -172 348q-278 0 -479 -628h567l-16 -56h-568q-11 -37 -14 -45q-5 -23 -16 -61h567l-14 -55h-568q-160 -644 115 -644q113 0 212.5 109
t182.5 301l152 -27q-112 -212 -257 -321t-304 -109q-204 0 -278 173.5t1 517.5h-114z" />
    <glyph glyph-name="trademark" unicode="&#x2122;" horiz-adv-x="1202" 
d="M621 850h-199l10 39q3 1 12.5 1.5t17 1.5t11.5 5q24 41 59 166l78 272q1 5 7 25t11.5 39.5t10 40.5t3.5 34t-9 13q-1 0 -18 0.5t-27 0t-23.5 -2.5t-19.5 -6q-22 -22 -62 -99l-34 19q29 85 45 139h604l43 -463l291 463h157l-10 -41q-33 0 -41 -6q-24 -40 -55 -154
l-86 -303q-33 -109 -29 -137q4 -6 37 -6l-12 -41h-199l10 41q34 0 41 6q22 36 62 178l90 316l-342 -533l-60 512q-44 -161 -84 -295q-2 -8 -11 -39.5t-14.5 -52t-10.5 -45.5t-5 -39q4 -5 9.5 -6.5t15.5 -2.5t12 -1l-12 -39h-156l11 39q3 1 12.5 1.5t17 1.5t11.5 5
q16 24 57 158l76 266q39 143 37 170q-3 6 -29 6q-4 -17 -12.5 -49.5t-12.5 -48.5l-43 -19q0 87 -6 99q-3 3 -11 5t-18.5 3t-19.5 1t-20.5 -0.5t-14.5 -0.5q-23 0 -57 -129l-90 -318q-33 -110 -31 -143q3 -4 9 -5t15.5 -1.5t12.5 -1.5z" />
    </font>
</defs>
</svg>
